<?xml version="1.0" encoding="utf-8"?>
<!-- Generator: Adobe Illustrator 26.5.0, SVG Export Plug-In . SVG Version: 6.00 Build 0)  -->
<svg version="1.1" id="Capa_1" xmlns="http://www.w3.org/2000/svg" xmlns:xlink="http://www.w3.org/1999/xlink" x="0px" y="0px"
	 viewBox="0 0 100 100" style="enable-background:new 0 0 100 100;" xml:space="preserve">
<style type="text/css">
	.st0{fill:#333030;}
	.st1{fill:#B4171D;}
	.st2{fill:#99101A;}
	.st3{fill:#DBD5D5;}
	.st4{fill:#161313;}
	.st5{fill:#D1AB86;}
	.st6{fill:#FFE2C2;}
	.st7{fill:#FFF8F8;}
	.st8{fill:#0C0A0A;}
	.st9{fill:#916826;}
	.st10{fill:#F27320;}
	.st11{fill:#221E1F;}
	.st12{fill:#4F4F51;}
	.st13{fill:#D3D3D4;}
	.st14{fill-rule:evenodd;clip-rule:evenodd;fill:#4F4F51;}
	.st15{fill-rule:evenodd;clip-rule:evenodd;fill:#221E1F;}
	.st16{fill-rule:evenodd;clip-rule:evenodd;fill:#B4171D;}
	.st17{fill:#FFFFFF;}
	.st18{fill:#B4171D;fill-opacity:0;}
	.st19{fill:#B4171D;stroke:#B4171D;stroke-miterlimit:10;}
</style>
<circle class="st13" cx="49.8" cy="50.5" r="43.1"/>
<path d="M62.4,39.5c-2.8-2.8-5.8-5.4-9-7.7c2.2-1.3,4.5-2.4,6.8-3.4c0.6-0.2,1.2-0.4,1.8-0.6c1.6,1.9,4.4,2.2,6.3,0.6
	c0.5-0.4,0.9-0.9,1.2-1.5c1.4,0.1,2.7,0.7,3.8,1.7c2.3,2.3,2.4,7.1,0.2,12.9c1,1.3,1.8,2.6,2.7,3.9c0.3-0.8,0.7-1.6,1-2.3
	c2.9-7.6,2.5-13.8-1-17.3c-1.8-1.7-4.1-2.7-6.5-2.8c-1.1-2.2-3.8-3.2-6-2.1c-1.3,0.6-2.2,1.8-2.5,3.2c-0.7,0.2-1.5,0.4-2.2,0.7
	c-3.1,1.2-6.1,2.8-9,4.6c-2.8-1.9-5.9-3.4-9-4.7c-7.6-2.9-13.8-2.5-17.2,1c-3.3,3.3-3.8,8.7-1.6,15.4c-1.5,2-1.2,4.8,0.8,6.3
	c0.7,0.5,1.5,0.8,2.3,0.9c0.6,1.2,1.3,2.4,2.1,3.6c-1.8,2.8-3.4,5.9-4.6,9c-2.9,7.5-2.5,13.8,1,17.2c2.2,2,5.1,3.1,8.1,3
	c3.1-0.1,6.2-0.8,9.1-2c3.1-1.2,6.2-2.8,9-4.6c2.8,1.9,5.8,3.5,8.9,4.7c2.3,0.9,4.7,1.5,7.2,1.8c1.1,2.3,3.8,3.2,6,2.2
	c1.5-0.7,2.5-2.2,2.6-3.9c0.5-0.3,1-0.7,1.5-1.1c3.6-3.6,3.9-9.7,1-17.2C73.8,52.9,68.7,45.6,62.4,39.5z M39.5,75.6
	c-5.9,2.3-10.7,2.2-13.1-0.2c-2.4-2.4-2.4-7.1-0.1-13c0.9-2.4,2-4.7,3.4-6.8c2.3,3.2,4.9,6.2,7.7,9c0.8,0.8,1.7,1.7,2.6,2.5
	c1.2-0.6,2.4-1.3,3.6-2.1c-1.1-1-2.3-2-3.4-3.2c-4.4-4.3-8.2-9.3-11.3-14.7c1.7-1.8,1.7-4.6-0.1-6.4c-0.8-0.8-2-1.3-3.1-1.3l0,0
	c-1.5-4.9-1.2-8.8,0.8-10.9c1.5-1.3,3.4-1.9,5.3-1.8c2.7,0.1,5.3,0.6,7.7,1.7c2.4,0.9,4.7,2.1,6.8,3.4c-3.2,2.3-6.2,4.9-9,7.7
	c-0.9,0.9-1.7,1.8-2.5,2.7c0.6,1.2,1.2,2.5,2,3.6c1.1-1.2,2.1-2.4,3.3-3.5c3-3,6.3-5.8,9.8-8.2c3.5,2.4,6.7,5.2,9.7,8.2
	c3,3,5.8,6.3,8.2,9.8c-2.4,3.5-5.2,6.8-8.2,9.8C53.9,67.8,47.1,72.5,39.5,75.6z M73.3,75.4L73,75.7c-1.9-1.6-4.7-1.4-6.3,0.5
	c-0.2,0.3-0.4,0.6-0.6,0.9c-2-0.3-4-0.8-5.9-1.5c-2.4-0.9-4.7-2.1-6.8-3.4c3.2-2.3,6.2-4.9,9-7.7c2.8-2.8,5.4-5.8,7.7-9
	c1.3,2.2,2.4,4.5,3.4,6.8C75.7,68.3,75.7,73.1,73.3,75.4z"/>
<circle cx="49.9" cy="52.1" r="6.5"/>
<rect x="14.5" y="16.7" class="st18" width="70.7" height="70.7"/>
<path class="st19" d="M50,59.5L50,59.5c-4.1,0-7.5-3.4-7.5-7.5v0c0-4.1,3.4-7.5,7.5-7.5h0c4.1,0,7.5,3.4,7.5,7.5v0
	C57.5,56.1,54.1,59.5,50,59.5z"/>
</svg>
