<?xml version="1.0" encoding="utf-8"?>
<!-- Generator: Adobe Illustrator 26.5.0, SVG Export Plug-In . SVG Version: 6.00 Build 0)  -->
<svg version="1.1" id="Capa_1" xmlns="http://www.w3.org/2000/svg" xmlns:xlink="http://www.w3.org/1999/xlink" x="0px" y="0px"
	 viewBox="0 0 100 100" style="enable-background:new 0 0 100 100;" xml:space="preserve">
<style type="text/css">
	.st0{fill:#333030;}
	.st1{fill:#B4171D;}
	.st2{fill:#99101A;}
	.st3{fill:#DBD5D5;}
	.st4{fill:#161313;}
	.st5{fill:#D1AB86;}
	.st6{fill:#FFE2C2;}
	.st7{fill:#FFF8F8;}
	.st8{fill:#0C0A0A;}
	.st9{fill:#916826;}
	.st10{fill:#F27320;}
	.st11{fill:#221E1F;}
	.st12{fill:#4F4F51;}
	.st13{fill:#D3D3D4;}
	.st14{fill-rule:evenodd;clip-rule:evenodd;fill:#4F4F51;}
	.st15{fill-rule:evenodd;clip-rule:evenodd;fill:#221E1F;}
	.st16{fill-rule:evenodd;clip-rule:evenodd;fill:#B4171D;}
	.st17{fill:#FFFFFF;}
	.st18{fill:#B4171D;fill-opacity:0;}
	.st19{fill:#B4171D;stroke:#B4171D;stroke-miterlimit:10;}
</style>
<g>
	<g>
		<path class="st0" d="M12.9-47.8c0-2.5-2.4-4.2-5.7-5.2l0.2-0.3l-2.2-1L5-54l-0.7-0.2v-2c0.8-1,1.5-2.3,2-3.6
			c0.1,0.3,0.2,0.5,0.4,0.5c0.5,0.1,1.2-0.8,1.5-2.2s0.2-2.6-0.3-2.7c-0.2-0.1-0.5,0.1-0.7,0.4c0,0,1.3-8.2-2.9-6.7
			c1-4.9-13.8-4.7-12,6.7c-0.2-0.3-0.5-0.4-0.7-0.4c-0.5,0.1-0.7,1.4-0.4,2.7c0.3,1.4,1,2.3,1.5,2.2c0.2-0.1,0.3-0.2,0.4-0.5
			c0.5,1.3,1.2,2.5,2,3.6v1.9l-0.7,0.2l-0.1-0.4L-6.9-54c-1.5-1.1-5.6-1.8-5.6-1.8l-1-0.3l-0.8-0.4l-2.1-1.6l0,0
			c-0.4-0.4-0.7-0.8-0.8-1.6l-0.4,0.2v-1.7c0.9-1.1,1.7-2.4,2.3-3.9c0.5,0,1.5-0.8,1.9-1.9c0.4-1.2,0.4-2.4-0.1-2.5
			c-0.2-0.1-0.4,0-0.6,0.1c0.1-0.8,0.3-1.8,0.4-3.2c0.1-1.1-0.9-4.8-1.4-5.3c-3.6-3.7-7.9-3-10.3-2.4c-2.8,0.7-5.1,3.4-5.7,5.7
			c-0.6,2.1-0.3,4.3-0.1,5.2c-0.2-0.2-0.4-0.2-0.6-0.2c-0.5,0.2-0.6,1.3-0.1,2.5c0.4,1.2,1.5,2,2,1.9c0.6,1.5,1.3,2.8,2.2,3.9v1.7
			l-0.4-0.2c0,0.8-0.4,1.3-0.8,1.7l-1.7,1.8l-0.4,0.2l-1.5,0.4c0,0-5.1,0.8-6,2.2c-0.2,0.1-0.4,0.5-0.6,0.9h-0.1
			c-0.4-1.6-0.4-3.2,0.5-5c1.4-2.3,1.9-4.8,1.6-6.8c-0.6-3-1.8-5.4-3.7-7c-0.3-2-1.5-3.1-3.8-3.1c-5.9,0.4-9.1,3.9-10.3,9.5
			c-0.4,2,0.1,4.5,1.6,6.8c1,1.9,1,3.6,0.4,5.4l-0.5,0.3l0.3,0.4c-0.1,0.2-0.2,0.4-0.3,0.7c-2,1.5-4.1,2.4-4.5,5.1l-0.1,2.6h10.2
			h4.2h3.5c-0.1,2.5,0,4.6,0.1,4.6c0.3,0,12.9,0,15.4,0c3.2,0,19.5,0,19.8,0c0.1,0,0.2-2.1,0.1-4.7h2.4h4.6h11L12.9-47.8z"/>
	</g>
	<g>
		<g>
			<path class="st1" d="M16.1-51.3c0,22.1-17.9,40.1-40.1,40.1c-22.1,0-40.1-18-40.1-40.1s18-40.1,40.1-40.1S16.1-73.4,16.1-51.3z"
				/>
		</g>
		<g>
			<path class="st2" d="M16.1-51.3c0-0.1,0-0.3,0-0.4c-3.6-3.6-10.9-10.9-11-11c-0.3-0.4-0.7-0.7-1.2-0.8c-0.1-0.1-0.2-0.2-0.3-0.3
				C3.4-64,3.2-64.2,3-64.4S2.6-64.8,2.4-65c-1.6-2.3-8.1-2.1-10.7,2.2c-0.1-0.1-7.2-7.2-7.4-7.4c-0.1-0.1-0.1-0.1-0.2-0.2
				c-0.1-0.1-0.3-0.3-0.4-0.4s-0.1-0.1-0.2-0.2c-3.6-3.7-7.9-3-10.3-2.4c-2.8,0.7-5.1,3.4-5.7,5.7c-0.6,2.1-0.3,4.3-0.1,5.2
				c-0.2-0.2-0.4-0.2-0.6-0.2c-0.5,0.2-0.6,1.3-0.1,2.5c0.2,0.7,0.7,1.3,1.2,1.6c0.2,0.2,0.4,0.4,0.6,0.6c0.2,0.2,0.4,0.4,0.6,0.6
				c0,0,0,0,0,0.1c0.5,1.1,1.1,2.1,1.8,3v2l-0.3-0.2c0,0-0.1,0-0.1-0.1c-0.2-0.2-0.4-0.4-0.6-0.6c-0.2-0.2-0.4-0.4-0.6-0.6
				c-0.1-0.2-11.5-11.5-11.7-11.7c-0.2-0.2-0.4-0.4-0.6-0.6c-0.6-0.9-1.6-1.3-3.2-1.3c-5.9,0.4-9.1,3.9-10.3,9.5
				c-0.4,2,0.1,4.5,1.6,6.8c1,1.9,1,3.6,0.4,5.4l-0.5,0.3l0.3,0.4c-0.1,0.2-0.2,0.4-0.3,0.7c-2,1.5-4.1,2.4-4.5,5.1l-0.2,2.8
				l24.3,23.7c3.6,1.1,7.4,1.6,11.4,1.6C-1.9-11.2,16.1-29.2,16.1-51.3z"/>
		</g>
		<g>
			<g>
				<g>
					<g>
						<polygon class="st3" points="-43.4,-46.9 -51.6,-47.1 -52.5,-46.8 -52.8,-46.6 -52.7,-46.4 -50.2,-38.6 -49.4,-36.5 
							-45.2,-36.5 -44.8,-38.5 -42.6,-46.3 -42.5,-46.7 						"/>
					</g>
					<g>
						<path class="st4" d="M-52.7-46.4c-2.3,3-6,3.4-6.7,7.1l-0.2,2.8h10.2l-0.7-2.1L-52.7-46.4z"/>
					</g>
					<g>
						<path class="st4" d="M-45.2-36.5h9.8l-0.2-2.8c-0.5-2.5-3.3-3.7-7-7l-2.2,7.9L-45.2-36.5z"/>
					</g>
					<g>
						<path class="st5" d="M-45-50.7h-0.8h-4.3c-0.9,0-1.6,0.6-1.6,1.4v3.6c0,0.8,0.7,1.4,1.6,1.4h5.1c0.8,0,1.4-0.5,1.6-1.1l0,0
							v-0.3v-0.1v-3.5C-43.4-50-44.1-50.7-45-50.7z"/>
					</g>
					<g>
						<path class="st6" d="M-40-57.4c-0.2-0.1-0.4,0.1-0.6,0.4c0-0.1,0-0.3,0-0.4c0-4.5-3.1-8.2-6.9-8.2s-6.9,3.7-6.9,8.2
							c0,0.1,0,0.3,0,0.4c-0.2-0.3-0.4-0.4-0.6-0.4c-0.5,0.1-0.6,1.4-0.3,2.8c0.3,1.4,0.9,2.4,1.4,2.3c0.2-0.1,0.3-0.2,0.4-0.5
							c1.2,3.4,3.4,6.5,6,6.5s4.9-3.1,6-6.5c0.1,0.3,0.2,0.5,0.4,0.5c0.5,0.1,1.1-0.9,1.4-2.3C-39.4-55.9-39.5-57.2-40-57.4z"/>
					</g>
					<g>
						<path class="st7" d="M-51.7-46.7c0,0,0.1,1.3,2.5,2c2.3,0.7,0.8,2.3,0.8,2.3l-1.8,0.4l-1.1-2.1l-0.5-1.6L-51.7-46.7z"/>
					</g>
					<g>
						<path class="st7" d="M-43.3-46.5c0,0-0.1,1.3-2.5,2c-2.3,0.7-0.8,2.3-0.8,2.3l1.8,0.4l1.1-2.1l0.5-1.6L-43.3-46.5z"/>
					</g>
					<g>
						<polygon class="st0" points="-52.4,-46.9 -54.9,-45.4 -50.2,-38.6 						"/>
					</g>
					<g>
						<polygon class="st0" points="-42.6,-46.9 -40,-45 -44.8,-38.5 						"/>
					</g>
					<g>
						<g>
							<polygon class="st8" points="-47.8,-41.5 -49.1,-36.5 -45.6,-36.5 -47.1,-41.5 							"/>
						</g>
						<g>
							<polygon class="st8" points="-48.5,-44.3 -46.4,-44.3 -46.1,-42.8 -46.5,-41.3 -48.4,-41.3 -48.9,-42.7 							"/>
						</g>
					</g>
					<g>
						<path class="st8" d="M-40.2-50.5c1.4-2.3,1.9-4.8,1.6-6.8c-0.6-3-1.8-5.4-3.7-7c-0.3-2-1.5-3.1-3.8-3.1
							c-5.9,0.4-9.1,3.9-10.3,9.5c-0.4,2,0.1,4.5,1.6,6.8c1.6,3.1,0.6,5.4-0.9,8.6c3.8-1.2,6.3-2.5,5.5-4.1
							c-2.1-4.8-3.2-9.4-0.1-13.4c1,0,2-0.4,3-1.4c-0.3,1.3-1.1,2.1-2.2,2.7c1.4-0.1,2.5-1.1,3.4-2.7c0.1,2.2-1.5,3.2-3.5,3.7
							c2.2,0,3.9-0.4,5.2-1.3c2.7,4,1.5,8.4-0.5,12.9c-0.8,1.6,1.7,2.9,5.5,4.1C-40.8-45.2-41.8-47.5-40.2-50.5z"/>
					</g>
				</g>
			</g>
			<g>
				<g>
					<g>
						<polygon class="st3" points="2.6,-47 -6.3,-47.2 -7.3,-46.9 -7.6,-46.7 -7.5,-46.5 -4.8,-38.7 -4,-36.6 0.6,-36.6 1,-38.6 
							3.4,-46.5 3.5,-46.8 						"/>
					</g>
					<g>
						<path class="st4" d="M-7.5-46.5c-4.2,0.8-7.5,2.7-7.5,5.8l-0.3,4H-4l-0.8-2.1L-7.5-46.5z"/>
					</g>
					<g>
						<path class="st4" d="M0.6-36.6h11l-0.3-4c0-2.9-3.5-4.9-7.9-5.8L1-38.6L0.6-36.6z"/>
					</g>
					<g>
						<path class="st5" d="M0.9-50.5H0h-4.7c-1,0-1.7,0.6-1.7,1.4v3.5c0,0.7,0.8,1.4,1.7,1.4h5.5c0.8,0,1.5-0.5,1.7-1.1l0,0v-0.3
							v-0.1v-3.4C2.6-49.9,1.8-50.5,0.9-50.5z"/>
					</g>
					<g>
						<path class="st6" d="M6.3-57c-0.2-0.1-0.5,0.1-0.7,0.4c0-0.1,0-0.3,0-0.4c0-4.4-3.3-7.9-7.4-7.9s-7.4,3.5-7.4,7.9
							c0,0.1,0,0.3,0,0.4C-9.4-56.9-9.7-57-9.9-57c-0.5,0.1-0.7,1.4-0.4,2.7c0.3,1.4,1,2.3,1.5,2.2c0.2-0.1,0.3-0.2,0.4-0.5
							c1.3,3.3,3.7,6.2,6.5,6.2s5.3-3,6.5-6.2c0.1,0.3,0.2,0.5,0.4,0.5c0.5,0.1,1.2-0.8,1.5-2.2C6.9-55.6,6.8-56.8,6.3-57z"/>
					</g>
					<g>
						<path class="st7" d="M-6.5-46.8c0,0,0.1,1.3,2.7,2c2.5,0.7,0.8,2.3,0.8,2.3l-2,0.4l-1.2-2.1l-0.5-1.6L-6.5-46.8z"/>
					</g>
					<g>
						<path class="st7" d="M2.7-46.6c0,0-0.1,1.3-2.7,2c-2.5,0.7-0.8,2.3-0.8,2.3l2,0.4L2.4-44l0.5-1.6L2.7-46.6z"/>
					</g>
					<g>
						<polygon class="st0" points="-7.2,-47.4 -9.5,-46.3 -4.8,-38.7 						"/>
					</g>
					<g>
						<polygon class="st0" points="3.5,-47.2 5.7,-46.2 1,-38.6 						"/>
					</g>
					<g>
						<polygon class="st8" points="-2.2,-41.6 -3.4,-36.7 0,-36.7 -1.4,-41.6 						"/>
					</g>
					<g>
						<polygon class="st8" points="-2.8,-44.5 -0.8,-44.5 -0.4,-42.9 -0.8,-41.4 -2.7,-41.4 -3.2,-42.8 						"/>
					</g>
					<g>
						<path class="st9" d="M2.7-63.3c1-4.9-13.8-4.7-12,6.7l0.9,4.1l0.5-3.3l0.2-2.5c0,0,5,2.5,9.2-2.7c1.6,0.7,2.4,2,2.7,5.2
							l0.4,3.4l0.9-4.1C5.6-56.6,6.8-64.8,2.7-63.3z"/>
					</g>
				</g>
			</g>
			<g>
				<g>
					<g>
						<path class="st3" d="M-22.8-33.8l8.7-13.9l-4.5-3.4l-11.3,0.8l-4.3,4l9.7,13.4C-23.9-33.1-23.4-33.5-22.8-33.8z"/>
					</g>
					<g>
						<path class="st4" d="M-30.8-49.4l-3.3,0.8c0,0-5.1,0.8-6,2.2c-1.7,1.1-1.8,14.4-1.5,14.5c0.3,0.1,15.8,0,15.8,0
							c0.6-0.4,1.2-0.8,1.8-1.1l0,0L-30.8-49.4z"/>
					</g>
					<g>
						<path class="st4" d="M-17.2-49.4l3.3,0.8c0,0,5.1,0.8,6,2.2c1.7,1.1,1.8,14.4,1.5,14.5c-0.3,0.1-20.3,0-20.3,0
							c-0.6-0.4,1.5-0.6,2.7-1.1l0,0L-17.2-49.4z"/>
					</g>
					<g>
						<rect x="-29.1" y="-56.5" class="st5" width="10.1" height="7.9"/>
					</g>
					<g>
						<g>
							<path class="st6" d="M-15.9-61.5c-0.6,6.1-5.2,10.6-8.2,10.6c-3.1,0-7.4-4.7-8.2-10.6c-0.6-5.9,3.8-8.8,8.3-8.8
								S-15.3-67.4-15.9-61.5z"/>
						</g>
						<g>
							<path class="st8" d="M-32.5-67.5c0.7-2.3,2.9-5,5.7-5.7c2.4-0.6,6.6-1.3,10.3,2.4c0.5,0.5,1.5,4.2,1.4,5.3
								c-0.4,3.9-0.8,4.9-0.8,4.9l-1,0.4c0,0,0.5-1.3-0.2-3.2c-0.2-0.5-0.4-1-0.7-1.4c-4.1,2.3-10.5,2.7-13.4,2.8
								c-0.1,1,0.1,1.7,0.1,1.7l-1-0.4c0,0-0.1-0.3-0.3-1.3c-0.2,0-0.4,0-0.4,0S-33.3-64.7-32.5-67.5z"/>
						</g>
						<g>
							<g>
								<path class="st6" d="M-31.5-60.6c0.4,1.2,0.8,2.4,0.2,2.6c-0.5,0.2-1.6-0.7-2.1-1.9c-0.4-1.2-0.4-2.4,0.1-2.5
									C-32.6-62.6-31.9-61.8-31.5-60.6z"/>
							</g>
						</g>
						<g>
							<g>
								<path class="st6" d="M-16.6-60.6c-0.4,1.2-0.8,2.4-0.2,2.6c0.5,0.2,1.6-0.7,2.1-1.9c0.4-1.2,0.4-2.4-0.1-2.5
									C-15.4-62.6-16.2-61.8-16.6-60.6z"/>
							</g>
						</g>
					</g>
					<g>
						<g>
							<polygon class="st8" points="-21.5,-47.3 -24,-45.2 -26.6,-47.3 -24,-49.4 							"/>
						</g>
						<g>
							<polygon class="st8" points="-24.5,-45.6 -26,-38.3 -24.1,-32.3 -21.8,-38.3 -23.5,-45.6 							"/>
						</g>
					</g>
					<g>
						<g>
							<path class="st7" d="M-29.4-52.6l5.4,3.1l-1.8,3.8l-4.2-3.8c0,0-1.1-0.3-0.7-0.8C-30.4-50.8-29.5-51.3-29.4-52.6z"/>
						</g>
						<g>
							<path class="st7" d="M-18.6-52.5l-5.4,3.1l1.8,3.8l4.2-3.9c0,0,1.1-0.3,0.7-0.8C-17.7-50.8-18.5-51.3-18.6-52.5z"/>
						</g>
					</g>
					<g>
						<polygon class="st0" points="-24,-33.1 -30.2,-50.9 -32.3,-49.2 -34.5,-48 -31.8,-43.6 -30.6,-43.6 -31.4,-41 						"/>
					</g>
					<g>
						<polygon class="st0" points="-24,-33.1 -17.8,-50.9 -15.8,-49.3 -13.4,-48 -16.3,-43.6 -17.5,-43.6 -16.7,-41 						"/>
					</g>
				</g>
			</g>
		</g>
	</g>
</g>
<rect x="19.6" y="-72.3" class="st1" width="27.9" height="27.9"/>
<rect x="61.7" y="-72.3" class="st10" width="27.9" height="27.9"/>
<rect x="102" y="-72.3" class="st11" width="27.9" height="27.9"/>
<rect x="138.8" y="-72.3" class="st12" width="27.9" height="27.9"/>
<circle class="st13" cx="49.8" cy="50.5" r="43.1"/>
<circle class="st13" cx="242" cy="-65.6" r="43.1"/>
<g>
	<path class="st14" d="M217.7-67.6c-0.2,0-0.3,0.1-0.5,0.1c-1.2,0-2.3-1-2.5-2.1c-0.3-1.4,0.7-2.8,2-3c6.3-1.1,13-4.4,20-9.5l-3-3.5
		l14.1-2.4l-5,13.4l-2.9-3.5C232.1-72.4,224.9-68.9,217.7-67.6L217.7-67.6z"/>
	<path class="st15" d="M260.6-74.6c2.1,0,3.8-2.5,3.8-4.6s-1.7-3.9-3.8-3.9s-3.8,1.8-3.8,3.9C256.7-77.1,258.5-74.6,260.6-74.6
		L260.6-74.6z"/>
	<rect x="215.5" y="-59.5" class="st16" width="7.6" height="16.1"/>
	<rect x="241.6" y="-72.3" class="st16" width="7.6" height="28.9"/>
	<rect x="228.5" y="-65.6" class="st16" width="7.6" height="22.1"/>
	<path class="st15" d="M268.1-72c0-0.1-0.1-0.2-0.1-0.4c-0.1-0.1-0.1-0.1-0.2-0.2c0-0.1-0.1-0.2-0.2-0.2c-0.1-0.1-0.2-0.2-0.3-0.2
		c0-0.1-0.1-0.1-0.2-0.1c-0.1-0.1-3.2-1.2-6-1.3l-0.4,0.8l1,8l-1.2,2.1l-1.2-2.1l1.1-8l0,0l-0.4-0.8c-2.8,0.1-5.9,1.2-6,1.3
		c-0.1,0-0.2,0-0.2,0.1c-0.1,0-0.2,0.1-0.3,0.2c-0.1,0-0.1,0.1-0.2,0.2c-0.1,0.1-0.1,0.1-0.2,0.2c0,0.2,0,0.3-0.1,0.4
		c0,0,0,0.1,0,0.2l-1.2,10.9c-0.1,0.9,0.5,1.6,1.3,1.7c0.1,0,0.1,0,0.2,0c0.8,0,1.4-0.6,1.5-1.3l1.1-9.9c0.2-0.1,0.3-0.2,0.5-0.2
		v10.4l-1.2,15c-0.1,1.1,0.7,1.9,1.6,2c0.1,0,0.2,0,0.2,0c1,0,1.7-0.8,1.8-1.7l1.1-13.6c0.3,0.1,0.5,0.2,0.8,0.2
		c0.3,0,0.6-0.1,0.8-0.2l1.1,13.6c0.1,1,1,1.7,1.8,1.7c0.1,0,0.1,0,0.2,0c1-0.1,1.7-1,1.6-2l-1.2-15v-10.4c0.2,0,0.4,0.1,0.5,0.2
		l1.1,9.9c0.1,0.8,0.8,1.3,1.4,1.3c0.1,0,0.1,0,0.2,0c0.9-0.1,1.4-0.9,1.3-1.7l-1.3-10.9C268.2-71.9,268.1-72,268.1-72L268.1-72z"/>
</g>
<g>
	<g>
		<rect x="-123.5" y="23.1" class="st17" width="4" height="13.5"/>
	</g>
	<g>
		<polygon class="st17" points="-121.6,17.8 -119.6,21.3 -117.6,24.7 -121.6,24.7 -125.5,24.7 -123.6,21.3 		"/>
	</g>
</g>
<g>
	<path d="M-180.6,55c1.1,0,2-0.9,2-2c0-0.6-0.2-1.1-0.6-1.4c-0.2,0.6-0.6,1.2-1.1,1.7c-0.5,0.5-1.1,0.9-1.7,1.1
		C-181.6,54.8-181.1,55-180.6,55z"/>
	<path class="st1" d="M-189.8,50.1c-0.3,0.9-0.4,1.9-0.4,2.9c0,5.3,4.3,9.7,9.7,9.7c5.3,0,9.7-4.3,9.7-9.7c0-5.3-4.3-9.7-9.7-9.7
		c-1,0-2,0.2-2.9,0.4c0,0,3.4,3.4,3.5,3.6c2.8,0.3,5.1,2.7,5.1,5.7c0,3.2-2.6,5.7-5.7,5.7c-2.9,0-5.4-2.2-5.7-5.1
		C-186.4,53.5-189.8,50.1-189.8,50.1L-189.8,50.1z"/>
	<path d="M-180.6,70.4c9.6,0,17.4-7.8,17.4-17.4s-7.8-17.4-17.4-17.4c-3.2,0-6.1,0.9-8.7,2.3l2.9,2.9c1.7-0.8,3.7-1.3,5.8-1.3
		c7.4,0,13.4,6,13.4,13.4c0,7.4-6,13.4-13.4,13.4c-7.4,0-13.4-6-13.4-13.4c0-2.1,0.5-4,1.3-5.8l-2.9-2.9c-1.5,2.6-2.3,5.5-2.3,8.7
		C-198,62.6-190.2,70.4-180.6,70.4L-180.6,70.4z"/>
	<path d="M-202.9,28.5c0,1.2-1,2.2-2.2,2.2h-0.5l20.8,20.8c0.4,0.4,0.8,0.5,1.3,0.5c0.5,0,1-0.2,1.3-0.5c0.7-0.7,0.7-1.9,0-2.6
		L-202.9,28V28.5z"/>
	<path class="st10" d="M-180.6,24.2c-6.3,0-12.2,2.1-16.9,5.5l5.5,5.5c3.3-2.1,7.2-3.4,11.4-3.4c11.7,0,21.1,9.5,21.1,21.1
		s-9.5,21.1-21.1,21.1s-21.1-9.5-21.1-21.1c0-4.2,1.2-8.1,3.4-11.4l-5.5-5.5c-3.5,4.8-5.5,10.6-5.5,17c0,15.9,12.9,28.8,28.8,28.8
		c15.9,0,28.8-12.9,28.8-28.8S-164.7,24.2-180.6,24.2L-180.6,24.2z"/>
	<path d="M-205.9,22.9l-3.6-3.6c-0.3-0.3-0.7-0.1-0.7,0.3v1.2c0,1.4-1.2,2.6-2.6,2.6h-1.2c-0.4,0-0.6,0.4-0.3,0.7l3.7,3.6
		c0.1,0.1,0.2,0.1,0.3,0.1h4.2c0.2,0,0.4-0.2,0.4-0.4v-4.2C-205.7,23.1-205.8,23-205.9,22.9z"/>
</g>
<g>
	<path class="st11" d="M-266,40.6c5.9,0,10.6-4.8,10.6-10.6s-4.8-10.6-10.6-10.6c-5.9,0-10.6,4.8-10.6,10.6S-271.9,40.6-266,40.6z"
		/>
	<path class="st1" d="M-218.1,66.6c-0.1-0.2-0.2-0.6-0.8-0.6l-6.4-0.8c-1.6-0.2-3-1.2-3.6-2.6l-2.7-5.9v0c-0.2-0.5-0.7-0.5-0.9-0.5
		c-0.2,0-0.6,0.1-0.9,0.5l-2.7,5.9c-0.7,1.5-2,2.4-3.6,2.6l-6.4,0.8c-0.5,0.1-0.7,0.5-0.8,0.6c-0.1,0.2-0.1,0.6,0.3,1l4.8,4.4
		c1.2,1.1,1.7,2.7,1.4,4.3l-1.2,6.4c-0.1,0.5,0.2,0.8,0.4,0.9c0.1,0.1,0.5,0.3,1,0.1l5.7-3.2c0.7-0.4,1.5-0.6,2.2-0.6
		c0.8,0,1.5,0.2,2.2,0.6l5.7,3.2c0.5,0.3,0.9,0,1-0.1c0.1-0.1,0.5-0.4,0.4-0.9l-1.2-6.4c-0.3-1.6,0.2-3.2,1.4-4.3l4.8-4.4
		C-218,67.2-218.1,66.8-218.1,66.6L-218.1,66.6z"/>
	<path class="st10" d="M-250.5,65.5c0.6-1.7,2-2.9,3.8-3.2l1.4-0.2v-7.5c0-4.1-2.6-7.6-6.5-8.9l0,0l-5.6-0.9c-0.5-0.1-1,0.1-1.2,0.6
		l-6.4,17.5c-0.4,1-1.8,1-2.2,0l-6.4-17.5c-0.1-0.4-0.5-0.6-0.9-0.6c-0.1,0-5.9,1-5.9,1c-3.9,1.3-6.5,4.9-6.5,9v14.6
		c0,2.2,1.8,4,4,4h33.6c0.9,0,1.7-0.3,2.3-0.7l-2.4-2.2C-250.6,69.1-251.1,67.2-250.5,65.5L-250.5,65.5z"/>
	<path d="M-263.7,44.4c-0.2-0.3-0.6-0.4-1-0.4h-2.7c-0.4,0-0.7,0.1-1,0.4c-0.4,0.4-0.4,1-0.2,1.5l1.4,2.2l-0.7,5.7l1.3,3.5
		c0.1,0.4,0.6,0.4,0.8,0l1.3-3.5l-0.7-5.7l1.4-2.2C-263.3,45.4-263.3,44.8-263.7,44.4L-263.7,44.4z"/>
</g>
<path d="M207.1,33c-2.8-2.8-5.8-5.4-9-7.7c2.2-1.3,4.5-2.4,6.8-3.4c0.6-0.2,1.2-0.4,1.8-0.6c1.6,1.9,4.4,2.2,6.3,0.6
	c0.5-0.4,0.9-0.9,1.2-1.5c1.4,0.1,2.7,0.7,3.8,1.7c2.3,2.3,2.4,7.1,0.2,12.9c1,1.3,1.8,2.6,2.7,3.9c0.3-0.8,0.7-1.6,1-2.3
	c2.9-7.6,2.5-13.8-1-17.3c-1.8-1.7-4.1-2.7-6.5-2.8c-1.1-2.2-3.8-3.2-6-2.1c-1.3,0.6-2.2,1.8-2.5,3.2c-0.7,0.2-1.5,0.4-2.2,0.7
	c-3.1,1.2-6.1,2.8-9,4.6c-2.8-1.9-5.9-3.4-9-4.7c-7.6-2.9-13.8-2.5-17.2,1c-3.3,3.3-3.8,8.7-1.6,15.4c-1.5,2-1.2,4.8,0.8,6.3
	c0.7,0.5,1.5,0.8,2.3,0.9c0.6,1.2,1.3,2.4,2.1,3.6c-1.8,2.8-3.4,5.9-4.6,9c-2.9,7.5-2.5,13.8,1,17.2c2.2,2,5.1,3.1,8.1,3
	c3.1-0.1,6.2-0.8,9.1-2c3.1-1.2,6.2-2.8,9-4.6c2.8,1.9,5.8,3.5,8.9,4.7c2.3,0.9,4.7,1.5,7.2,1.8c1.1,2.3,3.8,3.2,6,2.2
	c1.5-0.7,2.5-2.2,2.6-3.9c0.5-0.3,1-0.7,1.5-1.1c3.6-3.6,3.9-9.7,1-17.2C218.5,46.4,213.4,39.1,207.1,33z M184.2,69.1
	c-5.9,2.3-10.7,2.2-13.1-0.2c-2.4-2.4-2.4-7.1-0.1-13c0.9-2.4,2-4.7,3.4-6.8c2.3,3.2,4.9,6.2,7.7,9c0.8,0.8,1.7,1.7,2.6,2.5
	c1.2-0.6,2.4-1.3,3.6-2.1c-1.1-1-2.3-2-3.4-3.2c-4.4-4.3-8.2-9.3-11.3-14.7c1.7-1.8,1.7-4.6-0.1-6.4c-0.8-0.8-2-1.3-3.1-1.3l0,0
	c-1.5-4.9-1.2-8.8,0.8-10.9c1.5-1.3,3.4-1.9,5.3-1.8c2.7,0.1,5.3,0.6,7.7,1.7c2.4,0.9,4.7,2.1,6.8,3.4c-3.2,2.3-6.2,4.9-9,7.7
	c-0.9,0.9-1.7,1.8-2.5,2.7c0.6,1.2,1.2,2.5,2,3.6c1.1-1.2,2.1-2.4,3.3-3.5c3-3,6.3-5.8,9.8-8.2c3.5,2.4,6.7,5.2,9.7,8.2
	c3,3,5.8,6.3,8.2,9.8c-2.4,3.5-5.2,6.8-8.2,9.8C198.6,61.3,191.8,66,184.2,69.1z M218,68.9l-0.3,0.3c-1.9-1.6-4.7-1.4-6.3,0.5
	c-0.2,0.3-0.4,0.6-0.6,0.9c-2-0.3-4-0.8-5.9-1.5c-2.4-0.9-4.7-2.1-6.8-3.4c3.2-2.3,6.2-4.9,9-7.7c2.8-2.8,5.4-5.8,7.7-9
	c1.3,2.2,2.4,4.5,3.4,6.8C220.4,61.9,220.4,66.6,218,68.9z"/>
<circle cx="194.6" cy="45.6" r="6.5"/>
<rect x="117.4" y="14.6" class="st18" width="70.7" height="70.7"/>
<path class="st10" d="M61.6,53.2V28.6c0-0.8-0.3-1.4-0.8-1.9s-1.2-0.8-1.9-0.8H23.3c-0.8,0-1.4,0.3-1.9,0.8s-0.8,1.2-0.8,1.9v35.1
	c0,0.3,0.1,0.5,0.2,0.8c0.1,0.2,0.3,0.4,0.6,0.5s0.5,0.1,0.8,0.1c0.3,0,0.5-0.2,0.6-0.3l7.5-7.5c0.8-0.8,1.8-1.2,2.9-1.2h25.6
	c0.8,0,1.4-0.3,1.9-0.8S61.6,53.9,61.6,53.2z"/>
<path class="st11" d="M74.2,37.3H70c-0.4,0-0.7,0.1-0.9,0.4c-0.3,0.3-0.4,0.6-0.4,0.9v16.8c0,1.8-0.6,3.3-1.9,4.6s-2.8,1.9-4.6,1.9
	H34.5c-0.4,0-0.7,0.1-0.9,0.4c-0.3,0.3-0.4,0.6-0.4,0.9v4.2c0,0.8,0.3,1.4,0.8,1.9c0.5,0.5,1.2,0.8,1.9,0.8h28.4
	c1.1,0,2.1,0.4,2.9,1.2l7.5,7.5c0.2,0.2,0.4,0.3,0.6,0.3s0.5,0,0.8-0.1s0.4-0.3,0.6-0.5c0.1-0.2,0.2-0.5,0.2-0.8V40.1
	c0-0.8-0.3-1.4-0.8-1.9S74.9,37.3,74.2,37.3z"/>
<path class="st19" d="M60.8,34.2L60.8,34.2c-4.1,0-7.5-3.4-7.5-7.5v0c0-4.1,3.4-7.5,7.5-7.5h0c4.1,0,7.5,3.4,7.5,7.5v0
	C68.3,30.8,65,34.2,60.8,34.2z"/>
</svg>
