<?xml version="1.0" encoding="utf-8"?>
<!-- Generator: Adobe Illustrator 26.5.0, SVG Export Plug-In . SVG Version: 6.00 Build 0)  -->
<svg version="1.1" id="Capa_1" xmlns="http://www.w3.org/2000/svg" xmlns:xlink="http://www.w3.org/1999/xlink" x="0px" y="0px"
	 viewBox="0 0 100 100" style="enable-background:new 0 0 100 100;" xml:space="preserve">
<style type="text/css">
	.st0{fill:#333030;}
	.st1{fill:#B4171D;}
	.st2{fill:#99101A;}
	.st3{fill:#DBD5D5;}
	.st4{fill:#161313;}
	.st5{fill:#D1AB86;}
	.st6{fill:#FFE2C2;}
	.st7{fill:#FFF8F8;}
	.st8{fill:#0C0A0A;}
	.st9{fill:#916826;}
	.st10{fill:#F27320;}
	.st11{fill:#221E1F;}
	.st12{fill:#4F4F51;}
	.st13{fill:#D3D3D4;}
	.st14{fill-rule:evenodd;clip-rule:evenodd;fill:#4F4F51;}
	.st15{fill-rule:evenodd;clip-rule:evenodd;fill:#221E1F;}
	.st16{fill-rule:evenodd;clip-rule:evenodd;fill:#B4171D;}
	.st17{fill:#FFFFFF;}
</style>
<circle class="st13" cx="49.8" cy="50.5" r="43.1"/>
<g>
	<path class="st11" d="M37.3,36.6C43.2,36.6,48,31.8,48,26s-4.8-10.6-10.6-10.6S26.7,20.1,26.7,26S31.5,36.6,37.3,36.6z"/>
	<path class="st1" d="M85.2,62.6c-0.1-0.2-0.2-0.6-0.8-0.6L78,61.2c-1.6-0.2-3-1.2-3.6-2.6l-2.7-5.9v0c-0.2-0.5-0.7-0.5-0.9-0.5
		c-0.2,0-0.6,0.1-0.9,0.5l-2.7,5.9c-0.7,1.5-2,2.4-3.6,2.6L57.1,62c-0.5,0.1-0.7,0.5-0.8,0.6c-0.1,0.2-0.1,0.6,0.3,1l4.8,4.4
		c1.2,1.1,1.7,2.7,1.4,4.3l-1.2,6.4c-0.1,0.5,0.2,0.8,0.4,0.9c0.1,0.1,0.5,0.3,1,0.1l5.7-3.2c0.7-0.4,1.5-0.6,2.2-0.6
		c0.8,0,1.5,0.2,2.2,0.6l5.7,3.2c0.5,0.3,0.9,0,1-0.1c0.1-0.1,0.5-0.4,0.4-0.9l-1.2-6.4c-0.3-1.6,0.2-3.2,1.4-4.3l4.8-4.4
		C85.4,63.2,85.3,62.8,85.2,62.6L85.2,62.6z"/>
	<path class="st10" d="M52.8,61.5c0.6-1.7,2-2.9,3.8-3.2l1.4-0.2v-7.5c0-4.1-2.6-7.6-6.5-8.9l0,0L46,40.8c-0.5-0.1-1,0.1-1.2,0.6
		L38.4,59c-0.4,1-1.8,1-2.2,0l-6.4-17.5c-0.1-0.4-0.5-0.6-0.9-0.6c-0.1,0-5.9,1-5.9,1c-3.9,1.3-6.5,4.9-6.5,9v14.6c0,2.2,1.8,4,4,4
		h33.6c0.9,0,1.7-0.3,2.3-0.7L54,66.3C52.7,65.1,52.2,63.2,52.8,61.5L52.8,61.5z"/>
	<path d="M39.7,40.4c-0.2-0.3-0.6-0.4-1-0.4H36c-0.4,0-0.7,0.1-1,0.4c-0.4,0.4-0.4,1-0.2,1.5l1.4,2.2l-0.7,5.7l1.3,3.5
		c0.1,0.4,0.6,0.4,0.8,0l1.3-3.5l-0.7-5.7l1.4-2.2C40.1,41.4,40,40.8,39.7,40.4L39.7,40.4z"/>
</g>
</svg>
