<?xml version="1.0" encoding="utf-8"?>
<!-- Generator: Adobe Illustrator 25.2.1, SVG Export Plug-In . SVG Version: 6.00 Build 0)  -->
<svg version="1.1" id="圖層_1" xmlns="http://www.w3.org/2000/svg" xmlns:xlink="http://www.w3.org/1999/xlink" x="0px" y="0px"
	 viewBox="0 0 703.9 530" style="enable-background:new 0 0 703.9 530;" xml:space="preserve">
<style type="text/css">
	.st0{fill:#221E1F;}
	.st1{fill:#4F4F51;}
	.st2{fill:#F27320;}
	.st3{enable-background:new    ;}
	.st4{fill:#FFFFFF;}
	.st5{fill:#B4171D;}
	.st6{fill:#DDDEE0;stroke:#FFFFFF;stroke-width:0.4361;stroke-miterlimit:10;}
	.st7{fill:#F48462;}
	.st8{fill:#40507F;}
	.st9{fill:#A37B90;}
	.st10{fill:#92B4EA;}
	.st11{fill:#F7B369;}
	.st12{fill:#FFB655;}
	.st13{fill:#5C69A5;}
</style>
<g>
	<path class="st0" d="M568.9-435.3L568.9-435.3c60.6,0,109.8,49.1,109.8,109.8v107.1c0,60.6-49.1,109.8-109.8,109.8l0,0
		c-60.6,0-109.8-49.1-109.8-109.8v-107.1C459.1-386.2,508.2-435.3,568.9-435.3z"/>
	<path class="st1" d="M351.3-435.3L351.3-435.3c60.6,0,109.8,49.1,109.8,109.8v107.1c0,60.6-49.1,109.8-109.8,109.8l0,0
		c-60.6,0-109.8-49.1-109.8-109.8v-107.1C241.5-386.2,290.7-435.3,351.3-435.3z"/>
	<polygon class="st1" points="488.4,-272.3 460.2,-300.5 460.2,-297.9 460.2,-297.9 460.2,-284.5 460.2,-259.4 460.2,-246.8 
		460.2,-246.8 460.2,-243.5 	"/>
	<polygon class="st2" points="271.8,-272.3 243.7,-300.5 243.7,-297.9 243.7,-297.9 243.7,-284.5 243.7,-259.4 243.7,-246.8 
		243.7,-246.8 243.7,-243.5 	"/>
	<path class="st2" d="M135-435.3L135-435.3c60.6,0,109.8,49.1,109.8,109.8v107.1c0,60.6-49.1,109.8-109.8,109.8l0,0
		c-60.6,0.1-109.8-49-109.8-109.7v-107.2C25.3-386.2,74.5-435.3,135-435.3z"/>
	<g class="st3">
		<path class="st4" d="M97.1-308.1c-1.2,5.9-3.1,11.6-5.4,16.3c0.6,0.4,1.2,0.8,2,1.2c3.9,2.4,9.6,2.8,16.3,2.8
			c6.3,0,17.5-0.7,24-1.7c-0.9,2.3-2.3,6.4-2.4,8.6c-5.1,0.4-15.1,0.7-21.9,0.7c-7.8,0-12.6-0.7-16.8-3c-2.4-1.4-4.6-3.3-5.6-3.3
			c-1.3,0-3.3,4.2-4.5,7.3l-5.6-8.3c2.4-2.8,5.1-4.8,7.4-5.9c1.2-2.5,2.3-5.6,3.1-8.7h-7.8c1.2-3.3,2.7-7.7,4-12h-5.5v-7.5h15.1
			c-1.1,3.9-2.4,8.3-3.7,12.3h2.6l1.2-0.4L97.1-308.1z M84.8-322.2c-0.7-2.6-2.3-6.9-3.4-10l7.8-2.3c1.2,3.1,2.7,7.1,3.6,9.6
			L84.8-322.2z M116.1-300c-0.1,2.2,0.1,5.4,0.4,7.2c-12.9,2.1-15.5,2.9-17.2,3.7c-0.5-1.8-2-4.8-3.1-6.2c1.2-0.7,2.4-2,2.4-4.5
			V-333h5.5v-0.2h24.1v23.9H128l4.6,3.7c-2.4,1.5-4.8,2.9-7.1,4.1c2.5,2.2,4.7,4.4,6.2,6.2l-6.1,4.8c-3.2-4.4-10.3-10.8-16.1-15.1
			l5.1-3.8H107v10.4L116.1-300z M119.9-326.2H107v1.9h12.9V-326.2z M119.9-316.4v-1.9H107v1.9H119.9z M115.8-309.3
			c1.3,1,2.9,2.1,4.4,3.3c1.5-1,3-2.2,4.3-3.3H115.8z"/>
		<path class="st4" d="M188.8-305.5v26.1h-9.7v-3.1h-39.7v-22.9h9.6v14.5h10.3v-17.2h-16.6v-22h9.1v13.7h7.5v-18.5h9.6v18.5h8.1
			v-13.8h9.6v22.1H169v17.2h10.3v-14.5L188.8-305.5L188.8-305.5z"/>
	</g>
	<g class="st3">
		<path class="st4" d="M97.6-220.4c3.5-0.4,7.2-0.7,10.7-1l0.1,7.3c-10,1.1-21,2.1-28.9,3l-1-7.8c3.3-0.3,7.1-0.6,11.3-0.8v-3h-8.5
			v-6.8h8.5v-2.6h-9.3v-6.9H86c-0.8-1.6-2.1-3.4-3.3-4.8l2.7-1.5h-6.5v-6.9h7.3v-2.7l-3.2,2.2c-0.7-1.9-2.7-4.6-4.5-6.5l5-3.4
			c0.8,0.8,1.9,1.9,2.6,2.9v-5h6.5v12.4h1.7v-12.4h6.7v5.3c0.8-1,1.5-2,2-3l6.6,3.7c-2.6,2.3-5,4.6-6.9,6.1l-1.8-1.1v1.3h7.1v6.9
			h-6.6l3.4,1.2c-1,1.9-1.9,3.5-2.8,5.1h4.4v6.9h-8.9v2.6h8.5v6.8h-8.5L97.6-220.4L97.6-220.4z M89.9-245.4c1.2,1.5,2.3,3.1,2.8,4.4
			l-3.5,2h5.5c0.9-1.9,2-4.3,2.7-6.3L89.9-245.4L89.9-245.4z M132.5-242.4h-3.8v24.1c0,4-0.7,6.2-3.1,7.5c-2.3,1.3-5.6,1.7-10.1,1.7
			c-0.4-2.2-1.7-5.9-2.9-8.1c2.8,0.1,5.6,0.1,6.6,0.1c0.9,0,1.3-0.3,1.3-1.2v-24.1h-12v-7.9h12v-14.3h8.2v14.3h3.8V-242.4z
			 M115.6-239.9c2,4.1,3.9,9.3,4.2,12.9l-7.5,2.6c-0.3-3.4-1.9-8.9-3.7-13.2L115.6-239.9z"/>
		<path class="st4" d="M159.9-248.6h-23.3v-6.6h9.5c-0.8-2.1-2.1-4.7-3.3-6.8l6.6-3.1c1.6,2.5,3.3,5.8,4.2,8l-3.5,1.9h9.8V-248.6
			L159.9-248.6z M158.1-212.2h-12v2.3H139v-20.5h19.1V-212.2L158.1-212.2z M157.7-240.4h-18.5v-6.3h18.5V-240.4z M139.2-238.7h18.5
			v6.3h-18.5V-238.7z M146.1-223.7v4.8h4.7v-4.8H146.1z M179.4-239.4v7.2h9.8v22.8H181v-1.7h-11.1v2h-7.7v-23h9.5v-7.2h-12.2v-8
			h12.2v-7c-2.9,0.3-5.8,0.6-8.5,0.7c-0.3-2-1.2-5.1-2-6.9c8.5-0.7,17.8-2.1,24-4.1l5,6.9c-3.3,1-7.1,1.9-10.9,2.4v8h12.8v8
			L179.4-239.4L179.4-239.4z M181.2-224.5H170v5.8h11.1L181.2-224.5L181.2-224.5z"/>
	</g>
	<g class="st3">
		<path class="st4" d="M349.5-287.6v6.6h-53.8v-6.6H318v-2h-18v-6.3h18v-1.8h-16v-18.9h16v-1.4h-21.8v-6.6h21.9v-1.7
			c-5.4,0.3-10.8,0.4-15.8,0.4c-0.1-2-1-4.8-1.7-6.5c13.7-0.3,29.3-1.2,39.7-2.8l3.7,6.6c-5.1,0.7-11.1,1.4-17.3,1.9v2.1h22.4v6.6
			h-22.6v1.5h17v18.9h-17v1.8h19.1v6.3h-19.1v2h23V-287.6z M310.3-309.5h7.7v-1.5h-7.7V-309.5z M318-303v-1.6h-7.7v1.6H318z
			 M326.5-311v1.6h8.3v-1.6H326.5z M334.8-304.5h-8.3v1.6h8.3V-304.5z"/>
		<path class="st4" d="M372.7-314.4c-0.7,8.8-2.1,15.9-4.3,21.6c5.1,4,12,4.8,20,4.8c3.9,0,15.8,0,20.5-0.2c-1.2,1.8-2.5,5.5-3,7.7
			h-17.7c-9.4,0-17.2-1.1-23.1-5.6c-1.7,2.7-3.7,4.9-6.1,6.6c-1.2-1.6-4.4-4.5-6.1-5.5c2.7-1.8,4.9-4.1,6.7-7.1
			c-2-3.1-3.7-6.8-5.1-11.4l6.1-2c0.7,2.1,1.4,4.1,2.3,5.8c0.7-2.4,1.3-5.3,1.7-8.3h-9.4c2.3-4.6,5.1-10.7,7.5-16.7h-7.8v-7.3h19
			c-2.1,5.3-4.7,11.4-7.1,16.7l1.2-0.2L372.7-314.4z M383.6-324.3h-9.3v-6.3h9.3v-4.2h8v4.2h13v7.9h2.8v6.4h-2.8v7.8h-13v1.9h13.3v6
			h-13.3v1.9h15v6.6h-15v2.9h-8v-2.9h-12.1v-6.6h12.1v-1.9h-9.8v-6h9.8v-1.9h-9.5v-6.3h9.6v-1.5h-12.1v-6.4h12.1L383.6-324.3
			L383.6-324.3z M391.6-324.3v1.6h5.6v-1.6H391.6z M397.2-316.3h-5.6v1.5h5.6V-316.3z"/>
	</g>
	<g class="st3">
		<path class="st4" d="M342.7-209c-3.7-2.4-9.4-5.4-15.6-8.2c-6.1,4.5-14.5,6.9-25.7,8.3c-0.7-2.3-3.4-6.5-5.1-8.6
			c8.6-0.6,15.3-1.8,20.4-4c-4.8-2-9.6-3.6-13.9-5c1.4-2,2.9-4.4,4.4-6.9h-10.7v-8h15c1.3-2.8,2.5-5.7,3.4-8.4l10,1.9
			c-0.7,2.1-1.7,4.4-2.7,6.6h8.1c0.3-1.6,0.4-3.3,0.6-5l8.3,0.5v-4.6h-32.9v5.9h-8.6v-13.8H318c-0.6-1.6-1.1-3.3-1.7-4.6l9.8-2.1
			c0.9,2,2,4.6,2.8,6.9h19.4v13.8h-7c-0.2,1.1-0.4,2.2-0.6,3.3h8.4v8h-10.4c-1.2,3.7-2.8,7-4.6,9.7c5.9,2.5,11.3,5,15.1,7.3
			L342.7-209z M318.1-233.4c-0.6,1.1-1.2,2.1-1.8,3.1c2.7,0.9,5.5,2,8.3,3c1.5-1.8,2.6-3.7,3.5-6.1H318.1L318.1-233.4z"/>
		<path class="st4" d="M385.4-218h21v7.5h-50.1v-7.5h20.2v-5.6h-14.4v-7.3h14.4v-5.5H365v-5.1c-2.4,1.5-4.8,3-7.2,4
			c-1.2-2.1-3.3-5.1-5.2-6.9c6-2.2,12.4-6.1,17.6-10.6h-6.1v-7.7h21.5c4.8,7.1,13.8,14.1,24.2,17.6c-1.8,1.9-4.5,5.5-5.7,7.8
			c-2.5-1.2-4.9-2.5-7.2-4v4.9h-11.4v5.5h14.6v7.3h-14.6L385.4-218L385.4-218L385.4-218z M380.9-255c-3.5,4-8,7.8-12.6,11.1h24.9
			C388.5-247.1,384.4-251.1,380.9-255L380.9-255z"/>
	</g>
	<g class="st3">
		<path class="st4" d="M533.1-307.6c-1,5.5-2.6,10.9-4.6,15.2c0.8,0.6,1.9,1.2,3.1,2c3.9,2.4,9.6,2.8,16.3,2.8
			c6.3,0,17.4-0.7,23.9-1.7c-0.9,2.3-2.3,6.4-2.4,8.6c-5.1,0.4-15,0.7-21.8,0.7c-7.8,0-12.7-0.7-16.9-3c-2.4-1.4-4.6-3.3-5.7-3.3
			c-1.4,0-3.5,4.2-4.8,7.3l-5.6-8.2c2-2.3,4.3-4,6.3-5.2c1.2-2.6,2.1-5.8,3-9h-7.3c1.3-3.4,2.7-8,3.9-12.4h-4.6v-7.5h14.8l-0.8,3.2
			c4.2-4.1,8-10.2,10.1-16.5l7.7,2.3c-0.8,2.3-1.9,4.6-2.9,6.8h7.1c-0.6-2-1.4-4-2.2-5.8l8-2.3c1.3,2.4,2.7,5.6,3.4,8.1h8.7v7.1
			h-11.3v2h8.7v6.8h-8.7v2.3h8.5v6.8h-8.5v2.4h11.8v7.1H544v2h-8.2v-22.7c-0.7,0.8-1.5,1.6-2.2,2.3c-0.7-1.7-2.6-5.3-4-7.3
			c-0.7,2.8-1.7,5.6-2.4,8.3h1.5l1.2-0.3L533.1-307.6z M522.2-322.2c-0.7-2.8-2.3-7.2-3.3-10.4l7.5-2.3c1.2,3.3,2.7,7.2,3.5,9.9
			L522.2-322.2z M550.1-318.6h-6.4v2h6.4V-318.6z M550.1-309.8h-6.4v2.3h6.4V-309.8z M550.1-300.7h-6.4v2.4h6.4V-300.7z"/>
		<path class="st4" d="M607.1-331.6c0,11.5,1.7,32.7,22.6,44.9c-2,1.5-5.4,5.3-6.9,7.5c-11.1-6.7-17.3-17-20.6-27.1
			c-4.5,12.3-11.3,21.5-20.8,27.3c-1.6-1.9-5.6-5.4-7.8-7c11.8-5.9,18.7-17,21.6-31.9l4.2,0.7c-0.4-2-0.6-3.9-0.7-5.8h-12.8v-8.6
			L607.1-331.6L607.1-331.6z"/>
	</g>
	<g class="st3">
		<path class="st4" d="M535-220.4c3.5-0.4,7.2-0.7,10.7-1l0.1,7.3c-10,1.1-21,2.1-28.9,3l-1-7.8c3.3-0.3,7.1-0.6,11.3-0.8v-2.9h-8.5
			v-6.8h8.5v-2.6h-9.3v-6.9h5.5c-0.8-1.6-2.1-3.4-3.3-4.8l2.7-1.5h-6.5v-6.9h7.3v-2.7l-3.2,2.2c-0.7-1.9-2.7-4.6-4.5-6.5l5-3.4
			c0.8,0.8,1.9,1.9,2.6,2.9v-4.9h6.6v12.4h1.7v-12.4h6.7v5.3c0.8-1,1.5-2,2-3l6.6,3.7c-2.6,2.3-5,4.6-6.9,6.1l-1.8-1.1v1.3h7.1v6.9
			h-6.6l3.4,1.2c-1,1.9-1.9,3.5-2.8,5.1h4.4v6.9H535v2.6h8.5v6.8H535v2.4L535-220.4L535-220.4z M527.3-245.2
			c1.2,1.5,2.3,3.1,2.8,4.4l-3.5,2h5.5c0.9-1.9,2-4.3,2.7-6.3L527.3-245.2L527.3-245.2z M569.9-242.2h-3.8v24.1c0,4-0.7,6.2-3.1,7.5
			c-2.3,1.3-5.6,1.7-10.1,1.7c-0.4-2.2-1.7-5.9-2.9-8.1c2.8,0.1,5.6,0.1,6.6,0.1c0.9,0,1.3-0.3,1.3-1.2v-24.1h-12v-7.9h12v-14.3h8.2
			v14.3h3.8V-242.2z M553-239.8c2,4.1,3.9,9.3,4.2,12.9l-7.5,2.6c-0.3-3.4-1.9-8.9-3.7-13.2L553-239.8z"/>
		<path class="st4" d="M597.2-248.3h-23.3v-6.6h9.5c-0.8-2.1-2.1-4.7-3.3-6.8l6.6-3.1c1.6,2.5,3.3,5.8,4.2,8l-3.5,1.9h9.8V-248.3z
			 M595.4-212.1h-12v2.3h-7.2v-20.5h19.1L595.4-212.1L595.4-212.1z M595.1-240.3h-18.5v-6.3h18.5V-240.3z M576.6-238.5h18.5v6.3
			h-18.5V-238.5z M583.5-223.7v4.8h4.7v-4.8H583.5z M616.7-239.2v7.2h9.8v22.8h-8.2v-1.7h-11.1v2h-7.7v-23h9.4v-7.2h-12.2v-8h12.2
			v-7.1c-2.9,0.3-5.8,0.6-8.5,0.7c-0.3-2-1.2-5.1-2-6.9c8.5-0.7,17.8-2.1,24-4.1l5,6.9c-3.3,1-7.1,1.9-10.9,2.4v8h13v8L616.7-239.2
			L616.7-239.2z M618.5-224.3h-11.1v5.8h11.1V-224.3z"/>
	</g>
</g>
<g>
	<rect x="-344.8" y="72.4" class="st0" width="53.2" height="53.2"/>
	<rect x="-344.8" y="148.5" class="st2" width="53.2" height="53.2"/>
	<rect x="-344.8" y="224.6" class="st5" width="53.2" height="53.2"/>
	<rect x="-344.8" y="300.8" class="st1" width="53.2" height="53.2"/>
	<rect x="-344.8" y="376.9" class="st6" width="53.2" height="53.2"/>
</g>
<g>
	<g>
		<polygon class="st4" points="252.1,220.8 241.9,218.7 245,197.5 255.9,200.7 		"/>
	</g>
	<g>
		<path class="st1" d="M238.7,193.6l-6.6-1.9l-4.8-1.4l-21.9,53.6c0,0,2.1,0.9,4.8,1.4c3.3,0.5,7.5,0.3,10.5-3
			c10.2-11.3,21.5-19.5,23.8-20.5c1-0.4,1.8-1.4,2.1-2.6l3.9-18.7c0.4-1.6-0.4-2.3-1.8-2.9l-4.4-2
			C242.5,194.7,240.6,194.1,238.7,193.6z"/>
	</g>
	<g>
		<path class="st4" d="M232.1,191.6l-4.8-1.4l-0.1,0.2l-3.5-1.4l-2.5,6.2l3.5,1.4l-2.3,5.6l-3.5-1.4l-2.6,6.3l3.5,1.4l-2.1,5.1
			l-3.5-1.4l-2.6,6.3l3.5,1.4l-2.2,5.5l-3.5-1.4l-2.6,6.3l3.5,1.4l-2.4,5.8l-3.5-1.4l-2.5,6.2l3.5,1.4c0,0,2.1,0.9,4.8,1.4
			L232.1,191.6z"/>
	</g>
	<g>
		<path class="st4" d="M231.3,231.7c-0.2,0-0.3-0.1-0.3-0.3l-0.8-7.5c0-0.2,0.1-0.3,0.3-0.4c0.2,0,0.3,0.1,0.4,0.3l0.8,7.5
			C231.7,231.6,231.5,231.7,231.3,231.7C231.3,231.7,231.3,231.7,231.3,231.7z"/>
	</g>
	<g>
		<path class="st4" d="M235.6,228.2c-0.2,0-0.3-0.1-0.3-0.3l-0.8-7.5c0-0.2,0.1-0.3,0.3-0.4c0.2,0,0.3,0.1,0.4,0.3l0.8,7.5
			C235.9,228,235.8,228.2,235.6,228.2C235.6,228.2,235.6,228.2,235.6,228.2z"/>
	</g>
	<g>
		<path class="st4" d="M239,237.8c-0.5,0-1-0.1-1.4-0.4c-2.6-1.7-2.6-8.3-2.6-8.6c0-0.2,0.1-0.3,0.3-0.3c0.1,0,0.3,0.1,0.3,0.3
			c0,0.1,0,6.5,2.3,8.1c0.6,0.4,1.3,0.4,2.2,0.1c0.8-0.3,1.2-0.8,1.3-1.5c0.4-2.7-5-7.3-5.1-7.4c0,0-0.1-0.1-0.1-0.1c0,0,0,0,0-0.1
			c0-0.1,0-0.1,0-0.2c0.1-0.1,0.1-0.2,0.2-0.2c0.2-0.1,5.4-1.6,7.7-0.4c0.5,0.3,0.9,0.7,1,1.3c0.2,0.6-0.1,1-0.3,1.2
			c-1.1,0.9-4.6-0.1-6.8-0.9c1.7,1.6,4.4,4.7,4.1,6.9c-0.1,0.9-0.7,1.5-1.7,2C239.9,237.7,239.5,237.8,239,237.8z M237.7,227.8
			c2.6,0.9,6,1.9,6.8,1.2c0,0,0.2-0.2,0.1-0.5c-0.1-0.4-0.3-0.7-0.7-0.9C242.4,226.8,239.2,227.4,237.7,227.8z"/>
	</g>
	<g>
		<path class="st0" d="M254.6,196.1l-6.3,30.5c7.2,0.9,37.4,11.9,60.7,9.2c17.7-2,29.2-14,29.2-14l-13.9-34.6
			c0,0-14.1,10.6-31.7,11.1C291.9,198.4,255.3,196.1,254.6,196.1z"/>
	</g>
	<g>
		<path class="st7" d="M414.9,150.2L425,166l15.1-4.7c0,0-4.5-16.5-7.4-19.3C429.8,139.1,414.9,150.2,414.9,150.2z"/>
	</g>
	<g>
		<g>
			<path class="st1" d="M421.8,123.3c1.3-0.7,3-0.2,3.8,1.2c3.2,5.4,9.8,19.4,8.8,20c-1.2,0.7-13.1,3.8-13.1,3.8s2.5,6.3-3.4,8
				c-4.6,1.3-12-0.7-15.2-1.7c-1-0.3-2.1-0.3-3.1,0c-4.3,1.3-16.2,4.3-19.6-1.1c-4.2-6.6-1-7.4,0.2-8.1
				C381.3,144.7,412.9,128,421.8,123.3z"/>
		</g>
	</g>
	<g>
		<rect x="490.5" y="269.8" class="st1" width="90.7" height="154.1"/>
		<rect x="475.1" y="269.8" class="st2" width="90.7" height="154.1"/>
	</g>
	<g>
		<rect x="172.2" y="327.4" class="st7" width="19.2" height="16.2"/>
	</g>
	<g>
		
			<rect x="101.8" y="278.3" transform="matrix(0.9993 -3.657779e-02 3.657779e-02 0.9993 -10.4738 4.2149)" class="st7" width="16.2" height="20.1"/>
	</g>
	<g>
		<g>
			<path class="st1" d="M92.1,274.6c-1.1,0.5-0.9,8-1.1,8.6c-0.2,0.6,3.9,2.8,3.1,4c-0.7,1.1-2.9,2.4-4,4.1
				c-1,1.6-3.5,28.8-3.3,34.1c0,0.4,0.4,0.8,0.9,0.7c1.2-0.1,3.5-0.3,5.8-1c2.1-0.6,4.3-1.6,5.6-3.1c3.6-3.9,5.7-12.6,8.2-15.6
				c2.5-3,8-6.1,7.2-8.1c-0.8-2-4.9-6.1-3.8-11.2c1.1-5.2,2.7-7.4,1.5-9c-0.7-1-8.1-2.3-13.8-3.1C95.2,274.6,92.5,274.4,92.1,274.6z
				"/>
		</g>
	</g>
	<g>
		<g>
			<path class="st1" d="M169.8,358.8c0.6,1.1,8,0.1,8.6,0.3c0.6,0.2,2.5-4.1,3.7-3.5c1.2,0.6,2.7,2.7,4.5,3.6
				c1.7,0.9,29,0.8,34.3,0.1c0.4-0.1,0.7-0.5,0.7-1c-0.2-1.2-0.6-3.4-1.5-5.7c-0.8-2-1.9-4.1-3.6-5.3c-4.2-3.2-13.1-4.6-16.3-6.7
				c-3.2-2.2-6.8-7.4-8.7-6.4c-1.9,1-5.6,5.5-10.8,4.8c-5.2-0.7-7.7-2-9.1-0.7c-0.9,0.8-1.6,8.3-1.8,14
				C169.5,355.7,169.5,358.4,169.8,358.8z"/>
		</g>
	</g>
	<g>
		<path class="st7" d="M249.4,177.2c0,0,0.8-6.6,1.6-8.1s4.3-2.9,4.3-2.9s5.8-3.5,7.4-2.9c1.6,0.6,1.8,3.7,1.8,3.7s5.8,5.5,5.8,10.1
			c0,4.6-14.4,9.3-14.4,9.3l-6.9-3.8L249.4,177.2z"/>
	</g>
	<g>
		<path class="st7" d="M147.8,221.4c0,0,2.3,6.2,2.3,7.9c0,1.7-2.5,4.6-2.5,4.6s-3.5,5.8-5.2,6c-1.7,0.2-3.3-2.4-3.3-2.4
			s-7.7-2.2-9.8-6.2c-2.2-4,8.4-14.9,8.4-14.9l7.9,0.2L147.8,221.4z"/>
	</g>
	<g>
		<path d="M261.2,170.6c-0.1,0-0.2,0-0.3-0.1c-0.1-0.1-0.1-0.3,0.1-0.5l3-2.4c0.1-0.1,0.3-0.1,0.5,0.1c0.1,0.1,0.1,0.3-0.1,0.5
			l-3,2.4C261.4,170.6,261.3,170.6,261.2,170.6z"/>
	</g>
	<g>
		<path d="M194.2,168.5c0,0,15.7-28.3,4.9-32.9c-10.8-4.5-13.9,3.3-13.9,3.3s-7.3,1.1-9.2,7.3c-1.9,6.2,1,21.1,1,21.1L194.2,168.5z"
			/>
	</g>
	<g>
		<path class="st2" d="M257.3,189.6c0,0-8.8,9.8-27.2,15.1c-18.4,5.3-28.3-9.2-28.3-9.2l3.4-27.5c0,0,14.8,8.1,21.2,8.9
			c6.4,0.8,22.1-3.9,22.1-3.9L257.3,189.6z"/>
	</g>
	<g>
		<path class="st0" d="M206.3,220.3c0,0-16.4,49.2-34.8,61c-18.5,11.8-54.1,23.1-54.1,23.1L110,269c0,0,32.5-13.1,38.8-18.5
			c2-1.7,27.8-43.6,27.8-43.6L206.3,220.3z"/>
	</g>
	<g>
		<path class="st0" d="M209.2,220.5c0,0,6.6,31.8,7.2,54.1c0.6,21.7-14.6,59.6-14.6,59.6l-37.1-2.4c0,0,13.4-45.2,13.7-50.8
			c0.4-5.6-1.1-21.8-1.1-21.8l10-41L209.2,220.5z"/>
	</g>
	<g>
		<g>
			<path class="st2" d="M209.8,223.8c0,0,1.4-52.1-4.6-55.7c-10.7-6.6-31-3.8-35.8,2.8c-4.8,6.6-3.1,50-3.1,50
				S183.6,225.4,209.8,223.8z"/>
		</g>
	</g>
	<g>
		<g>
			<g>
				<g>
					<g>
						<path class="st7" d="M187,157l-1.1,8.5c0,0,1.2,2.6,6.1,3.7c3.6,0.8,5.1,0.1,5.1,0.1l0.1-4.4l0.1-4.2l-8.7-3.2L187,157z"/>
					</g>
				</g>
			</g>
		</g>
	</g>
	<g>
		<g>
			<g>
				<g>
					<g>
						<path d="M188.4,157.5c0,0.2,0,0.5,0.1,0.8c1.3,4.5,6.4,6.1,8.5,6.6l0.1-4.2L188.4,157.5z"/>
					</g>
				</g>
			</g>
		</g>
	</g>
	<g>
		<g>
			<g>
				<g>
					<g>
						<path class="st7" d="M201.5,141.6c0,0,3,11.2,0.5,16.9c-2.5,5.7-7.8,3.9-10.8,2.3c-3-1.6-4.2-3.8-4.2-3.8s-3.2,0.6-4.8-2.5
							c-1.6-3.1,0.1-6.1,2-6.6c1.8-0.5,3.7,1.1,3.7,1.1l-1.1-3.3C186.7,145.6,195.8,131.1,201.5,141.6z"/>
					</g>
				</g>
			</g>
		</g>
	</g>
	<g>
		<path d="M200.7,149.4c-0.1,0-0.3-0.1-0.3-0.2c0,0,0-0.1,0-0.1c0-0.1,0.1-0.3,0.2-0.3l0.8-0.2c0.2,0,0.4,0.1,0.4,0.2
			c0,0,0,0.1,0,0.1c0,0.1-0.1,0.3-0.2,0.3L200.7,149.4C200.8,149.4,200.7,149.4,200.7,149.4z"/>
	</g>
	<g>
		<path d="M187.8,148.9c0,0,5.1-0.2,7.6-3c2.4-2.6,3.5-5.9,3.5-5.9s1,0.7,2.3,2.7s1.2,3.4,1.2,3.4s2.7-6.1-3.3-9.2
			c-6-3.1-11.9,0.4-14,4.2C183.1,144.7,187.8,148.9,187.8,148.9z"/>
	</g>
	<g>
		<path class="st4" d="M184.2,145.1c-0.2,0-0.3-0.2-0.3-0.3c0.1-3.1,1-5.8,1-6c0.1-0.2,0.2-0.3,0.4-0.2c0.2,0.1,0.3,0.2,0.2,0.4
			c0,0-0.9,2.8-1,5.8C184.5,145,184.4,145.1,184.2,145.1z"/>
	</g>
	<g>
		<path d="M186.5,153.4c-0.1,0-0.2,0-0.3-0.1l-2.6-3.4c-0.1-0.1-0.1-0.4,0.1-0.5c0.1-0.1,0.4-0.1,0.5,0.1l2.6,3.4
			c0.1,0.1,0.1,0.4-0.1,0.5C186.7,153.4,186.6,153.4,186.5,153.4z"/>
	</g>
	<g>
		<path d="M183.4,152.7c-0.2,0-0.3-0.1-0.3-0.3c0-0.2,0.1-0.3,0.3-0.4l2.3-0.3c0.2,0,0.3,0.1,0.4,0.3c0,0.2-0.1,0.3-0.3,0.4
			L183.4,152.7C183.4,152.7,183.4,152.7,183.4,152.7z"/>
	</g>
	<g>
		<path d="M198.2,155c-0.1,0-0.1,0-0.2-0.1c-0.1-0.1-0.2-0.3-0.1-0.5c1-1.5,0.2-3.8,0.2-3.8c-0.1-0.2,0-0.4,0.2-0.4
			c0.2-0.1,0.4,0,0.4,0.2c0,0.1,0.9,2.7-0.3,4.4C198.4,154.9,198.3,155,198.2,155z"/>
	</g>
	<g>
		<path d="M195.6,157.9c-0.3,0-0.6,0-0.9-0.1c-1.8-0.6-1.9-2.5-1.9-2.6c0-0.1,0-0.2,0.1-0.3c0.1-0.1,0.2-0.1,0.3,0l3.5,1.7
			c0.1,0.1,0.2,0.2,0.2,0.4c0,0-0.1,0.5-0.6,0.7C196.2,157.8,195.9,157.9,195.6,157.9z M193.6,155.7c0.2,0.5,0.5,1.1,1.3,1.4
			c0.5,0.2,0.9,0.2,1.1,0c0.1,0,0.1-0.1,0.1-0.1L193.6,155.7z"/>
	</g>
	<g>
		<path d="M202.6,147.3c0,0-0.1,0-0.1,0l-1.7-0.6c-0.2-0.1-0.3-0.2-0.2-0.4c0.1-0.2,0.3-0.3,0.4-0.2l1.7,0.6
			c0.2,0.1,0.3,0.2,0.2,0.4C202.9,147.2,202.7,147.3,202.6,147.3z"/>
	</g>
	<g>
		<path d="M194.2,146.6c-0.2,0-0.3-0.1-0.3-0.3c0-0.2,0.1-0.3,0.3-0.3l2.3-0.1c0.2,0,0.3,0.1,0.3,0.3c0,0.2-0.1,0.3-0.3,0.3
			L194.2,146.6C194.2,146.6,194.2,146.6,194.2,146.6z"/>
	</g>
	<g>
		<path d="M200.6,151.4c-0.2,0-0.3-0.2-0.3-0.3l0.1-1.9c0-0.2,0.2-0.3,0.3-0.3c0.2,0,0.3,0.2,0.3,0.3l-0.1,1.9
			C200.9,151.3,200.8,151.4,200.6,151.4z"/>
	</g>
	<g>
		<path d="M194.7,149c-0.1,0-0.3-0.1-0.3-0.2c0,0,0-0.1,0-0.1c0-0.1,0.1-0.3,0.2-0.3l0.8-0.2c0.2,0,0.4,0.1,0.4,0.2c0,0,0,0.1,0,0.1
			c0,0.1-0.1,0.3-0.2,0.3L194.7,149C194.7,149,194.7,149,194.7,149z"/>
	</g>
	<g>
		<path d="M194.6,151.1c-0.2,0-0.3-0.2-0.3-0.3l0.1-1.9c0-0.2,0.2-0.3,0.3-0.3c0.2,0,0.3,0.2,0.3,0.3l-0.1,1.9
			C194.9,150.9,194.7,151.1,194.6,151.1z"/>
	</g>
	<g>
		<path class="st2" d="M182.2,164.9c0,0-21.5,0.2-37.4,20.1c-9.8,12.2-13.9,33.2-13.9,33.2l22.4,5.5c0,0,11.5-22.8,14.6-23.6
			C170.9,199.4,182.2,164.9,182.2,164.9z"/>
	</g>
	<g>
		<path d="M139.2,237.9c-0.2,0-0.3-0.2-0.3-0.3l0.2-2.8c0-0.2,0.2-0.3,0.3-0.3c0.2,0,0.3,0.2,0.3,0.3l-0.2,2.8
			C139.5,237.7,139.3,237.9,139.2,237.9z"/>
	</g>
	<g>
		<path d="M148.7,232.9c-0.1,0-0.3-0.1-0.3-0.2l-0.8-2.7c0-0.2,0.1-0.4,0.2-0.4c0.2-0.1,0.4,0.1,0.4,0.2l0.8,2.7
			C149.1,232.7,149,232.8,148.7,232.9C148.8,232.9,148.8,232.9,148.7,232.9z"/>
	</g>
	<g>
		<path class="st8" d="M178.4,274.9c-0.1,0-0.2,0-0.2-0.1c-0.1-0.1-0.1-0.3,0-0.5c10.8-10.6,18.3-38.8,18.4-39.1
			c0-0.1,0.1-0.2,0.2-0.2l8.7-2.2c0.2,0,0.4,0.1,0.4,0.2c0,0.2-0.1,0.4-0.2,0.4l-8.5,2.2c-0.7,2.5-8.1,28.9-18.5,39.2
			C178.6,274.8,178.5,274.9,178.4,274.9z"/>
	</g>
	<g>
		<path class="st8" d="M166.9,231.2c-0.3,0-0.6,0-0.8,0c-0.2,0-0.3-0.2-0.3-0.4c0-0.2,0.2-0.3,0.4-0.3c5.1,0.5,8.5-4,8.6-4.1
			c0.1-0.1,0.3-0.2,0.5-0.1c0.1,0.1,0.2,0.3,0.1,0.5C175.1,227,171.9,231.2,166.9,231.2z"/>
	</g>
	<g>
		<path class="st4" d="M224.6,184.1c-0.8,0-1.1-0.4-1.3-0.7c-0.8-1.7,2.4-6.2,2.8-6.7c0.1-0.1,0.2-0.2,0.4-0.1
			c0.1,0,0.2,0.2,0.2,0.3c0,0.6,0.1,5.4-1.3,6.8C225.2,183.9,224.9,184.1,224.6,184.1z M226.1,178c-1.2,1.8-2.6,4.3-2.1,5.2
			c0,0.1,0.1,0.3,0.7,0.3c0.1,0,0.2,0,0.4-0.2C225.8,182.4,226,179.7,226.1,178z"/>
	</g>
	<g>
		<path class="st8" d="M150.2,259.6c-0.6,0-1.1-0.2-1.5-0.7c-1.7-2.1-0.3-8.2-0.3-8.5c0-0.1,0.1-0.2,0.3-0.3c0.1,0,0.3,0,0.3,0.2
			c0.4,0.7,3.6,6.7,2.4,8.6C151.3,259.2,150.9,259.6,150.2,259.6z M148.9,251.4c-0.4,2.1-0.7,5.7,0.3,7c0.3,0.3,0.6,0.5,1,0.5
			c0.5,0,0.6-0.2,0.7-0.3C151.6,257.4,149.9,253.5,148.9,251.4z"/>
	</g>
	<g>
		<path class="st4" d="M195.3,170c-2.9,0-7.6-0.6-10.1-4.1c-0.1-0.1-0.1-0.4,0.1-0.5c0.1-0.1,0.4-0.1,0.5,0.1
			c3.6,4.9,11.9,3.7,12,3.7c0.2,0,0.3,0.1,0.4,0.3c0,0.2-0.1,0.3-0.3,0.4C197.7,169.9,196.7,170,195.3,170z"/>
	</g>
	<g>
		<path class="st4" d="M210,202.8c-0.2,0-0.3-0.2-0.3-0.3c0,0,0.1-2.6,1-9.8c0.9-7.1-2.2-13.5-2.2-13.6c-0.1-0.2,0-0.4,0.2-0.4
			c0.2-0.1,0.4,0,0.4,0.2c0,0.1,3.2,6.7,2.3,14c-0.9,7.1-1,9.7-1,9.7C210.3,202.7,210.1,202.8,210,202.8z"/>
	</g>
	<g>
		<path class="st4" d="M165.7,201.8c0,0-0.1,0-0.1,0c-0.1,0-0.2-0.2-0.2-0.3c0-0.2,0-5.6,1.9-7.3c0.4-0.4,0.9-0.6,1.5-0.5
			c0.7,0.1,0.9,0.4,1,0.7c0.7,1.8-3.1,6.4-3.9,7.4C165.9,201.8,165.8,201.8,165.7,201.8z M168.6,194.3c-0.3,0-0.6,0.1-0.9,0.4
			c-1.2,1.1-1.5,4.2-1.6,5.8c1.6-2.1,3.5-5,3.1-5.9c0-0.1-0.1-0.2-0.5-0.3C168.6,194.3,168.6,194.3,168.6,194.3z"/>
	</g>
	<g>
		<path class="st9" d="M555,90.9c-0.9,0-1.8,0-2.4,0l-4.4-55.3c-0.1-0.6,0.4-1.2,1.1-1.3h0.1c0.6,0,1.1,0.5,1.2,1.1L555,90.9z"/>
	</g>
	<g>
		<path class="st9" d="M558.1,129.7c0,0.7-0.4,1.2-1.1,1.3c-0.6,0-1.2-0.4-1.3-1.1l-1.6-19.5c0.8-0.1,1.6-0.1,2.3-0.3L558.1,129.7z"
			/>
	</g>
	<g>
		<path class="st7" d="M332.3,244.7c0,0,10.2,30.1,11.6,43.4s20.1-3.6,20.1-3.6s-1.6-53.1-13.8-57.5
			C338.5,222.9,332.3,244.7,332.3,244.7z"/>
	</g>
	<g>
		<polygon class="st4" points="364,284.6 365.6,294.8 344.7,299.5 343.9,288.2 		"/>
	</g>
	<g>
		<path class="st1" d="M343.2,307.8l0.6,6.9l0.4,5L402,321c0,0,0.1-2.3-0.5-5c-0.7-3.2-2.4-7.1-6.5-8.7
			c-14.2-5.5-25.9-13.1-27.6-14.9c-0.8-0.8-2-1.2-3.1-1.1l-18,2.8c-1.6,0.2-2.9,1.4-2.9,2.9l-0.3,4.8
			C342.9,303.8,342.9,305.8,343.2,307.8z"/>
	</g>
	<g>
		<path class="st4" d="M343.7,314.7l0.4,5l0.2,0l-0.1,3.8l6.7,0.2l0.1-3.8l6,0.1l-0.1,3.8l6.8,0.2l0.1-3.8l5.5,0.1l-0.1,3.8l6.8,0.2
			l0.1-3.8l5.9,0.1l-0.1,3.8l6.8,0.2l0.1-3.8l6.3,0.1l-0.1,3.8l6.7,0.2l0.1-3.8c0,0,0.1-2.3-0.5-5L343.7,314.7z"/>
	</g>
	<g>
		<path class="st4" d="M374.4,305c-0.1,0-0.2-0.1-0.3-0.2c-0.1-0.2,0-0.4,0.1-0.4l6.7-3.4c0.2-0.1,0.4,0,0.4,0.1
			c0.1,0.2,0,0.4-0.1,0.4l-6.7,3.4C374.5,305,374.5,305,374.4,305z"/>
	</g>
	<g>
		<path class="st4" d="M369.6,302.2c-0.1,0-0.2-0.1-0.3-0.2c-0.1-0.2,0-0.4,0.1-0.4l6.7-3.4c0.2-0.1,0.4,0,0.4,0.1
			c0.1,0.2,0,0.4-0.1,0.4l-6.7,3.4C369.7,302.2,369.7,302.2,369.6,302.2z"/>
	</g>
	<g>
		<path class="st4" d="M377.2,298.7c-0.1,0-0.3-0.1-0.3-0.2c-0.1-0.2,0-0.4,0.2-0.4c0.1,0,6.1-2.3,6.7-5c0.2-0.7-0.1-1.4-0.7-2
			c-0.6-0.6-1.2-0.9-1.8-0.7c-2.7,0.6-5.1,7.3-5.1,7.4c0,0,0,0.1-0.1,0.1c-0.1,0.1-0.2,0.1-0.2,0.1c-0.1,0-0.2,0-0.3-0.1
			c-0.1-0.2-3.4-4.5-3.1-7c0.1-0.6,0.4-1.1,0.8-1.4c0.5-0.4,1-0.3,1.2-0.2c1.3,0.7,1.6,4.4,1.6,6.7c0.9-2.2,2.8-5.8,5-6.3
			c0.9-0.2,1.7,0.1,2.4,0.9c0.8,0.8,1.1,1.7,0.9,2.6c-0.7,3.1-6.9,5.4-7.1,5.5C377.3,298.7,377.3,298.7,377.2,298.7z M374.1,289.8
			c-0.1,0-0.2,0-0.4,0.2c-0.3,0.2-0.5,0.5-0.6,1c-0.2,1.7,1.4,4.4,2.4,5.7c0-2.7-0.4-6.3-1.3-6.8
			C374.2,289.8,374.2,289.8,374.1,289.8z"/>
	</g>
	<g>
		<path class="st0" d="M369.2,288l-28.3,4.8c0,0-20.8-53.5-25.3-67.8c-6.5-20.6-13.1-36.7-6.6-51.6c4.9-11.4,39,10,39,10
			S366.6,249.3,369.2,288z"/>
	</g>
	<g>
		<path class="st7" d="M305.5,128.8c0,0-10.3,2.4-19.7,9.1c-9.7,6.9-16,24.8-16,24.8l10.4,6.9c0,0,9.4-11.2,17.2-14.2
			c7.8-3,14.2-4.4,14.2-4.4L305.5,128.8z"/>
	</g>
	<g>
		<path class="st7" d="M355.6,164.4c0,0,10.3,6.8,22.9,2c12.2-4.6,23.7-21.2,23.7-21.2l-6.1-10.1c0,0-15,8.5-23.2,9.9
			c-8.2,1.4-14.8,1.5-14.8,1.5L355.6,164.4z"/>
	</g>
	<g>
		<path class="st7" d="M392.4,139.2c0,0,1.4-6.8,2.4-8.4c1-1.5,4.8-2.7,4.8-2.7s6.4-3.2,8-2.4c1.6,0.8,1.6,4,1.6,4s5.6,6.2,5.2,11
			c-0.4,4.8-15.8,8.5-15.8,8.5l-6.9-4.6L392.4,139.2z"/>
	</g>
	<g>
		<path class="st2" d="M370.9,168l3.2-23.5c0,0-9-9.9-31.3-16c-20.1-5.5-40.2,0.9-40.2,0.9l0.8,23.6l7.1,1.8l-5.6,25.1l47.1,11
			l4.3-24.7L370.9,168z"/>
	</g>
	<g>
		<path class="st10" d="M317.7,231.6c-0.1,0-0.3-0.1-0.3-0.2c-0.1-0.3-8.9-25.6-11-35c0-0.2,0.1-0.4,0.3-0.4c0.2,0,0.4,0.1,0.4,0.3
			c2,9.4,10.9,34.7,10.9,35c0.1,0.2,0,0.4-0.2,0.4C317.7,231.6,317.7,231.6,317.7,231.6z"/>
	</g>
	<g>
		<path class="st10" d="M311.4,191.6c-0.7,0-1.5-0.1-2.3-0.3c-0.2,0-0.3-0.2-0.2-0.4c0-0.2,0.2-0.3,0.4-0.2c7.1,1.8,11-5.7,11.1-5.8
			c0.1-0.2,0.3-0.2,0.4-0.1c0.2,0.1,0.2,0.3,0.1,0.4C320.9,185.2,317.5,191.6,311.4,191.6z"/>
	</g>
	<g>
		<g>
			<g>
				<g>
					<path class="st7" d="M337.8,120.9l-1.4,8.7c0,0,1.2,2.8,6.2,4c3.8,0.9,5.2,0.3,5.2,0.3l0.2-4.5l0.2-4.4l-8.9-3.5L337.8,120.9z"
						/>
				</g>
			</g>
		</g>
	</g>
	<g>
		<g>
			<g>
				<g>
					<path d="M339.3,121.5c0,0.2,0,0.5,0.1,0.9c1.3,4.7,6.4,6.5,8.6,7l0.2-4.4L339.3,121.5z"/>
				</g>
			</g>
		</g>
	</g>
	<g>
		<g>
			<g>
				<g>
					<path class="st7" d="M353.3,105.4c0,0,2.8,11.7,0,17.5c-2.8,5.8-8.2,3.9-11.3,2.1c-3.1-1.8-4.3-4.1-4.3-4.1s-3.3,0.5-4.9-2.7
						s0.3-6.3,2.2-6.8c1.9-0.4,3.8,1.2,3.8,1.2l-1.1-3.4C337.9,109.1,347.6,94.3,353.3,105.4z"/>
				</g>
			</g>
		</g>
	</g>
	<g>
		<path d="M350.5,119c-0.1,0-0.1,0-0.2,0c-0.2-0.1-0.2-0.3-0.1-0.4c1-1.9-0.1-4.3-0.1-4.3c-0.1-0.2,0-0.4,0.2-0.4
			c0.2-0.1,0.4,0,0.4,0.2c0.1,0.1,1.2,2.8,0.1,4.9C350.7,119,350.6,119,350.5,119z"/>
	</g>
	<g>
		<path d="M337.6,117.5c-0.1,0-0.2-0.1-0.3-0.2l-2.4-3.7c-0.1-0.2-0.1-0.4,0.1-0.5c0.2-0.1,0.4-0.1,0.5,0.1l2.4,3.7
			c0.1,0.2,0.1,0.4-0.1,0.5C337.7,117.5,337.7,117.5,337.6,117.5z"/>
	</g>
	<g>
		<path d="M336.7,116.2c0,0-2.1-0.1-2.1-0.1c-0.2,0-0.3-0.2-0.3-0.3c0-0.2,0.2-0.3,0.3-0.3l2.1,0.1c0.2,0,0.3,0.2,0.3,0.3
			C337.1,116,336.9,116.2,336.7,116.2z"/>
	</g>
	<g>
		<path d="M345.1,109.9c-0.1,0-0.1,0-0.2-0.1c-0.1-0.1-0.2-0.3-0.1-0.5c1-1.3,2.7-0.6,2.8-0.6c0.2,0.1,0.2,0.3,0.2,0.4
			c-0.1,0.2-0.3,0.2-0.4,0.2c-0.1,0-1.3-0.5-2,0.3C345.3,109.9,345.2,109.9,345.1,109.9z"/>
	</g>
	<g>
		<path d="M353.7,110.2c-0.1,0-0.2,0-0.3-0.1c0,0-0.6-0.7-1.2-0.8c-0.3,0-0.5,0.1-0.8,0.3c-0.1,0.1-0.3,0.1-0.5,0
			c-0.1-0.1-0.1-0.3,0-0.5c0.4-0.4,0.8-0.6,1.3-0.5c0.9,0.1,1.7,1,1.7,1c0.1,0.1,0.1,0.3-0.1,0.5
			C353.8,110.2,353.8,110.2,353.7,110.2z"/>
	</g>
	<g>
		<path d="M347.9,121.3c0,0-0.1,0-0.1,0c-0.1,0-1.8-0.6-2.4-2.1c-0.1-0.2,0-0.4,0.2-0.4c0.2-0.1,0.4,0,0.4,0.2c0.5,1.2,2,1.7,2,1.7
			c0.2,0.1,0.3,0.2,0.2,0.4C348.1,121.2,348,121.3,347.9,121.3z"/>
	</g>
	<g>
		<path d="M352.7,114.3c-0.2,0-0.3-0.1-0.3-0.3l-0.1-2c0-0.2,0.1-0.3,0.3-0.3c0.2,0,0.3,0.1,0.3,0.3l0.1,2
			C353,114.1,352.9,114.3,352.7,114.3C352.7,114.3,352.7,114.3,352.7,114.3z"/>
	</g>
	<g>
		<path d="M347.3,113.9c-0.2,0-0.3-0.1-0.3-0.3l-0.1-2c0-0.2,0.1-0.3,0.3-0.3c0.2,0,0.3,0.1,0.3,0.3l0.1,2
			C347.6,113.7,347.5,113.9,347.3,113.9C347.3,113.9,347.3,113.9,347.3,113.9z"/>
	</g>
	<g>
		<path class="st7" d="M412.8,143.4c0,0-6,5.4-8.4,2.8c-2.4-2.6-4.9-7.9-4.9-7.9l7.8-6.4L412.8,143.4z"/>
	</g>
	<g>
		<path d="M339,112.8c0,0,2.4-0.1,4.2-2.4c1.8-2.4,2.6-6,2.6-6s1.2,2,4.4,2.4c3.1,0.3,3.1-1,3.1-1l0.7,3.1c0,0,3.9-9.9-0.6-11.4
			c-4.5-1.5-6.6,0.7-6.6,0.7s-7.7-0.7-11.8,3.9c-4.1,4.6-1.4,10.5-1.4,10.5S336,110.6,339,112.8z"/>
	</g>
	<g>
		<path d="M405.3,132.7c-0.1,0-0.2-0.1-0.3-0.1c-0.1-0.2-0.1-0.4,0.1-0.5l3.8-2.5c0.1-0.1,0.4-0.1,0.5,0.1c0.1,0.2,0.1,0.4-0.1,0.5
			l-3.8,2.5C405.5,132.7,405.4,132.7,405.3,132.7z"/>
	</g>
	<g>
		<path d="M406,143.5c0,0-0.1,0-0.1,0c-0.1,0-2.9-1.2-3-3c0-1.7,6.9-5.5,8.3-6.2c0.2-0.1,0.4,0,0.4,0.1c0.1,0.2,0,0.4-0.1,0.4
			c-3.9,2.1-8,4.8-8,5.6c0,1.1,1.9,2.1,2.6,2.4c0.2,0.1,0.2,0.3,0.2,0.4C406.3,143.5,406.2,143.5,406,143.5z"/>
	</g>
	<g>
		<path d="M407.1,146.9c-0.1,0-0.1,0-0.2-0.1c-0.1,0-1.4-1.1-1.6-2.4c-0.1-0.5,0.1-1,0.4-1.4c1.3-1.6,7.4-3.3,7.7-3.3
			c0.2,0,0.4,0.1,0.4,0.2c0,0.2-0.1,0.4-0.2,0.4c-1.7,0.5-6.4,1.9-7.4,3.1c-0.2,0.3-0.3,0.6-0.3,0.9c0.1,1,1.3,1.9,1.3,1.9
			c0.1,0.1,0.2,0.3,0.1,0.5C407.3,146.8,407.2,146.9,407.1,146.9z"/>
	</g>
	<g>
		<path class="st7" d="M282.2,165c0,0-2.7,9-3.5,10.6c-0.8,1.6-4.4,3.2-4.4,3.2s-7.6,3.4-9.3,2.8c-1.7-0.6-0.4-3.1-0.4-3.1
			s-6.4-5.4-6.7-10.1c-0.3-4.7,15.4-11.4,15.4-11.4l6.5,4.7L282.2,165z"/>
	</g>
	<g>
		<path d="M275.7,178c-0.1,0-0.2,0-0.2-0.1c-0.1-0.1-0.2-0.3,0-0.5l2.7-3.2c0.1-0.1,0.3-0.2,0.5,0c0.1,0.1,0.2,0.3,0,0.5l-2.7,3.2
			C275.9,177.9,275.8,178,275.7,178z"/>
	</g>
	<g>
		<path d="M403.5,140.1c-0.4,0-1.5-0.1-2.2-1c-0.6-0.8-0.6-1.9,0-3.4c0.1-0.2,0.3-0.3,0.4-0.2c0.2,0.1,0.3,0.3,0.2,0.4
			c-0.5,1.3-0.5,2.2-0.1,2.8c0.5,0.8,1.7,0.7,1.7,0.7c0.2,0,0.3,0.1,0.3,0.3c0,0.2-0.1,0.3-0.3,0.3
			C403.6,140.1,403.6,140.1,403.5,140.1z"/>
	</g>
	<g>
		<path class="st6" d="M345.4,134.8c0,0,0.4,2.6,0,3.7c-0.2,0.7-2.1,2-2.1,2s1,6.4,0.6,9.7c-0.4,3.3-3.7,14.9-4.7,14.7
			c-0.4-0.1-1.6-14.5-1.4-15.8c0.3-2,3.5-9.3,3.5-9.3s-1.2-1.6-1.4-2.2c-0.2-0.6,1-4.1,1-4.1S343.8,132.7,345.4,134.8z"/>
	</g>
	<g>
		<path class="st4" d="M349.3,132.7c0,0-2.5,1-6.6-0.3c-4.1-1.3-6.6-4.2-6.6-4.2s-2,8.1-1.2,8.3c0.9,0.2,8.6-2.2,8.6-2.2l5.5,4.2
			L349.3,132.7z"/>
	</g>
	<g>
		<path class="st1" d="M391,135.9l8.2,16.1c0,0-6.8,9.7-17.1,14.4c-10.3,4.7-24.8,1.1-24.8,1.1l-6,28.5l-1.9-5.5
			c0,0-0.5-28.4-1.1-41c-0.7-13.8-0.2-20.2-0.2-20.2s9.3,3,13.4,5.5C365.5,137.4,375.9,142.1,391,135.9z"/>
	</g>
	<g>
		<path class="st1" d="M336.8,126.9c0,0-9.4,65.3-10.1,65.7c-0.7,0.4-12.3-1.8-17.1-3.7c-4.8-1.9-7.2-4-7.5-4.2
			c-0.2-0.2,7.2-29.1,7.2-29.1s-4.6-3.6-12.3,0.6c-7.7,4.2-14.5,13.8-14.5,13.8l-12.5-14.2c0,0,9.4-24.9,35.5-29.6
			C324.9,122.8,336.8,126.9,336.8,126.9z"/>
	</g>
	<g>
		<path class="st4" d="M300.9,155c-0.1,0-0.2-0.1-0.3-0.2c-0.4-0.7-2.2-4.3-1.5-5.5c0.1-0.2,0.3-0.4,0.8-0.5c0.4,0,0.7,0.1,0.9,0.4
			c1.1,1.2,0.4,5.1,0.4,5.5C301.2,154.9,301.1,155,300.9,155C300.9,155,300.9,155,300.9,155z M300,149.5c-0.2,0-0.3,0.1-0.3,0.1
			c-0.3,0.6,0.3,2.4,1,3.9c0.1-1.4,0.2-3.3-0.3-3.9C300.3,149.6,300.2,149.5,300,149.5z"/>
	</g>
	<g>
		<path class="st4" d="M370.3,145.7c-0.1,0-0.1,0-0.2,0c-0.4-0.1-0.8-0.3-1-0.7c-0.9-1.7,1.2-6.3,1.4-6.9c0.1-0.1,0.2-0.2,0.3-0.2
			c0.1,0,0.3,0.1,0.3,0.3c0.1,0.6,1.2,5.7,0,7.1C370.9,145.6,370.6,145.7,370.3,145.7z M370.7,139.4c-0.7,1.7-1.6,4.3-1,5.3
			c0.1,0.2,0.2,0.3,0.5,0.3c0.2,0,0.4,0,0.5-0.2C371.3,144.2,371.1,141.5,370.7,139.4z"/>
	</g>
	<g>
		<polygon class="st7" points="486.8,230 495.4,248 516,249.3 507.5,224.6 		"/>
	</g>
	<g>
		<g>
			<path class="st1" d="M495.7,269.8c-1.5,0-2.7-1.2-2.8-2.8c-0.3-6.2,0.3-21.8,1.4-21.8c1.5-0.1,13.3,2.7,13.3,2.7s0.7-6.7,6.8-5.5
				c4.7,0.9,10.3,6.1,12.7,8.5c0.8,0.8,1.7,1.3,2.7,1.4c4.4,0.8,16.4,3.7,16.9,10c0.6,7.7-2.5,7-4,7.1
				C541.5,269.6,505.8,269.8,495.7,269.8z"/>
		</g>
	</g>
	<g>
		<path class="st0" d="M488,132.7L524.3,237l-36,5.7l-13-35.2c0,0-22.3,10.1-36.6-6.9c-14.3-17-25-41.4-25-41.4l25.2-12.3
			c0,0,1.4-27.6,11.5-31.9C460.4,110.8,488,132.7,488,132.7z"/>
	</g>
	<g>
		<path class="st7" d="M497.5,107.3c0,0,6.9,10,20.4,10.4c13,0.4,30-10.4,30-10.4l-1.8-11.4c0,0-16-1.1-24.1-2.9
			c-8.1-1.8-14.2-4.2-14.2-4.2L497.5,107.3z"/>
	</g>
	<g>
		<path class="st9" d="M556.5,110.1c-0.7,0.1-1.5,0.2-2.3,0.3l-1.6-19.5c0.6,0,1.4,0,2.4,0L556.5,110.1z"/>
	</g>
	<g>
		<path class="st7" d="M552.6,90.9l1.6,19.5c-5.1,0.3-11.3-0.7-11.3-0.7l-4.6-6.7l2.8-4.7c0,0,3.9-5.7,5.4-6.7
			c1.5-1,5.4-0.6,5.4-0.6S552.1,90.9,552.6,90.9z"/>
	</g>
	<g>
		<path class="st7" d="M560.7,108c-0.6,1.2-2.2,1.8-4.2,2.1L555,90.9c2.1,0,4.5,0.2,5.2,0.9c1.2,1.3-0.1,4.2-0.1,4.2
			S562.9,103.8,560.7,108z"/>
	</g>
	<g>
		<path class="st7" d="M558.4,109.7c0,0-7.6,2.7-8.9-0.6c-1.2-3.3-1.6-9-1.6-9l9.6-2.9L558.4,109.7z"/>
	</g>
	<g>
		<path d="M552.2,107.4c-0.1,0-0.2,0-0.2-0.1c-0.1-0.1-2.2-2.2-1.6-3.9c0.6-1.6,8.5-2.4,10.1-2.6c0.2,0,0.3,0.1,0.4,0.3
			c0,0.2-0.1,0.3-0.3,0.4c-4.4,0.4-9.2,1.3-9.5,2.1c-0.4,1,0.9,2.6,1.4,3.2c0.1,0.1,0.1,0.3,0,0.5
			C552.3,107.3,552.3,107.4,552.2,107.4z"/>
	</g>
	<g>
		<path d="M551.9,110.8c-0.1,0-0.2-0.1-0.3-0.2c0-0.1-0.9-1.5-0.5-2.7c0.1-0.5,0.5-0.9,0.9-1.1c1.8-1,8.1-0.2,8.4-0.1
			c0.2,0,0.3,0.2,0.3,0.4c0,0.2-0.2,0.3-0.4,0.3c-1.8-0.2-6.7-0.7-8,0.1c-0.3,0.2-0.5,0.4-0.6,0.7c-0.3,0.9,0.5,2.2,0.5,2.2
			c0.1,0.2,0,0.4-0.1,0.4C552,110.8,552,110.8,551.9,110.8z"/>
	</g>
	<g>
		<path d="M551.2,103.3c0,0-0.1,0-0.1,0c-0.1,0-1.5-0.5-1.8-1.8c-0.2-0.9,0.2-2,1.3-3.1c0.1-0.1,0.3-0.1,0.5,0
			c0.1,0.1,0.1,0.3,0,0.5c-0.9,1-1.3,1.8-1.2,2.5c0.2,0.9,1.3,1.3,1.3,1.3c0.2,0.1,0.3,0.2,0.2,0.4
			C551.4,103.3,551.3,103.3,551.2,103.3z"/>
	</g>
	<g>
		<path class="st2" d="M492.3,110.3c0,0,5.7,4,11.3,6.6c5.6,2.6,5.6,2.6,5.6,2.6l10.6-29.4l-29.8-18L492.3,110.3z"/>
	</g>
	<g>
		<path class="st4" d="M475.7,207c-0.1,0-0.1,0-0.2-0.1c-0.1-0.1-0.2-0.3-0.1-0.5c0-0.1,4.4-6.2,4.5-18.6
			c0.1-12.5-4.4-40.1-4.4-40.4c0-0.2,0.1-0.3,0.3-0.4l10.6-2c0.2,0,0.4,0.1,0.4,0.3c0,0.2-0.1,0.4-0.3,0.4l-10.2,1.9
			c0.5,3.1,4.5,28.3,4.4,40.2c-0.1,12.7-4.4,18.7-4.6,19C475.9,206.9,475.8,207,475.7,207z"/>
	</g>
	<g>
		<path class="st4" d="M491.7,234c-0.2,0-0.3-0.1-0.3-0.3c0-0.2,0.1-0.3,0.3-0.4l29.6-5.1c0.2,0,0.3,0.1,0.4,0.3
			c0,0.2-0.1,0.3-0.3,0.4L491.7,234C491.8,234,491.7,234,491.7,234z"/>
	</g>
	<g>
		<path class="st4" d="M446,168.6c-0.1,0-0.1,0-0.1,0c-2.1-0.4-5.1-10.8-5.7-12.9c0-0.2,0-0.3,0.2-0.4c0.1-0.1,0.3,0,0.4,0.1
			c0.8,1.1,7.8,10.3,6,12.8C446.4,168.5,446.2,168.6,446,168.6z M441.3,157.2c1.5,4.8,3.6,10.5,4.7,10.7c0,0,0.1,0,0.2-0.1
			C447.2,166.4,444,161.1,441.3,157.2z"/>
	</g>
	<g>
		<path class="st4" d="M417.1,166.7c-0.1,0-0.2-0.1-0.3-0.2c-0.1-0.2,0-0.4,0.2-0.4l23.4-10.8c0.2-0.1,0.4,0,0.4,0.2
			c0.1,0.2,0,0.4-0.2,0.4l-23.4,10.8C417.2,166.7,417.1,166.7,417.1,166.7z"/>
	</g>
	<g>
		<path class="st7" d="M455.3,88.1c0,0-14.1-8.2-28,4.3c-13.8,12.4-21.5,35.9-21.5,35.9l12.1,5.1l29.7-27.2L455.3,88.1z"/>
	</g>
	<g>
		<path class="st7" d="M418,130.1c0,0,0.5,6.8,0,8.5c-0.5,1.7-3.9,3.8-3.9,3.8s-5.3,4.7-7,4.4c-1.8-0.3-2.6-3.4-2.6-3.4
			s-7.1-4.4-8-9c-1-4.6,12.9-12.3,12.9-12.3l7.9,2.5L418,130.1z"/>
	</g>
	<g>
		<path d="M414.2,142.8c-0.1,0-0.1,0-0.2,0c-0.2-0.1-0.2-0.3-0.1-0.5l2.2-3.6c0.1-0.2,0.3-0.2,0.5-0.1c0.2,0.1,0.2,0.3,0.1,0.5
			l-2.2,3.6C414.4,142.7,414.3,142.8,414.2,142.8z"/>
	</g>
	<g>
		<path class="st2" d="M421.8,93.8c0,0,16.9-24.2,42.7-25.8c30.6-2,35.1,13.3,35.6,19.4c0.6,6.7-5.5,26.1-5.5,26.1l-4.5,21.6
			l-49.1-13.8l6.5-15.2L421.8,93.8z"/>
	</g>
	<g>
		<path d="M486.2,51c0,0,10-7,4.8-10.4c-3.5-2.3-7.4,2.5-7.4,2.5s-9,0-12.9,4.4c-3.8,4.4,3.8,13.4,3.8,13.4L486.2,51z"/>
	</g>
	<g>
		<g>
			<path class="st7" d="M475.9,62.9l-1.2,8.1c0,0,2.1,1.9,6.8,3c3.5,0.8,4,0.9,4,0.9l0.1-4.2l0.1-4.1l-8.4-3.2L475.9,62.9z"/>
		</g>
	</g>
	<g>
		<g>
			<path d="M477.3,63.4c0,0.2,0,0.5,0.1,0.8c1.2,4.3,6.1,5.9,8.2,6.4l0.1-4.1L477.3,63.4z"/>
		</g>
	</g>
	<g>
		<g>
			<path class="st7" d="M490.4,48.4c0,0,2.8,10.8,0.2,16.2c-2.6,5.4-7.6,3.6-10.6,2c-2.9-1.6-4.1-3.7-4.1-3.7s-3.1,0.5-4.6-2.5
				c-1.5-3,0.2-5.9,2-6.3c1.8-0.4,3.6,1.1,3.6,1.1l-1.1-3.2C475.8,52,484.9,38.2,490.4,48.4z"/>
		</g>
	</g>
	<g>
		<path d="M476,59.5c-0.1,0-0.2,0-0.2-0.1l-3.3-3.2c-0.1-0.1-0.1-0.3,0-0.5c0.1-0.1,0.3-0.1,0.5,0l3.3,3.2c0.1,0.1,0.1,0.3,0,0.5
			C476.1,59.5,476,59.5,476,59.5z"/>
	</g>
	<g>
		<path d="M472.6,58.9c-0.2,0-0.3-0.1-0.3-0.3c0-0.2,0.1-0.3,0.3-0.4l2.5-0.3c0.2,0,0.3,0.1,0.4,0.3c0,0.2-0.1,0.3-0.3,0.4
			L472.6,58.9C472.6,58.9,472.6,58.9,472.6,58.9z"/>
	</g>
	<g>
		<path d="M488.3,60C488.3,60,488.3,60,488.3,60c-0.3-0.1-0.4-0.3-0.3-0.4c0.7-2.4-0.6-3.9-0.7-3.9c-0.1-0.1-0.1-0.3,0-0.5
			c0.1-0.1,0.3-0.1,0.5,0c0.1,0.1,1.7,1.9,0.8,4.6C488.6,59.9,488.5,60,488.3,60z"/>
	</g>
	<g>
		<path d="M490.3,56.4c-0.2,0-0.3-0.1-0.3-0.3l-0.2-1.9c0-0.2,0.1-0.3,0.3-0.4c0.2,0,0.3,0.1,0.4,0.3l0.2,1.9
			C490.6,56.2,490.5,56.4,490.3,56.4C490.3,56.4,490.3,56.4,490.3,56.4z"/>
	</g>
	<g>
		<path d="M485,55.7c-0.2,0-0.3-0.1-0.3-0.3l-0.2-1.9c0-0.2,0.1-0.3,0.3-0.4c0.2,0,0.3,0.1,0.4,0.3l0.2,1.9
			C485.4,55.5,485.3,55.7,485,55.7C485.1,55.7,485.1,55.7,485,55.7z"/>
	</g>
	<g>
		<path d="M490.9,50.9c0,0-0.6-1.8-2.7-2.1c-2-0.3-3.5,0.9-3.5,0.9s0.4,3.5-2.7,4.9c-3.1,1.4-5.1,0.6-5.1,0.6l-1.9-1l-1-3.1l6.8-5.3
			l8.2-2.8l1.8,4.1L490.9,50.9z"/>
	</g>
	<g>
		<path d="M485.8,62.9c-0.1,0-2.2-0.1-2.8-2.1c-0.1-0.2,0-0.4,0.2-0.4c0.2-0.1,0.4,0,0.4,0.2c0.5,1.6,2.1,1.7,2.2,1.7
			c0.2,0,0.3,0.2,0.3,0.3C486.1,62.8,486,62.9,485.8,62.9z"/>
	</g>
	<g>
		<path d="M483.5,43.1c0,0,0.4-4.5-4.7-3.3c-5.1,1.3-5.6,7.4-5.6,7.4L483.5,43.1z"/>
	</g>
	<g>
		<path d="M491.1,52.4C491.1,52.4,491,52.4,491.1,52.4l-1.6-0.4c-0.2,0-0.3-0.2-0.2-0.4c0-0.2,0.2-0.3,0.4-0.2l1.5,0.4
			c0.2,0,0.3,0.2,0.2,0.4C491.4,52.3,491.2,52.4,491.1,52.4z"/>
	</g>
	<g>
		<path d="M483.9,52.4c-0.1,0-0.3-0.1-0.3-0.2c0-0.2,0.1-0.4,0.2-0.4l2.2-0.6c0.2,0,0.4,0.1,0.4,0.2c0,0.2-0.1,0.4-0.2,0.4
			L483.9,52.4C484,52.4,483.9,52.4,483.9,52.4z"/>
	</g>
	<g>
		<path class="st4" d="M445.3,135.1c-0.2,0-0.3-0.1-0.3-0.3c0-0.2,0.1-0.4,0.3-0.4c0.1,0,6-1.2,7.6-4.1c0.1-0.2,0.3-0.2,0.4-0.1
			c0.2,0.1,0.2,0.3,0.1,0.4C451.6,133.8,445.6,135,445.3,135.1C445.3,135.1,445.3,135.1,445.3,135.1z"/>
	</g>
	<g>
		<path class="st11" d="M485.5,69.9c0,0,2.2,2,2.8,5.8c0.3,2.1-0.2,5.1-0.7,5c-0.4-0.1-2.9-5.4-4.9-6c-2-0.6-4.5,5-5.4,5.1
			c-0.9,0.1-3.9-2.7-4.6-6.2c-0.7-3.5,2.2-5.7,2.2-5.7S483.1,77.8,485.5,69.9z"/>
	</g>
	<g>
		<path class="st11" d="M447.4,106.2c0,0-0.1,0-0.1,0c-0.2-0.1-0.2-0.3-0.2-0.4l3.2-7.4c0.1-0.2,0.3-0.2,0.4-0.2
			c0.2,0.1,0.2,0.3,0.2,0.4l-3.2,7.4C447.6,106.1,447.5,106.2,447.4,106.2z"/>
	</g>
	<g>
		<path class="st11" d="M494.8,112.2C494.8,112.2,494.8,112.2,494.8,112.2c-0.3-0.1-0.4-0.2-0.3-0.4l1.5-5.1
			c0.1-0.2,0.2-0.3,0.4-0.2c0.2,0,0.3,0.2,0.2,0.4l-1.5,5.1C495.1,112.1,495,112.2,494.8,112.2z"/>
	</g>
	<g>
		<rect x="327" y="324.1" class="st1" width="90.7" height="99.8"/>
		<rect x="311.5" y="324.1" class="st2" width="90.7" height="99.8"/>
	</g>
	<g>
		<rect x="163.4" y="359.2" class="st1" width="90.7" height="64.7"/>
		<rect x="148" y="359.2" class="st2" width="90.7" height="64.7"/>
	</g>
	<g>
		<path d="M394.8,143.5c-0.2,0-0.3-0.1-0.3-0.3c0-0.2,0.1-0.3,0.3-0.3c4.4,0,4.9-7,4.9-7c0-0.1,0.1-0.2,0.1-0.2
			c0.1-0.1,0.2-0.1,0.3-0.1c0,0,4.3,0.7,4.8-2.1c0.1-0.3,0-0.6-0.2-0.9c-1.2-1.6-6.7-2.3-8.7-2.4c-0.2,0-0.3-0.2-0.3-0.3
			c0-0.2,0.2-0.3,0.3-0.3c0.3,0,7.5,0.5,9.2,2.7c0.3,0.4,0.4,0.9,0.3,1.4c-0.5,2.5-3.5,2.8-5.2,2.6
			C400.1,137.7,399.2,143.5,394.8,143.5L394.8,143.5z"/>
	</g>
	<g>
		<path d="M404.5,143.8c0,0-0.1,0-0.1,0l-5.9-2.9c-0.2-0.1-0.2-0.3-0.2-0.4c0.1-0.2,0.3-0.2,0.4-0.2l5.7,2.7l4.9-5.5
			c0.1-0.1,0.3-0.1,0.5,0c0.1,0.1,0.1,0.3,0,0.5l-5.1,5.7C404.7,143.8,404.6,143.8,404.5,143.8z"/>
	</g>
	<g>
		<path d="M406.9,147.1c-0.3,0-0.5,0-0.8-0.2c-0.9-0.4-1.5-1.6-1.8-3.4c0-0.2,0.1-0.3,0.3-0.4c0.2,0,0.3,0.1,0.4,0.3
			c0.3,1.5,0.8,2.5,1.5,2.9c0.6,0.3,1.3,0,1.3-0.1c0.2-0.1,0.4,0,0.4,0.1c0.1,0.2,0,0.4-0.1,0.4
			C407.9,146.8,407.5,147.1,406.9,147.1z"/>
	</g>
	<g>
		<path d="M254.6,179.3c-0.2,0-0.3-0.1-0.3-0.3c0-0.2,0.1-0.3,0.3-0.4c0.9-0.1,1.7-0.4,2.2-1.1c1.2-1.5,1-3.9,1-3.9
			c0-0.1,0-0.2,0.1-0.3c0.1-0.1,0.2-0.1,0.3,0c0.7,0.3,2.6,1.1,3.6,0.6c0.3-0.2,0.5-0.4,0.5-0.9c0.2-2-3.5-4.3-4.9-5
			c-0.2-0.1-0.2-0.3-0.1-0.4c0.1-0.2,0.3-0.2,0.4-0.1c0.2,0.1,5.6,2.9,5.3,5.7c-0.1,0.6-0.4,1.1-0.9,1.4c-1.1,0.6-2.8,0-3.7-0.4
			c0,0.9-0.1,2.6-1.2,3.8C256.6,178.7,255.7,179.2,254.6,179.3C254.6,179.3,254.6,179.3,254.6,179.3z"/>
	</g>
	<g>
		<path d="M264.6,183c-0.1,0-0.2-0.1-0.3-0.2l-3.3-5.3c-0.1-0.1-0.1-0.2,0-0.3c0-0.1,0.6-1.4,1.7-1.8c0.4-0.2,0.9-0.1,1.3,0.1
			c1.6,0.7,4,5.2,4.3,5.7c0.1,0.2,0,0.4-0.1,0.4c-0.2,0.1-0.4,0-0.4-0.1c-0.7-1.3-2.9-4.9-4-5.4c-0.3-0.1-0.5-0.1-0.8,0
			c-0.6,0.2-1,0.9-1.2,1.3l3.2,5.1c0.1,0.2,0.1,0.4-0.1,0.5C264.7,183,264.6,183,264.6,183z"/>
	</g>
	<g>
		<path d="M272,178.8c-0.1,0-0.2,0-0.2-0.1c-2.4-2.7-5.5-5.6-6.2-5.4c-0.9,0.2-1.3,1.9-1.4,2.6c0,0.2-0.2,0.3-0.4,0.3
			c-0.2,0-0.3-0.2-0.3-0.4c0-0.1,0.4-2.7,1.9-3.1c1.4-0.4,5.6,4.2,6.9,5.6c0.1,0.1,0.1,0.3,0,0.5C272.1,178.8,272,178.8,272,178.8z"
			/>
	</g>
	<g>
		<path d="M261.4,184.5c-0.1,0-0.2-0.1-0.3-0.1c-0.3-0.4-2.6-3.9-2.3-5.5c0.3-1.4,1.6-1.8,2.3-1.8c0.2,0,0.3,0.1,0.3,0.3
			c0,0.2-0.1,0.3-0.3,0.3c-0.1,0-1.5,0-1.7,1.2c-0.2,1.1,1.5,4,2.2,5c0.1,0.2,0.1,0.4-0.1,0.5C261.6,184.5,261.5,184.5,261.4,184.5z
			"/>
	</g>
	<g>
		<path d="M261.6,176.8c-2,0-2.7-1.7-2.8-2.7c0-0.2,0.1-0.3,0.3-0.4c0.2,0,0.3,0.1,0.4,0.3c0,0.1,0.3,2.3,2.3,2.1
			c0.2,0,0.3,0.1,0.4,0.3c0,0.2-0.1,0.3-0.3,0.4C261.8,176.8,261.7,176.8,261.6,176.8z"/>
	</g>
	<g>
		<path class="st12" d="M548.4,38.4c0,0,10.9-4.7,23.1-1.3c10,2.8,21.6-1,25.4-2.5c0.7-0.2,1.4,0.2,1.4,0.9l2.8,28.7
			c0,0.4-0.2,0.8-0.5,1c-1.9,1.1-8.2,4.2-19.1,2.6c-9.1-1.3-27-2.5-30.6,1L548.4,38.4z"/>
	</g>
	<g>
		<path class="st7" d="M547.9,91.1c0,0,8.9,4.2,7.2,6.8c-1.7,2.6-5.7,0.2-5.7,0.2s-3.2,6.5-7.6,4.7L547.9,91.1z"/>
		<path d="M543.3,103.4c-0.5,0-1.1-0.1-1.7-0.3c-0.2-0.1-0.2-0.3-0.2-0.4c0.1-0.2,0.3-0.2,0.4-0.2c4,1.6,7.2-4.5,7.2-4.6
			c0-0.1,0.1-0.1,0.2-0.2c0.1,0,0.2,0,0.3,0c0,0,3.7,2.2,5.2-0.1c0.2-0.3,0.2-0.5,0.1-0.8c-0.5-1.9-5.3-4.6-7.2-5.5
			c-0.2-0.1-0.2-0.3-0.2-0.4c0.1-0.2,0.3-0.2,0.4-0.2c0.3,0.1,6.8,3.3,7.5,5.9c0.1,0.5,0.1,1-0.2,1.4c-1.4,2.1-4.3,1.3-5.8,0.4
			C548.9,99.6,546.6,103.4,543.3,103.4z"/>
	</g>
	<g>
		<path d="M555.3,96.9c-0.2,0-0.3-0.1-0.3-0.3c0-0.2,0.1-0.3,0.3-0.4l4.4-0.5c0.2,0,0.3,0.1,0.4,0.3c0,0.2-0.1,0.3-0.3,0.4
			L555.3,96.9C555.3,96.9,555.3,96.9,555.3,96.9z"/>
	</g>
</g>
<g>
	<path d="M93,477.1c-0.3,3.4-0.8,6.2-1.7,8.5c2,1.6,4.7,1.9,7.8,1.9c1.5,0,6.2,0,8-0.1c-0.5,0.7-1,2.1-1.2,3h-7
		c-3.7,0-6.7-0.4-9.1-2.2c-0.7,1.1-1.5,1.9-2.4,2.6c-0.5-0.6-1.7-1.7-2.4-2.2c1.1-0.7,1.9-1.6,2.6-2.8c-0.8-1.2-1.5-2.7-2-4.5
		l2.4-0.8c0.3,0.8,0.6,1.6,0.9,2.2c0.3-1,0.5-2.1,0.7-3.3h-1.5c-0.6,0.3-1.5,0.8-1.5,1.2c-0.2-0.6-0.8-1.9-1.3-2.5
		c0.5-0.2,1.2-0.8,1.7-1.6c0.3-0.5,1.1-1.9,1.8-3.6h-3v-2.9h4.1l1.1-0.4l2,1.3c-0.8,2-1.7,3.9-2.7,5.6h0.1l0.6-0.1L93,477.1z
		 M97.3,473.1h-3.7v-2.5h3.7v-1.5h3.1v1.5h5.1v3.2h1.1v2.4h-1.1v3.3h-5.1v0.7h5.2v2.3h-5.2v0.8h5.9v2.5h-5.9v1.1h-3.1v-1.1h-4.7
		v-2.5h4.7v-0.8h-3.9v-2.3h3.9v-0.7h-3.7v-2.5h3.7v-0.8h-4.8v-2.4h4.8V473.1z M100.4,473.1v0.7h2.2v-0.7H100.4z M102.6,476.3h-2.2
		v0.8h2.2V476.3z"/>
	<path d="M129.8,486.7v3.4h-21.2v-3.4H120c1.1-2.7,2.2-6.6,2.7-9.8l3.8,0.8c-0.8,3.2-1.9,6.5-2.8,9H129.8z M128.8,476.5h-19.1v-3.4
		h8.1c-0.2-1-0.7-2.5-1-3.5l3.4-0.8c0.5,1.2,1,2.7,1.3,3.7l-2.4,0.7h9.8V476.5z M114.2,486.4c-0.3-2.4-1.1-6-1.8-8.8l3.4-0.8
		c0.8,2.8,1.6,6.3,2,8.7L114.2,486.4z"/>
	<path d="M138.8,470.1c-0.4,1.2-1,2.5-1.6,3.8V491h-3V479c-0.5,0.6-0.9,1.2-1.4,1.8c-0.3-0.8-1.1-2.5-1.7-3.3c1.9-2,3.7-5.2,4.7-8.3
		L138.8,470.1z M152.9,472.5v2.7h-15v-2.7h6.4c-0.3-0.8-0.9-1.7-1.3-2.5l2.8-1.1c0.6,1,1.3,2.3,1.7,3.1l-1.1,0.5H152.9z M139.2,483
		h12.5v7.8h-2.9v-0.5H142v0.6h-2.8V483z M151.3,478.7h-11.8v-2.6h11.8V478.7z M139.5,479.5h11.8v2.6h-11.8V479.5z M142,485.6v2h6.8
		v-2H142z"/>
	<path d="M173.4,486.7c1.1,0.7,2.3,1.7,3,2.4l-2.5,1.8c-0.7-0.8-2.2-2.1-3.4-2.9l1.8-1.2h-4.2l1.9,1.2c-1.1,1.1-3,2.4-4.5,3
		c-0.5-0.6-1.4-1.5-2.1-2.1c1.2-0.5,2.6-1.3,3.5-2.1h-1.3v-9.3h0.6c-0.4-0.6-1.1-1.3-1.6-1.8v6.4H161v0.2c1.1,0.6,3.3,2.2,3.9,2.6
		l-1.8,2.8c-0.5-0.6-1.3-1.5-2.1-2.3v5.6h-2.9v-5.1c-0.8,1.5-1.7,2.9-2.7,3.9c-0.3-0.9-0.9-2.3-1.4-3.1c1.2-1.1,2.5-2.9,3.3-4.5
		h-2.5v-6.7h3.2V474h-3.5v-2.9h3.5v-1.9h2.9v1.9h3.7v2.9H161v1.2h3.4v0.1c1.4-0.6,2.3-1.4,2.8-2.6h-1.9V470h10.3c0,0,0,0.7-0.1,1
		c-0.2,3-0.4,4.5-1,5.1c-0.5,0.5-1,0.7-1.6,0.8c-0.5,0.1-1.4,0.1-2.3,0.1c0-0.8-0.3-2-0.8-2.7c0.6,0.1,1.2,0.1,1.5,0.1
		c0.3,0,0.5,0,0.6-0.2c0.2-0.2,0.3-0.6,0.4-1.4h-2.1c-0.6,2.1-1.7,3.6-3.5,4.6h8.1v9.3H173.4z M157.4,479.4h0.9v-1.5h-0.9V479.4z
		 M161.8,477.8h-1v1.5h1V477.8z M172,479.3h-3.5v0.6h3.5V479.3z M172,481.7h-3.5v0.6h3.5V481.7z M172,484.2h-3.5v0.6h3.5V484.2z"/>
	<path d="M187.4,481c0.3,0.8,0.6,1.9,0.8,2.6l-1,0.3h0.4v2.3c0,1.9-0.5,3.7-3.4,4.7c-0.3-0.5-0.9-1.4-1.4-1.8c1-0.3,1.7-0.7,2.1-1.1
		h-2.4v-3.7h2v1.9h0.9v-2.3h1.1c0-0.1,0-0.3-0.1-0.5c-2.9,0.4-3.4,0.5-3.8,0.7v0c-0.1-0.4-0.4-1.3-0.6-1.7c0.4,0,0.8-0.3,1.2-0.6
		c0.2-0.1,0.4-0.3,0.7-0.6c-0.8,0.1-1.1,0.2-1.3,0.3v0c-0.1-0.4-0.4-1.3-0.6-1.8c0.3-0.1,0.5-0.2,0.8-0.4c0.2-0.2,0.8-0.7,1.2-1.4
		h-2.5v13.3h-3.2v-21h9.2v7.7h-2.3l0.9,0.5c-0.4,0.5-0.9,1.1-1.4,1.5l0.9,0c0.3-0.3,0.6-0.6,0.8-1l1.5,1.1c-0.5,0.5-1.1,1.1-1.7,1.6
		L187.4,481z M181.5,472.1v0.7h2.9v-0.7H181.5z M181.5,475.5h2.9v-0.7h-2.9V475.5z M186.1,482l-0.2-0.5l-0.8,0.6L186.1,482z
		 M198,487.2c0,1.5-0.2,2.4-1.1,2.9c-0.9,0.6-2,0.6-3.6,0.6c-0.1-0.6-0.3-1.5-0.5-2.3h-1.2v-0.6h-0.9v2.8h-2.3v-6.8h0.2
		c-0.1-0.4-0.3-1.1-0.5-1.5c0.4-0.1,0.8-0.3,1.2-0.6c0.1-0.1,0.4-0.3,0.7-0.6c-0.8,0.1-1.2,0.2-1.4,0.3c-0.1-0.4-0.4-1.3-0.6-1.8
		c0.3-0.1,0.5-0.2,0.8-0.4c0.2-0.2,0.8-0.7,1.2-1.4h-1.4v-7.7h9.3V487.2z M194.4,487.6c0.3,0,0.4-0.1,0.4-0.4v-9.5h-3.7l1,0.5
		c-0.4,0.5-0.9,1-1.4,1.5l0.8,0c0.3-0.3,0.6-0.7,0.8-1.1l1.5,1.1c-0.5,0.6-1.1,1.1-1.7,1.7l1.2-0.4c0.4,0.8,0.8,1.9,0.9,2.6
		l-1.6,0.6c0-0.2-0.1-0.4-0.2-0.7c-1.6,0.2-2.5,0.3-3,0.5h1.1v2.3h0.9v-1.9h2.1v3.3H194.4z M192,481.5c-0.3,0.2-0.5,0.4-0.7,0.6
		l0.9-0.1L192,481.5z M191.9,472.1v0.7h3v-0.7H191.9z M191.9,475.5h3v-0.7h-3V475.5z"/>
	<path d="M207.5,470.1c-0.5,1.3-1,2.6-1.7,4v16.8h-3.2v-11.5c-0.4,0.6-0.8,1.1-1.3,1.6c-0.3-0.8-1.1-2.7-1.7-3.5
		c1.9-2,3.7-5.2,4.8-8.3L207.5,470.1z M215.7,483.4v4.2c0,1.4-0.3,2.2-1.2,2.7c-0.9,0.4-2.2,0.5-3.7,0.5c-0.1-0.9-0.5-2.1-0.9-2.9
		c0.7,0,1.8,0,2,0c0.3,0,0.4-0.1,0.4-0.3v-3.9c-1.2,0.1-2.1,0.2-2.8,0.3l2.2,0.7c-0.9,1.8-2.1,3.7-3.2,5.1c-0.7-0.6-1.8-1.3-2.5-1.7
		c0.9-1.1,1.9-2.6,2.5-3.9c-0.3,0.1-0.5,0.1-0.7,0.2c-0.1-0.5-0.6-1.9-0.9-2.6c0.8-0.1,1.6-0.6,2.8-1.3c0.4-0.3,1.2-0.7,2-1.4
		c-2.7,0.1-3.4,0.3-3.9,0.4c-0.1-0.6-0.6-1.9-0.9-2.6c0.5-0.1,1-0.4,1.6-0.8c0.5-0.3,1.9-1.4,3.1-2.6c-1.1,0.2-2.3,0.4-3.4,0.5
		c-0.1-0.7-0.6-1.9-0.9-2.6c3.7-0.6,7.8-1.6,10.5-2.6l2.2,2.6c-1.9,0.6-4.1,1.2-6.3,1.6l1.4,0.7c-1,0.9-2,1.9-3.2,2.7l2.9-0.1
		c0.9-0.8,1.9-1.7,2.8-2.7l2.2,1.8c-2,2-4.4,3.9-6.8,5.4l4.1-0.2c-0.4-0.5-0.8-1-1.3-1.4l2.5-1.5c1.3,1.3,2.9,3.1,3.6,4.3l-2.7,1.7
		c-0.1-0.2-0.2-0.4-0.3-0.6L215.7,483.4z M219,483.5c1,1.3,2.3,3.1,2.8,4.3l-2.9,1.4c-0.5-1.2-1.6-3.1-2.6-4.4L219,483.5z"/>
	<path class="st12" d="M238.7,489.7l5.8-9.8l-5.8-9.8l2.7-1.1l6.5,10.9l-6.5,10.9L238.7,489.7z"/>
	<path d="M282.3,486.9h-8.5v1.1c0,1.4-0.3,2.1-1.4,2.6c-1.1,0.4-2.4,0.4-4.1,0.4c-0.2-0.9-0.6-2-1-2.8c0.9,0,2.4,0,2.7,0
		c0.4,0,0.5-0.1,0.5-0.3v-0.9h-9.2v-2.6h9.2v-0.4c0.6-0.3,1.3-0.7,2-1.1h-6.5v-2.3h9.6l0.7-0.2l1.9,1.7c-1.1,0.8-2.3,1.6-3.7,2.3
		h7.9V486.9z M264.8,482.4h-3.1v-5h1.7l-0.4-6.9c1.4-0.3,3.5-0.9,4.8-1.4l1.3,1.9c-0.9,0.3-1.9,0.6-2.9,0.8l0,0.4h2.7v2h-2.6l0,0.5
		h2.6v0.9c0.4-0.2,0.8-0.4,1.3-0.6c-0.4-0.2-0.8-0.5-1.1-0.6l1.5-1.2c0.4,0.2,0.8,0.4,1.2,0.7c0.3-0.3,0.6-0.6,0.8-0.9l2.1,0.6
		c-0.3,0.5-0.7,0.9-1.1,1.3c0.5,0.3,0.9,0.7,1.2,1l-1.6,1.4c-0.3-0.3-0.7-0.6-1.2-1c-0.5,0.4-1.1,0.7-1.6,1h6.8l0.1-0.5h-2.4v-2h2.5
		l0-0.5H275v-2h2.6l0-0.5h-2.8v-2h6c-0.1,2.5-0.3,5.4-0.5,7.6h1.7v5h-3.3v-2.7h-14V482.4z M266.4,477.4h3.5c-0.3-0.3-0.7-0.7-1-1.1
		v0.5h-2.5L266.4,477.4z M273,473.1c-0.3-0.3-0.6-0.5-1-0.8c-0.6,0.4-1.1,0.7-1.7,1c-0.4-0.4-1.2-1.1-1.7-1.4
		c0.6-0.2,1.1-0.5,1.6-0.8c-0.4-0.2-0.7-0.4-1.1-0.6l1.5-1.2c0.4,0.2,0.8,0.4,1.2,0.6c0.3-0.3,0.5-0.5,0.7-0.8l2.1,0.6
		c-0.3,0.4-0.7,0.8-1.1,1.2c0.4,0.3,0.7,0.6,1,0.8L273,473.1z"/>
	<path d="M297.1,469.9l-0.3,0.4c2.1,1.7,5.8,3.1,9.4,3.8c-0.7,0.6-1.6,1.8-2.1,2.5c-0.4-0.1-0.8-0.2-1.1-0.3v6h-16.3v-5.8
		c-0.4,0.1-0.8,0.3-1.2,0.4c-0.3-0.7-1.2-2-1.7-2.6c4.3-1,8.4-2.8,10.4-5.4L297.1,469.9z M287.8,482.8h13.9v8h-3.4v-0.5h-7.2v0.6
		h-3.3V482.8z M301.3,475.7c-0.9-0.3-1.7-0.7-2.5-1.1v0.6h-8.2v-0.4c-0.7,0.3-1.4,0.6-2.1,0.9H301.3z M290.4,480.3
		c-0.1-0.6-0.3-1.5-0.5-2.2l1.5-0.4h-2v2.6H290.4z M291.1,484.9v0.6h7.2v-0.6H291.1z M298.3,488.2v-0.6h-7.2v0.6H298.3z
		 M293.3,477.7h-1.1c0.3,0.7,0.5,1.6,0.6,2.2l-1.3,0.4h1.8V477.7z M296.3,473.1c-0.5-0.3-0.9-0.7-1.3-1c-0.4,0.3-0.9,0.7-1.4,1
		H296.3z M296,477.7v2.6h1.5l-1.2-0.3c0.3-0.6,0.5-1.6,0.7-2.3H296z M300,477.7h-1.7l1.5,0.3c-0.4,0.8-0.8,1.7-1.1,2.2h1.3V477.7z"
		/>
	<path d="M313.1,470c-0.4,1.3-0.8,2.7-1.4,4v16.9h-3v-11c-0.3,0.5-0.6,0.9-0.9,1.3c-0.2-0.8-1-2.8-1.4-3.7c1.6-2.1,2.9-5.2,3.7-8.3
		L313.1,470z M317.4,482.4c-0.2,0.9-0.2,2.2-0.2,2.9c-2.9,1.4-3.6,1.9-4,2.3l0-0.1c-0.2-0.7-0.7-2.2-1.2-2.9
		c0.4-0.3,0.8-0.8,0.8-1.7v-11.3h2.8v3.9h2.1v2.8h-2.1v4.6L317.4,482.4z M320.3,486.1l2.5,1.6c-1.2,1.2-3.1,2.5-4.7,3.2
		c-0.5-0.6-1.5-1.5-2.2-2c1.5-0.6,3.2-1.9,4.2-2.8h-1.7v-12.4h3c0-0.3,0.1-0.6,0.1-0.9h-4v-2.8h11.2v2.8h-3.8
		c-0.1,0.3-0.2,0.6-0.3,0.9h3.5v12.4H320.3z M325,476.1h-3.8v1h3.8V476.1z M325,479.3h-3.8v1h3.8V479.3z M325,482.6h-3.8v1h3.8
		V482.6z M325.7,486.1c1.1,0.9,2.6,2.2,3.3,3l-2.6,1.8c-0.7-0.9-2.1-2.3-3.2-3.2L325.7,486.1z"/>
	<path d="M349.5,489.7c-0.1-0.4-0.2-0.8-0.4-1.3c-0.3,1.7-1.1,2.2-2.5,2.2h-2.1c-2.4,0-2.9-0.8-2.9-3v-0.5c-0.3,1-0.7,2.1-1.2,2.9
		l-1.8-1.2v2.1h-3v-9.5h-5.9v-2.6h1.3v-6.2h-0.9v-2.6h9.3v2.6h-0.8v15.4c0.5-1,1-2.2,1.2-3.2l1.7,0.7v-0.8h1.9
		c-0.1-0.2-0.3-0.3-0.4-0.5l1.3-0.7h-5.1v-2.8h12.3v2.8h-5.9c0.9,0.9,1.7,2,2.1,2.7l-0.6,0.4c0.4,0.3,1,0.5,1.5,0.6
		c-0.3-0.7-0.8-1.4-1.3-2l2.2-0.9c1.1,1.3,2,3.1,2.3,4.4L349.5,489.7z M335.5,483.5c-0.5,0.1-1,0.2-1.6,0.2v0.9h1v2h-1v0.6l1.4-0.1
		l0,2.2c-1.8,0.2-3.6,0.3-5.2,0.5l-0.2-2.3l1.7-0.1v-0.8h-1v-2h1v-0.8c-0.4,0-0.7,0-1.1,0c-0.1-0.5-0.3-1.2-0.5-1.8
		c1.5-0.1,3.4-0.3,4.6-0.6L335.5,483.5z M334,472.5v0.8h1.7v-0.8H334z M334,476.1h1.7v-0.8H334V476.1z M335.7,478.7V478H334v0.7
		H335.7z M343.8,473.2h-4.2v-2.5h4.5c0-0.5,0.1-0.9,0.1-1.4l2.9,0.2c0,0.4-0.1,0.8-0.1,1.2h4.2v2.5h-4.6l-0.1,0.8h4.5v6h-11.2v-6
		h3.9L343.8,473.2z M343.1,476.3h-0.9v1.4h0.9V476.3z M346.3,488.2c0.4,0,0.6-0.2,0.6-1.4l-1.3,0.8c-0.3-0.5-0.7-1.2-1.2-1.8v1.8
		c0,0.6,0.1,0.6,0.6,0.6H346.3z M345.8,476.3h-0.9v1.4h0.9V476.3z M347.6,477.7h0.9v-1.4h-0.9V477.7z"/>
	<path d="M374.4,485.7h-5.8c1.9,0.9,3.9,1.9,5.1,2.6l-2.2,2.6c-1.4-0.9-4-2.4-6.2-3.5l1.3-1.7H360l2,1.7c-2.1,1.2-5,2.6-7.3,3.5
		c-0.4-0.7-1.2-1.8-1.9-2.5c1.8-0.6,4.2-1.7,5.8-2.7H353v-3.1h2l-0.4-11.7c1.5-0.4,3.2-1.1,4.5-1.7l1.4,2.7
		c-0.9,0.3-1.9,0.6-2.9,0.8l0.1,1.7h2.3v2.7h-2.3l0,1.4h2.3v2.7h-2.2l0,1.4h11.5l0.1-1.4h-2v-2.7h2.1l0-1.5h-1.9v-2.7h2l0-1.4h-2.3
		V470h5.4c0,4.1-0.1,9.1-0.3,12.6h1.9V485.7z M364.1,477.1h-3.4v-7.8h2.8v1.3h3.5v2.7h-3.5v1.3h2.3v0h1v5.7c0,1.1-0.2,1.6-0.9,1.9
		c-0.7,0.3-1.6,0.3-2.7,0.3c-0.1-0.5-0.3-1.1-0.5-1.6c-0.1,0.3-0.3,0.6-0.4,0.8c-0.5-0.4-1.5-1-2.1-1.3c0.5-0.8,0.6-1.9,0.6-2.9
		l2.4,0.4c-0.1,0.9-0.2,1.9-0.5,2.7c0.4,0,0.8,0,1,0c0.2,0,0.3,0,0.3-0.3V477.1z"/>
	<path d="M391.8,487.7c0.4,0,0.8,0,1.3,0c0.9,0,3.6,0,4.8,0c-0.4,0.7-0.8,2.1-0.9,2.9h-4c-2.9,0-5.1-0.5-6.7-3.1
		c-0.6,1.3-1.3,2.5-2.3,3.3c-0.5-0.5-1.7-1.5-2.4-2c1.8-1.5,2.8-4,3.1-7l3,0.4c-0.1,0.8-0.3,1.6-0.4,2.3c0.4,1,0.9,1.7,1.4,2.1v-5.2
		h-5.2l0,0.3c-0.8,0.2-1.6,0.4-2.4,0.7v4.8c0,1.4-0.2,2.3-1,2.8c-0.8,0.5-1.9,0.6-3.4,0.6c-0.1-0.8-0.4-2.2-0.8-3.1
		c0.7,0,1.5,0,1.8,0s0.4-0.1,0.4-0.4v-3.9l-1.8,0.5l-0.7-3.2c0.7-0.1,1.6-0.3,2.5-0.5v-3.6h-2.3v-3.1h2.3v-4.2h3v4.2h2.2v3.1h-2.2
		v2.8l1.9-0.5l0.3,1.9v-1.8h13.9v2.7h-5.5v1.6h4.2v2.6h-4.2V487.7z M396.1,478h-11.6v-8.2h11.6V478z M392.9,472.1h-5.4v0.8h5.4
		V472.1z M392.9,474.9h-5.4v0.8h5.4V474.9z"/>
	<path d="M403.1,478.8v12.1h-3.3v-21h9.1v8.9H403.1z M403.1,472.4v0.8h2.7v-0.8H403.1z M405.8,476.3v-0.8h-2.7v0.8H405.8z
		 M419.6,487c0,1.8-0.3,2.7-1.4,3.2c-1.1,0.6-2.6,0.6-4.8,0.6c-0.1-0.9-0.6-2.4-1.1-3.3H408v1.3H405v-8.8h9.1v7.5h1.5
		c0.4,0,0.6-0.2,0.6-0.6v-8.2h-6v-8.9h9.4V487z M411,482.8H408v2.1h2.9V482.8z M413.4,472.4v0.8h2.8v-0.8H413.4z M416.2,476.3v-0.9
		h-2.8v0.9H416.2z"/>
	<path class="st12" d="M437.2,489.7l5.8-9.8l-5.8-9.8l2.7-1.1l6.5,10.9l-6.5,10.9L437.2,489.7z"/>
	<path d="M486.2,486.9v3.3H465v-3.3h2.7v-9.9h3.5v9.9h3.4v-13.1h-8.8v-3.3h19.9v3.3h-7.5v4.5h6.2v3.3h-6.2v5.4H486.2z"/>
	<path d="M508.3,487.2c0,1.7-0.3,2.6-1.4,3.1c-1.1,0.5-2.5,0.6-4.6,0.6c-0.1-0.9-0.6-2.5-1.1-3.4c1.2,0.1,2.7,0.1,3.2,0.1
		c0.4,0,0.6-0.1,0.6-0.5v-11h-12.7v14.7h-3.3v-18h6.4c0.5-1.2,0.8-2.6,1.1-3.8l4.3,0.6c-0.5,1.1-1,2.2-1.6,3.2h9.2V487.2z
		 M497,485.9v1.6h-3v-9.6h9v8H497z M497,480.8v2.3h3v-2.3H497z"/>
	<path d="M531.5,469.8v21.1h-3.7v-1.2H515v1.2h-3.5v-21.1H531.5z M527.9,486.6v-13.4H515v13.4H527.9z M526.3,475.4v9h-9.7v-9H526.3z
		 M522.9,478.3h-3.2v3.3h3.2V478.3z"/>
	<path d="M536.9,474.2c-0.7,0.7-1.5,1.3-2.3,1.8c-0.2-0.6-0.8-2.3-1.2-3c1.7-1,3.5-2.6,4.5-4.3l2.6,0.9c-0.1,0.2-0.2,0.4-0.3,0.6
		c1,0.4,2.2,0.8,2.9,1.2l-1.3,2.6c-0.2-0.1-0.4-0.2-0.7-0.4v1.9h-4.2V474.2z M540.8,484.7c0.7,1.4,1.7,3.3,2.1,4.5l-2.4,1.1
		c-0.1-0.4-0.3-0.9-0.6-1.5c-3.8,1.3-4.6,1.7-5.1,2.1c-0.1-0.8-0.6-2.1-1-2.7c0.5-0.2,0.9-0.6,0.9-1.4v-10.6h7.4v8.6h-4.6v2.2
		l1.4-0.4l-0.4-0.8L540.8,484.7z M537.6,478.4v0.8h1.7v-0.8H537.6z M539.3,482.3v-0.8h-1.7v0.8H539.3z M540.7,473.4
		c-0.7-0.3-1.4-0.7-2.1-1c-0.3,0.3-0.6,0.6-0.8,1H540.7z M547.5,474.6h-4.1v-4.4h4.1v-1.2h3v1.2h4v4.4h-4v0.5h4.8v2.3h-12.6v-2.3
		h4.8V474.6z M552.4,486.9c1.2,0.8,2.4,1.7,3.2,2.3l-2.5,1.6c-0.8-0.8-2.4-2.1-3.7-3.1l1.1-0.9h-3.9l2.3,0.7
		c-0.9,1.3-2.4,2.6-3.9,3.3c-0.5-0.6-1.6-1.7-2.2-2.2c1.1-0.5,2.2-1.1,2.9-1.8h-2.1V478h10.7v8.9H552.4z M547.5,472.8v-0.7h-1.4v0.7
		H547.5z M546.5,480.4h4.7v-0.6h-4.7V480.4z M546.5,482.7h4.7v-0.6h-4.7V482.7z M546.5,485.1h4.7v-0.6h-4.7V485.1z M550.6,472.1v0.7
		h1.1v-0.7H550.6z"/>
	<path d="M578.2,485.7h-5.8c1.9,0.9,3.9,1.9,5.1,2.6l-2.2,2.6c-1.4-0.9-4-2.4-6.2-3.5l1.3-1.7h-6.6l2,1.7c-2.1,1.2-5,2.6-7.3,3.5
		c-0.4-0.7-1.2-1.8-1.9-2.5c1.8-0.6,4.2-1.7,5.8-2.7h-5.7v-3.1h2l-0.4-11.7c1.5-0.4,3.2-1.1,4.5-1.7l1.4,2.7
		c-0.9,0.3-1.9,0.6-2.9,0.8l0.1,1.7h2.3v2.7h-2.2l0,1.4h2.3v2.7h-2.2l0,1.4h11.5l0.1-1.4h-2v-2.7h2.1l0-1.5h-1.9v-2.7h2l0-1.4h-2.3
		V470h5.4c0,4.1-0.1,9.1-0.3,12.6h1.9V485.7z M567.9,477.1h-3.4v-7.8h2.8v1.3h3.5v2.7h-3.5v1.3h2.3v0h1v5.7c0,1.1-0.2,1.6-0.9,1.9
		c-0.7,0.3-1.6,0.3-2.7,0.3c-0.1-0.5-0.3-1.1-0.5-1.6c-0.1,0.3-0.3,0.6-0.4,0.8c-0.5-0.4-1.5-1-2.1-1.3c0.5-0.8,0.6-1.9,0.6-2.9
		l2.4,0.4c-0.1,0.9-0.2,1.9-0.5,2.7c0.4,0,0.8,0,1,0c0.2,0,0.3,0,0.3-0.3V477.1z"/>
	<path d="M587.1,475.4h-7.6v-2.6h3.2c-0.4-0.8-0.9-1.9-1.3-2.7l2.6-1.2c0.6,1,1.3,2.3,1.7,3.1l-1.4,0.7h2.8V475.4z M598.2,487.7
		c1.2,0.6,2.4,1.2,3.2,1.6l-2.8,1.6c-0.9-0.6-2.5-1.5-3.9-2.3l1.2-1h-3.8l1.4,0.9c-1.2,0.9-3.4,1.9-5.1,2.3
		c-0.4-0.5-1.2-1.3-1.9-1.8v0.6h-3.4v0.9h-2.8v-8.1h6.2v6.5c1.2-0.3,2.6-0.8,3.6-1.3h-1.3v-8.9h2.2c-0.2-0.5-0.6-1-0.8-1.3
		c0.3-0.3,0.7-0.8,0.7-1.9v-0.3h-0.5c-0.3,1.7-0.8,3.1-2.5,4.1c-0.3-0.5-0.9-1.4-1.3-1.7c1.1-0.6,1.6-1.4,1.7-2.4h-1.2v-2h1.3
		c-0.4-0.3-1.1-0.8-1.5-1c0.4-0.8,0.6-1.9,0.7-2.9l1.9,0.4c0,0.3-0.1,0.6-0.1,0.8h0.4v-1.4h2.2v1.4h1.4v1.8c0.4-0.8,0.7-1.9,0.8-3
		l1.8,0.4c0,0.3-0.1,0.5-0.1,0.8h0.4v-1.4h2.2v1.4h2v2h-2v0.7h2.5v2h-1.6v1.1c0,0.3,0,0.4,0,0.5c0,0.1,0.1,0.1,0.1,0.1h0.1
		c0,0,0.1,0,0.1,0c0,0,0.1-0.1,0.1-0.2c0-0.1,0.1-0.4,0.1-0.7c0.3,0.3,0.8,0.6,1.3,0.7c0,0.5-0.1,1-0.3,1.2
		c-0.1,0.2-0.3,0.4-0.6,0.5c-0.2,0.1-0.5,0.2-0.8,0.2h-0.8c-0.5,0-0.9-0.2-1.2-0.5c-0.3-0.3-0.4-0.7-0.4-1.9v-1.1h-0.4
		c-0.2,1.4-0.5,2.6-1.6,3.5h4.1v8.9H598.2z M586.6,478.6h-6.1v-2.5h6.1V478.6z M580.5,479.3h6v2.5h-6V479.3z M584,485.2h-0.7v1.9
		h0.7V485.2z M589,472.6c-0.1,0.3-0.2,0.5-0.3,0.7h1.2v-0.7H589z M594.5,478.8c-0.2-0.4-0.6-0.8-0.8-1.1c-1.1,0.5-1.7,0.8-2.1,1.1
		H594.5z M596.6,481.3v-0.5h-4.8v0.5H596.6z M596.6,483.5V483h-4.8v0.5H596.6z M591.8,485.1v0.5h4.8v-0.5H591.8z M593,475.3v1
		l0.8-0.3c0,0.4,0.2,0.8,0.3,1.2c0.6-0.5,0.9-1.2,1-2h-1v-2h0.8c-0.4-0.3-0.9-0.6-1.3-0.8v0.1h-1.4v0.7h1.6v2H593z M595.5,472.6
		c-0.1,0.3-0.2,0.5-0.3,0.7h1.3v-0.7H595.5z"/>
	<path d="M617.1,485.5c2.5,0.8,5.4,1.8,7.1,2.5l-1.6,2.9c-2-1-6.3-2.6-9.1-3.6l1.1-1.9h-0.7c-1.1,2.6-3.6,4.4-9.8,5.4
		c-0.3-0.9-1-2.3-1.7-3c4.1-0.5,6.2-1.3,7.3-2.4h-6.2v-2.8h7.5c0-0.3,0.1-0.6,0.1-0.8h-8.2V479h8.7v-0.8h-6.6v-2.8h6.6v-0.8h-8v-2.9
		h4.1c-0.3-0.6-0.6-1.2-1-1.7l3-1.1c0.7,0.8,1.3,1.8,1.6,2.6l-0.6,0.3h4.5c0.6-0.8,1.1-2,1.5-2.8l3.6,0.9c-0.5,0.7-0.9,1.4-1.4,2
		h4.2v2.9h-8v0.8h6.9v2.8H615v0.8h9v2.9h-9.4c0,0.3-0.1,0.6-0.1,0.8h8.7v2.8H617.1z"/>
</g>
<text transform="matrix(1 0 0 1 129.4878 593.3478)" style="font-family:'SourceHanSansTC-Heavy-B5pc-H'; font-size:20.2855px;">建立信賴關係   〉  學會傾聽與提問   〉   正向回饋與讚美</text>
<g>
	<path class="st12" d="M216.7,447.7c-0.4,0-0.8-0.2-1-0.6c-0.3-0.5-0.1-1.2,0.4-1.5l80.7-45.1c0.5-0.3,1.1-0.1,1.5,0.3l13.8,19.6
		l108.2-61.1c0.5-0.3,1.1-0.2,1.4,0.3l13.3,17.1l60.7-35.2c0.5-0.3,1.2-0.1,1.5,0.4c0.3,0.5,0.1,1.2-0.4,1.5L435.3,379
		c-0.5,0.3-1.1,0.2-1.5-0.3l-13.3-17.1l-108.3,61.2c-0.5,0.3-1.1,0.1-1.5-0.3l-13.8-19.6l-79.8,44.6
		C217.1,447.6,216.9,447.7,216.7,447.7z"/>
</g>
<g>
	<path class="st12" d="M502.7,355c-0.5,0-0.8-0.2-1-0.6l-12.1-23.2c-0.2-0.4-0.2-0.8,0-1.1c0.2-0.3,0.6-0.5,1-0.5l26.1,1.1
		c0.4,0,0.8,0.2,0.9,0.6c0.2,0.4,0.2,0.8,0,1.1l-14,22C503.5,354.8,503.1,355,502.7,355z M492.6,331.9l10.3,19.7l11.9-18.7
		L492.6,331.9z"/>
</g>
<g>
	<g>
		<path class="st4" d="M291,334.7h-55.7c-1.1,0-2-0.9-2-2v-21.1c0-1.1,0.9-2,2-2H291c1.1,0,2,0.9,2,2v21.1
			C293,333.8,292.1,334.7,291,334.7z"/>
	</g>
	<g>
		<path class="st4" d="M320.9,368.5h-55.7c-1.1,0-2-0.9-2-2v-21.1c0-1.1,0.9-2,2-2h55.7c1.1,0,2,0.9,2,2v21.1
			C322.9,367.5,322,368.5,320.9,368.5z"/>
	</g>
	<g>
		<path class="st13" d="M281.4,318.9h-36.8c-0.4,0-0.7-0.3-0.7-0.7c0-0.4,0.3-0.7,0.7-0.7h36.8c0.4,0,0.7,0.3,0.7,0.7
			C282.1,318.5,281.8,318.9,281.4,318.9z"/>
	</g>
	<g>
		<path class="st13" d="M281.6,326.8h-36.8c-0.4,0-0.7-0.3-0.7-0.7c0-0.4,0.3-0.7,0.7-0.7h36.8c0.4,0,0.7,0.3,0.7,0.7
			C282.4,326.5,282,326.8,281.6,326.8z"/>
	</g>
	<g>
		<path class="st13" d="M311.4,356.6h-36.8c-0.4,0-0.7-0.3-0.7-0.7c0-0.4,0.3-0.7,0.7-0.7h36.8c0.4,0,0.7,0.3,0.7,0.7
			C312.1,356.3,311.8,356.6,311.4,356.6z"/>
	</g>
</g>
</svg>
