<?xml version="1.0" encoding="utf-8"?>
<!-- Generator: Adobe Illustrator 26.5.0, SVG Export Plug-In . SVG Version: 6.00 Build 0)  -->
<svg version="1.1" id="圖層_1" xmlns="http://www.w3.org/2000/svg" xmlns:xlink="http://www.w3.org/1999/xlink" x="0px" y="0px"
	 viewBox="0 0 360 705" style="enable-background:new 0 0 360 705;" xml:space="preserve">
<style type="text/css">
	.st0{fill:#221E1F;}
	.st1{fill:#B4171D;}
	.st2{fill:#FFFFFF;}
	.st3{fill:#020000;}
	.st4{fill:#F27320;}
	.st5{fill:#DDDEE0;}
	.st6{fill:none;stroke:#FFFFFF;stroke-width:0.4361;stroke-miterlimit:10;}
	.st7{fill:#DDDEE0;stroke:#FFFFFF;stroke-width:0.4361;stroke-miterlimit:10;}
	.st8{fill:none;stroke:#FFFFFF;stroke-width:0.3757;stroke-miterlimit:10;}
	.st9{fill:#DDDEE0;stroke:#FFFFFF;stroke-width:0.4361;stroke-miterlimit:10;stroke-dasharray:5.9845,3.7437;}
	.st10{fill:none;stroke:#FFFFFF;stroke-width:0.4361;stroke-miterlimit:10;stroke-dasharray:5.9845,3.7437;}
	.st11{fill:#4F4F51;}
	.st12{fill:#061623;}
	.st13{fill:#000613;}
	.st14{fill:#DEDEDE;}
	.st15{fill:#000414;}
	.st16{clip-path:url(#SVGID_00000082336866893868249220000004954447804721239991_);}
	.st17{fill:none;stroke:#FFFFFF;stroke-width:0.8722;stroke-miterlimit:10;}
	.st18{fill:#D3171F;}
	.st19{fill:none;stroke:#221E1F;stroke-width:0.3824;stroke-miterlimit:10;}
	.st20{opacity:0.4;fill:#FFFFFF;enable-background:new    ;}
	.st21{opacity:0.2;fill:#FFFFFF;enable-background:new    ;}
	.st22{opacity:0.4;fill:#221E1F;enable-background:new    ;}
	.st23{opacity:0.2;fill:#221E1F;enable-background:new    ;}
	.st24{fill:none;stroke:#221E1F;stroke-width:0.8722;stroke-miterlimit:10;}
	.st25{fill:none;stroke:#221E1F;stroke-width:2.0235;stroke-miterlimit:10;}
	.st26{fill:none;stroke:#221E1F;stroke-width:2.0704;stroke-miterlimit:10;}
	.st27{fill:#DDDEE0;stroke:#FFFFFF;stroke-width:0.6796;stroke-miterlimit:10;}
</style>
<g>
	<g>
		<g>
			<g>
				<path class="st0" d="M86.6,654.2c-0.2,1.5-1.4,2.6-2.7,3.2c-0.4-0.5-0.7-0.9-1.1-1.2c1-0.2,1.7-1,2-1.8h-2.1v-1.6h2.2v-1.6h1.7
					v1.6h0.9v-1.7h1.7v1.7h1.4v-1.7h1.7v1.7h1v-1.7H95v1.7h2.2v1.5H95v0.6c0,0.5,0,0.6,0.4,0.6h1c0.4,0,0.6,0,1-0.1
					c0,0.5,0,1,0.1,1.5c-0.4,0.1-0.7,0.1-1,0.1h-1.2c-1.6,0-1.8-0.6-1.8-2.1v-0.5h-1v2.6h-4.8v-2.6L86.6,654.2z M82.8,657.4h14.3
					v3.6h-1.6v2.6c0,0.9-0.1,1.4-0.9,1.6c-0.9,0.2-1.7,0.4-2.7,0.2c-0.1-0.6-0.4-1.1-0.6-1.7c0.7,0,1.6,0,1.8,0s0.4,0,0.4-0.2v-1.7
					h-2.8v4.6h-2v-4.6h-2.6v3.6h-2v-4.6h-1.6v-3.4L82.8,657.4L82.8,657.4z M84.6,659v1.2h4.3v-1h2v1h4.3V659H84.6z M89.3,654.2v1.1
					h1.4v-1.1H89.3z"/>
				<path class="st0" d="M107.8,650.9c0,0.7,0,1.6-0.1,2.6c0.2,2.2,1.2,8.5,7,11.1c-0.6,0.5-1.1,1.1-1.5,1.7
					c-3.7-1.7-5.5-4.9-6.4-7.9c-1,3.3-3.1,6.2-6,8c-0.5-0.6-1-1.2-1.6-1.6c6.6-3.6,6.4-11.1,6.4-13.9L107.8,650.9L107.8,650.9z"/>
				<path class="st0" d="M122.2,654.7c-0.2,0.5-0.4,0.9-0.6,1.4h7.6v8.2c0,1-0.2,1.5-0.9,1.8c-1,0.2-2,0.4-3,0.4
					c-0.1-0.6-0.4-1.4-0.6-2c0.9,0,1.8,0,2.1,0s0.4-0.1,0.4-0.4v-1H121c-0.2,1.2-0.9,2.5-1.8,3.3c-0.4-0.6-0.9-1.1-1.5-1.5
					c1.5-1.2,1.5-3.1,1.5-4.6v-1.5c-0.6,0.6-1.4,1.2-2.1,1.8c-0.4-0.5-0.9-1.1-1.2-1.5c1.7-1.2,3.1-2.8,3.9-4.7h-3.6v-1.6h4.4
					c0.2-0.7,0.5-1.4,0.6-2l2,0.5c-0.1,0.5-0.4,1-0.5,1.6h8v1.8H122.2z M127.2,661.5v-1.1h-5.9c0,0.4,0,0.7,0,1.1H127.2z
					 M127.2,657.8h-5.9v1.1h5.9V657.8z"/>
				<path class="st0" d="M139.6,655.4c0,0.6-0.1,1.4-0.1,2h7c0,0.2,0,0.6-0.1,0.9c-0.2,4.6-0.6,6.4-1.4,7c-0.5,0.5-1.1,0.7-1.7,0.7
					c-1,0-1.8,0-2.8,0c-0.1-0.7-0.4-1.4-0.7-2c1.1,0.1,2.2,0.1,2.7,0.1c0.2,0,0.6,0,0.9-0.2c0.4-0.4,0.7-1.8,1-4.8h-5.2
					c-0.6,2.8-1.7,5.4-4.7,7.1c-0.4-0.6-0.9-1.2-1.5-1.6c3.9-2.1,4.3-5.9,4.4-9.4h-4.2v-2h6.9c-0.2-0.6-0.6-1.5-1-2.1l2-0.7
					c0.5,0.7,0.9,1.6,1.2,2.3l-1.1,0.5h6.8v2L139.6,655.4z"/>
				<path class="st0" d="M152.9,658.6c-1-0.7-2-1.4-3.1-1.8l1-1.5c1.1,0.4,2.1,1,3.1,1.6L152.9,658.6z M150.4,664.8
					c1.1-1.7,2.2-3.4,3.1-5.3l1.5,1.4c-0.9,1.7-2,3.6-3,5.3L150.4,664.8z M153.8,654.3c-1-0.7-2-1.4-3.1-1.8l1.1-1.5
					c1.1,0.5,2.1,1,3.1,1.7L153.8,654.3z M163.2,666.3c-0.1-0.5-0.4-1-0.6-1.5c-5.4,0.6-6.3,0.7-6.9,1.1c-0.2-0.6-0.5-1.4-0.7-2
					c0.4-0.1,0.7-0.5,1.1-1.1c0.6-1.1,1.2-2.3,1.7-3.6h-3.1v-1.8h3.9v-2.3h-3.2v-1.8h3.2v-2.5h2v2.5h3.3v1.8h-3.3v2.3h3.9v1.8h-4.4
					c-0.6,1.5-1.5,3-2.3,4.3l3.8-0.4c-0.4-0.6-0.7-1.2-1.1-1.7l1.6-0.7c1.1,1.5,2.1,3.1,2.7,4.7L163.2,666.3z"/>
				<path class="st0" d="M172.3,659.6c1.2-0.4,2-1.1,2.1-2h-0.1c-0.9,0-1.5-0.6-1.6-1.4v-0.1c0-0.9,0.6-1.5,1.5-1.5h0.1
					c1.1,0,1.7,0.9,1.7,2.3c0,2-1.4,3.6-3.2,4.1L172.3,659.6z"/>
				<path class="st0" d="M198.2,660.2c-0.9,0.7-2,1.4-3,2c1.1,1,2.3,1.6,3.7,2c-0.5,0.5-1,1.1-1.2,1.7c-3.4-1.2-5.4-3.6-6.6-7
					c-0.6,0.6-1.4,1.2-2.1,1.8v2.8l3.6-1c0,0.6,0.1,1.2,0.4,1.7c-4.7,1.5-5.4,1.6-5.9,2c-0.1-0.6-0.5-1.2-0.9-1.7
					c0.5-0.2,0.9-0.7,0.9-1.4v-1.2c-0.7,0.4-1.5,0.7-2.2,1c-0.4-0.6-0.7-1.1-1.2-1.6c1.8-0.6,3.7-1.5,5.3-2.7h-4.9v-1.7h6.3v-1h-4.7
					v-1.6h4.7v-0.9h-5.5v-1.7h5.5v-1.1h2v1.2h5.7v1.6h-5.7v0.9h5v1.6h-5v1h6.3v1.7h-5.5c0.4,0.9,0.7,1.6,1.2,2.2
					c0.9-0.6,1.7-1.2,2.5-2L198.2,660.2z"/>
				<path class="st0" d="M204.9,658.6c-0.2,1.5-0.7,3-1.4,4.3c0.2,0.1,0.6,0.4,1,0.6c1.1,0.7,2.7,0.7,4.6,0.7c2.2,0,4.4-0.1,6.6-0.4
					c-0.2,0.6-0.5,1.4-0.6,2c-1.4,0.1-4.3,0.2-6.2,0.2c-2.2,0-3.6-0.1-4.8-0.9c-0.7-0.4-1.2-1-1.6-1s-1,1.1-1.4,2.1l-1.4-1.8
					c0.5-0.6,1.1-1.1,1.7-1.6c0.4-1,0.7-1.8,1-2.8h-2.1c0.4-1,0.9-2.3,1.2-3.6H200v-1.6h3.8c-0.4,1.1-0.7,2.5-1.1,3.7h0.6l0.2-0.1
					L204.9,658.6z M202.2,654.2c-0.2-0.7-0.6-2-0.9-2.8l1.7-0.5c0.2,0.9,0.7,2,1,2.7L202.2,654.2z M206.9,655.4h-2.1V654h4.3v-0.9
					h-3.2v-1.3h3.2v-1h2v1h3.4v1.4h-3.4v0.9h4.4v1.5h-2.2l0.4,0.1c-0.2,0.5-0.5,0.9-0.7,1.2h2.5v1.5h-4.2v0.7h3.6v1.4h-3.6v0.7h4.2
					v1.5h-4.2v1.4h-2v-1.4h-4.1v-1.5h4.1v-0.7h-3.4v-1.4h3.4v-0.7h-4.1v-1.5h2.1c-0.1-0.5-0.2-0.9-0.5-1.4L206.9,655.4z
					 M211.1,656.6c0.2-0.4,0.4-0.9,0.5-1.2h-3.1c0.2,0.4,0.4,0.9,0.5,1.2l-0.5,0.1h2.8L211.1,656.6z"/>
				<path class="st0" d="M231.4,664c0,1.1-0.2,1.6-0.9,1.8s-1.7,0.4-3.2,0.4c-0.1-0.6-0.4-1.2-0.6-1.8c0.9,0,2,0,2.3,0
					c0.4,0,0.4-0.1,0.4-0.4v-2.5H226v4.7h-2v-4.8h-3.3c-0.2,1.8-1,3.6-2.1,4.9c-0.5-0.5-1-1-1.6-1.2c1.8-2,2-4.9,2-7.3v-5.9h12.4
					L231.4,664L231.4,664z M224,659.6v-2.1h-3.1v0.2c0,0.5,0,1.1,0,1.7h3.1V659.6z M220.9,653.8v2h3.1v-2H220.9z M229.6,653.8h-3.4
					v2h3.4V653.8z M229.6,659.6v-2.1h-3.4v2.1H229.6z"/>
				<path class="st0" d="M239.8,659.7c-0.6,0.1-1.1,0.4-1.7,0.5v3.9c0,1-0.2,1.5-0.7,1.7c-0.7,0.4-1.6,0.4-2.5,0.4
					c-0.1-0.6-0.4-1.2-0.6-1.8c0.6,0,1.4,0,1.5,0c0.2,0,0.4-0.1,0.4-0.4v-3.4l-1.6,0.4l-0.5-1.8c0.6-0.1,1.4-0.2,2.1-0.5v-3h-1.8
					v-1.9h1.8v-3.2h2v3.2h1.6v1.8h-1.6v2.5l1.5-0.4L239.8,659.7z M248.9,657.4c-0.5,2.1-1.6,3.9-3.1,5.5c1.1,0.7,2.5,1.4,3.8,1.7
					c-0.5,0.5-0.9,1.1-1.2,1.7c-1.5-0.4-2.8-1.1-4.1-2.1c-1.4,0.9-2.8,1.6-4.3,2.1c-0.2-0.6-0.6-1.2-1.1-1.8
					c1.4-0.4,2.7-0.9,3.9-1.6c-1-1.2-1.8-2.5-2.3-3.9l0.5-0.1h-0.9v-1.7h3.2v-2h-3.6v-1.8h3.6v-2.3h2v2.3h3.7v1.8h-3.7v2h2l0.4-0.1
					L248.9,657.4z M242.5,658.7c0.5,1.1,1.1,2.1,2,3c0.9-0.9,1.6-1.8,2.1-3H242.5z"/>
				<path class="st0" d="M255.2,660.8c0.7-0.1,1.5-0.2,2.1-0.4l0.2,1.8c-2.1,0.5-4.6,1-6.3,1.4l-0.4-2c0.6-0.1,1.5-0.2,2.3-0.4v-6.3
					H251v-2.1h6v2h-1.8V660.8z M261.3,653.7c-0.2,1.1-0.5,2.3-0.6,3.4h5.3v0.9c-0.2,4.6-0.5,6.5-1.2,7.1c-0.5,0.5-1.1,0.9-1.8,0.9
					c-1,0-2.1,0-3.1,0c-0.1-0.7-0.4-1.5-0.9-2.1c1.4,0.1,2.6,0.1,3.2,0.1c0.2,0,0.6,0,0.9-0.2c0.4-0.4,0.6-1.8,0.9-4.9h-5.7
					c0.4-1.5,0.9-3.4,1.2-5.3h-2v-2h9v2L261.3,653.7z"/>
				<path class="st0" d="M273.5,659.6c1.2-0.4,2-1.1,2.1-2h-0.1c-0.9,0-1.5-0.6-1.6-1.4v-0.1c0-0.9,0.6-1.5,1.5-1.5h0.1
					c1.1,0,1.7,0.9,1.7,2.3c0,2-1.4,3.6-3.2,4.1L273.5,659.6z"/>
			</g>
			<g>
				<path class="st0" d="M71.5,685.8c0.4,0,0.9,0,1.4,0c1,0,4.1,0,5.3,0c-0.4,0.6-0.5,1.2-0.6,1.8h-4.7c-3,0-5-0.5-6.4-2.3
					c-0.5,1.1-1.4,2-2.3,2.7c-0.4-0.5-1-1-1.5-1.4c1.7-1.1,2.8-3,3.1-5l2,0.2c-0.1,0.5-0.2,1-0.4,1.5c0.5,1,1.4,1.7,2.3,2.1v-4.3
					h-6.4v-1.7h14.5v1.7h-6.2v1.2h5v1.7h-5L71.5,685.8z M76,678.7H64.6v-5.8H76V678.7z M74.1,674.4h-7.5v0.9h7.5V674.4z M74.1,676.5
					h-7.5v0.9h7.5V676.5z"/>
				<path class="st0" d="M93.9,678.2c-0.6,2.1-1.6,3.9-2.8,5.7c0.5,1.2,1,1.8,1.5,1.8c0.4,0,0.6-0.9,0.6-3c0.5,0.5,1,0.9,1.6,1.1
					c-0.4,3.1-1,3.8-2.5,3.8c-1.1,0-2.1-0.9-2.8-2.2c-0.9,0.9-1.7,1.6-2.8,2.2c-0.4-0.6-0.9-1.1-1.5-1.6c1.2-0.7,2.3-1.6,3.3-2.7
					c-0.6-2.2-1-4.4-1.1-6.6h-4.8v1.7h4.1c0,0,0,0.5,0,0.7c0,3.4-0.1,4.9-0.5,5.4c-0.2,0.4-0.6,0.6-1.1,0.6c-0.6,0-1.2,0.1-1.8,0
					c0-0.6-0.2-1.2-0.5-1.8c0.6,0,1.1,0.1,1.5,0.1c0.2,0,0.4,0,0.5-0.2s0.2-1,0.2-3.1h-2c-0.1,2.5-0.4,5.7-1.7,7.8
					c-0.5-0.5-1.1-1-1.6-1.4c1.2-2,1.4-4.9,1.4-7v-4.8h6.8c0-0.9-0.1-1.6-0.1-2.5h2.1c0,0.9,0,1.6,0,2.5h2.5c-0.7-0.5-1.4-1-2.1-1.5
					l1.2-1.2c1,0.5,1.8,1.1,2.7,1.7l-0.7,0.9H95v2h-5c0.1,1.5,0.4,3.1,0.6,4.6c0.6-1.1,1.2-2.5,1.6-3.7L93.9,678.2z"/>
				<path class="st0" d="M111.4,681.3c0,0,0,0.5,0,0.7c-0.2,3.2-0.6,4.6-1.1,5.2c-0.4,0.4-0.9,0.6-1.4,0.6c-0.6,0-1.2,0-2,0
					c0-0.6-0.2-1.2-0.5-1.7c0.6,0.1,1.4,0.1,1.6,0.1s0.4,0,0.6-0.1c0.2-0.2,0.5-1.1,0.6-3h-9.9c-0.2,0.2-0.6,0.4-0.9,0.6l1.5,0.5
					c-0.2,1.5-1,2.8-2,3.8l-1.5-1c0.9-0.9,1.6-2,1.8-3.2c-0.4,0.2-0.7,0.5-1.2,0.6c-0.2-0.6-0.6-1.2-1-1.7c2.6-1.2,4.8-3.2,6.3-5.7
					H97v-1.7h2.7c-0.2-0.7-0.6-1.5-1-2.1l1.6-0.7c0.5,0.7,1,1.6,1.2,2.5l-0.9,0.4h2.5c0.5-0.9,0.9-1.8,1.1-2.8l2,0.5
					c-0.2,0.7-0.6,1.6-1,2.3h3.2c-0.1,1-0.4,2.1-0.6,3.1h1.8c-0.2,1-0.4,2.1-0.6,3.1L111.4,681.3z M102.4,684c0.2,1,0.4,2,0.5,3.1
					l-1.7,0.2c0-1-0.1-2.1-0.4-3.1L102.4,684z M102.7,679.9c-0.4,0.5-0.9,1-1.2,1.4h6.3c0.1-0.4,0.2-0.9,0.2-1.4H102.7z
					 M104.8,683.7c0.4,0.9,0.6,1.7,0.9,2.7l-1.6,0.5c-0.1-1-0.4-1.8-0.7-2.8L104.8,683.7z M104.8,677c-0.2,0.5-0.5,0.9-0.7,1.4h2.5
					c0.1-0.4,0.2-0.9,0.2-1.4H104.8z M106.7,686.1c-0.2-0.9-0.6-1.6-1-2.3l1.4-0.5c0.5,0.7,0.9,1.5,1.1,2.2L106.7,686.1z"/>
				<path class="st0" d="M119.5,676.2c-0.2,0.5-0.4,0.9-0.6,1.4h7.6v8.2c0,1-0.1,1.5-0.9,1.8c-1,0.4-2,0.4-3,0.4
					c-0.1-0.6-0.4-1.4-0.6-2c0.9,0,1.8,0,2.1,0s0.4-0.1,0.4-0.4v-1h-6.2c-0.2,1.2-0.9,2.5-1.8,3.3c-0.4-0.6-0.9-1.1-1.5-1.5
					c1.5-1.2,1.5-3.1,1.5-4.6v-1.4c-0.6,0.6-1.4,1.2-2.1,1.8c-0.4-0.5-0.9-1.1-1.2-1.5c1.7-1.2,3.1-2.8,3.9-4.7h-3.4v-1.8h4.4
					c0.2-0.7,0.5-1.4,0.6-2l2,0.5c-0.1,0.5-0.4,1-0.5,1.6h8v1.8L119.5,676.2z M124.5,683.1V682h-5.9c0,0.4,0,0.7,0,1.1H124.5z
					 M124.5,679.3h-5.9v1.1h5.9V679.3z"/>
				<path class="st0" d="M133.5,684.6c-0.5,1-1.1,2-1.7,2.8c-0.4-0.4-0.9-0.7-1.4-1c0.6-0.7,1.1-1.5,1.5-2.3L133.5,684.6z
					 M139.6,680h-9.2v-1.5h3.7c-0.1-0.2-0.1-0.4-0.2-0.5l1.2-0.2H131V673h8v4.8h-3.1c0.1,0.2,0.2,0.5,0.4,0.7h3.4L139.6,680z
					 M136,684v2.2c0,0.9-0.1,1.2-0.6,1.5c-0.6,0.2-1.4,0.2-2.1,0.2c-0.1-0.5-0.2-1.1-0.5-1.6c0.5,0,1,0,1.1,0s0.2,0,0.2-0.2V684
					h-2.7v-3.4h7.4v3.4H136L136,684z M132.9,674.7h4.1v-0.6h-4.1V674.7z M132.9,676.6h4.1V676h-4.1V676.6z M133.2,682.8h3.7v-0.9
					h-3.7V682.8z M145.5,682.5c-1.2,2.2-3.1,4.1-5.3,5.3c-0.4-0.6-0.9-1.1-1.4-1.5c0,0.1,0.1,0.2,0.1,0.4l-1.5,0.7
					c-0.4-1-0.9-1.8-1.4-2.7l1.5-0.6c0.4,0.6,0.9,1.5,1.2,2.2c2-1,3.7-2.5,4.8-4.4L145.5,682.5z M144.7,673.4
					c-1.2,1.6-2.6,3-4.3,4.1c-0.4-0.5-0.9-1-1.4-1.4c1.5-0.9,2.8-2,3.8-3.4L144.7,673.4z M145.1,677.9c-1.2,1.7-2.8,3.2-4.7,4.3
					c-0.4-0.5-0.9-1-1.4-1.4c1.6-0.9,3.1-2.1,4.2-3.7L145.1,677.9z"/>
				<path class="st0" d="M152.2,676.3c-0.9,1.8-2.5,3.2-4.4,3.9c-0.1-0.5-0.4-0.9-0.7-1.2c1.1-0.4,2.1-1,3-1.7
					c-0.7,0-1.6,0.1-2.3,0.4l0,0c-0.1-0.4-0.2-0.7-0.4-1.1c0.4-0.1,0.7-0.2,1-0.5c0.2-0.1,0.5-0.4,0.7-0.6c-0.5,0-0.9,0.1-1.4,0.2
					c-0.1-0.2-0.2-0.9-0.4-1.2c0.2,0,0.5-0.2,0.6-0.4c0.6-0.5,1.1-1.1,1.5-1.7l1.1,0.7c-0.5,0.6-1,1.1-1.5,1.6h1
					c0.2-0.2,0.6-0.6,0.9-1l1,0.7c-0.7,0.9-1.7,1.6-2.6,2.3l1.4-0.1c0.1-0.2,0.2-0.5,0.4-0.7l1.1,0.2v-2.7h1.5
					c0-0.2-0.1-0.5-0.2-0.6l1.6-0.4c0.2,0.4,0.4,0.6,0.4,1h1.6v3.8h-0.6c0.4,0.4,0.7,0.9,1.1,1.2v-5.5h3.3l0.2-0.1l1.1,0.5
					c-0.4,0.9-0.7,1.6-1.1,2.5c0.6,0.5,1,1.1,1.1,1.8c0,0.5-0.2,1-0.6,1.4c-0.2,0.1-0.5,0.2-0.9,0.2s-0.7,0-1.1,0
					c0-0.5-0.1-0.9-0.4-1.4c0.4,0,0.6,0,1,0c0.1,0,0.2,0,0.4-0.1c0.1-0.1,0.2-0.2,0.2-0.5c0-0.4-0.4-0.9-1.1-1.5
					c0.2-0.6,0.5-1.2,0.7-1.8h-1.1v5.5h-1.6v-0.9l-1,0.5c-0.1-0.2-0.2-0.5-0.4-0.7c-3.2,0.7-3.7,0.9-4.1,1c-0.1-0.5-0.2-0.9-0.6-1.2
					c0.4-0.1,0.6-0.6,0.6-1.1V676.3z M158.6,681.3c-0.2,0.4-0.5,0.6-0.7,0.9h4.2v1.2h-14.9v-1.2h4.2c-0.1-0.2-0.2-0.5-0.5-0.7
					l0.5-0.1h-2.5v-1.2h4.8c-0.1-0.2-0.1-0.4-0.2-0.5l1.8-0.4c0.1,0.4,0.2,0.6,0.4,1h4.8v1.2L158.6,681.3z M149.5,683.9h10.6v4.1
					h-1.8v-0.4h-6.9v0.4h-1.8v-4.1H149.5z M151.4,684.8v0.5h6.9v-0.5H151.4z M158.3,686.6v-0.5h-6.9v0.5H158.3z M152.7,681.3
					c0.1,0.2,0.4,0.5,0.4,0.9l-0.4,0.1h3.3h-0.1c0.2-0.2,0.4-0.6,0.5-0.9L152.7,681.3z M155.6,674.1h-1.7v0.6h1.7V674.1z
					 M155.6,675.6h-1.7v0.5h1.7V675.6z M155.3,677.6l-0.4-0.4l0.4-0.1h-1.5v0.9L155.3,677.6z"/>
				<path class="st0" d="M178.3,675.9c0,0,0,0.7,0,1c-0.4,6.6-0.6,9.1-1.4,10c-0.4,0.5-1,0.9-1.7,1c-0.9,0.1-1.7,0.1-2.6,0
					c-0.1-0.7-0.4-1.5-0.7-2.1c1,0.1,2,0.1,2.5,0.1c0.2,0,0.6-0.1,0.7-0.2c0.5-0.5,0.9-2.7,1.1-7.6h-4.6c-0.2,3.4-1.5,7.5-6,10.1
					c-0.4-0.6-1-1.1-1.5-1.6c3.2-1.6,5.3-4.9,5.4-8.5h-4.9v-2h5v-3.4h2.1v3.4L178.3,675.9z"/>
				<path class="st0" d="M195.8,685.5v2H181v-2h6.3v-3.2h-4.7v-2h4.7v-2.8h-5.5v-2h6.6c-0.7-0.7-1.6-1.4-2.5-2l1.6-1.1
					c1.1,0.7,2.2,1.6,3.2,2.5l-0.9,0.6h5.2v2h-5.5v2.8h4.7v2h-4.7v3.2H195.8L195.8,685.5z"/>
				<path class="st0" d="M212.8,674.9H210c0.5,0.4,0.9,0.7,1.2,1.1l-1.1,1h2.2v3h-2v-1.5h-10.2v1.5h-1.8v-3h0.6
					c-0.4-0.5-0.9-0.9-1.2-1.2c1.1-1,1.8-2.2,2.3-3.4l1.7,0.5c-0.1,0.2-0.2,0.5-0.2,0.6h3.6v1.4c0.7-0.7,1.4-1.6,1.7-2.6l1.7,0.5
					c-0.1,0.2-0.1,0.5-0.2,0.7h4.6L212.8,674.9z M202.5,677.1c-0.5-0.6-1-1.1-1.5-1.6l0.6-0.5h-1c-0.5,0.7-1,1.5-1.6,2.1H202.5z
					 M202.2,683.7h8.9v4.3h-2v-0.5h-6.9v0.5h-2v-8.7h10v3.7h-8V683.7z M202.2,680.7v0.9h6.2v-0.9H202.2z M202.2,685.1v1h6.9v-1
					H202.2z M205.7,675.7c-0.2-0.2-0.6-0.5-0.9-0.7l0.1-0.1h-2.1c0.4,0.4,0.6,0.6,1,1l-1.2,1.1h1.8c-0.1-0.4-0.2-0.6-0.4-1
					L205.7,675.7z M209.7,677.1c-0.5-0.5-1.1-1-1.6-1.5l0.7-0.6h-1.5c-0.4,0.5-0.7,0.9-1.1,1.4c-0.1-0.1-0.2-0.2-0.5-0.4
					c0.2,0.4,0.5,0.7,0.6,1.2h3.3v-0.1L209.7,677.1L209.7,677.1z"/>
				<path class="st0" d="M229.4,675c0,0,0,0.6,0,0.9c-0.2,7.4-0.4,10.1-1.1,11c-0.4,0.5-1,0.9-1.6,0.9c-0.9,0.1-1.7,0.1-2.6,0
					c-0.1-0.7-0.2-1.4-0.6-2c1.1,0.1,2,0.1,2.5,0.1c0.2,0,0.5-0.1,0.7-0.2c0.5-0.5,0.7-3.1,0.9-8.9H224c-0.4,1-0.9,1.8-1.5,2.6
					c-0.4-0.4-0.9-0.6-1.2-1v7.8h-4.4v1.2h-1.7v-12.3h1.8c0.2-0.9,0.4-1.7,0.5-2.7l2.1,0.2c-0.2,0.9-0.6,1.7-0.9,2.3h2.6v2.7
					c1-1.6,1.8-3.4,2.2-5.4l1.8,0.4c-0.1,0.7-0.4,1.5-0.6,2.1L229.4,675z M219.6,676.8H217v2.7h2.6V676.8z M219.6,684.5v-3.3H217
					v3.2L219.6,684.5L219.6,684.5z M225,683.6c-0.7-1.4-1.5-2.6-2.3-3.8l1.5-0.9c0.9,1.2,1.7,2.5,2.5,3.7L225,683.6z"/>
				<path class="st0" d="M239.9,675.2v1.5h5.9v9.1c0,0.9-0.2,1.4-0.9,1.7c-0.9,0.2-1.7,0.4-2.6,0.2c-0.1-0.6-0.4-1.2-0.6-1.7
					c0.7,0,1.6,0,1.7,0c0.1,0,0.4-0.1,0.4-0.4v-1.1c-0.2,0.1-0.6,0.4-0.9,0.6c-0.5-0.6-0.7-1.4-1-2.1c-0.2,0.7-0.6,1.5-1.1,2.1
					c-0.2-0.2-0.6-0.5-1-0.7v3.2H238v-2.8c-0.2,0.1-0.4,0.4-0.6,0.5c-0.5-0.6-0.9-1.4-1-2.1c-0.2,0.9-0.7,1.6-1.2,2.2
					c-0.2-0.2-0.5-0.5-0.9-0.6v2.8h-1.8v-11.2h5.5v-1.5h-6.2v-2h14.3v2L239.9,675.2z M237.1,679.3c0,1.7,0.1,3.4,1,4.8v-5.7h-3.7
					v6.2c0.9-1.2,1.4-2.6,1.5-4.1H235v-1.4h2.1V679.3z M239.9,678.6v6.2c0.9-1.2,1.4-2.6,1.6-4.1h-1v-1.4h2.1c0,1.8,0.1,3.6,1.1,4.9
					v-5.8L239.9,678.6z"/>
				<path class="st0" d="M257.4,678.9c1.1,3.2,3.1,5.9,6.2,7.1c-0.6,0.5-1,1.2-1.5,1.8c-3-1.5-4.9-3.8-6.2-7c-1,3.1-3.2,5.7-6.2,7
					c-0.4-0.6-0.9-1.2-1.5-1.7c3.1-1.2,5.3-4.1,6-7.3h-5.7v-2h6c0.1-1.6,0.1-3.1,0.1-4.4h2.1c0,1.4,0,2.8-0.2,4.4h6.5v2.1
					L257.4,678.9L257.4,678.9z"/>
				<path class="st0" d="M272,680.9c0.2,0.6,0.5,1.2,0.7,1.8l-0.6,0.2h0.2v1.6c0,1.4-0.4,2.6-2.3,3.3c-0.2-0.4-0.5-0.7-0.9-1.1
					c0.6-0.1,1.2-0.5,1.6-1h-2v-2.5h1.2v1.5h1V683h0.7c0-0.1-0.1-0.2-0.1-0.4c-2.2,0.2-2.7,0.4-3,0.5l0,0c-0.1-0.4-0.2-0.7-0.4-1.1
					c0.4-0.1,0.6-0.2,0.9-0.5c0.1-0.1,0.4-0.4,0.7-0.6c-0.4,0-0.7,0.1-1.1,0.2l0,0c-0.1-0.4-0.2-0.7-0.4-1.1c0.2,0,0.4-0.1,0.5-0.2
					c0.4-0.4,0.7-0.7,1-1.2h-2.1v9.5H266v-14.9h6.3v5.4h-1.7l0.6,0.4c-0.4,0.5-0.7,0.9-1.1,1.2h0.9c0.2-0.2,0.4-0.5,0.6-0.7l1,0.6
					c-0.6,0.7-1.4,1.4-2.1,2l1-0.1c0-0.1-0.1-0.4-0.2-0.5L272,680.9z M267.7,674.4v0.7h2.6v-0.9L267.7,674.4z M267.7,677.1h2.6v-0.7
					h-2.6V677.1z M279.8,685.6c0,1-0.1,1.5-0.7,1.8c-0.7,0.4-1.6,0.5-2.5,0.4c-0.1-0.5-0.2-1.1-0.4-1.6h-0.7v-0.5h-1v2h-1.4v-4.8
					l0,0c-0.1-0.2-0.2-0.7-0.4-1c0.4,0,0.6-0.2,0.9-0.5c0.2-0.2,0.5-0.4,0.7-0.6c-0.4,0-0.7,0.1-1.1,0.2c-0.1-0.4-0.2-0.7-0.4-1.1
					c0.2,0,0.4-0.1,0.5-0.2c0.4-0.4,0.7-0.7,1-1.2h-1v-5.4h6.5v12.6l0,0V685.6z M276.7,686c0.2,0,0.6,0,0.9,0s0.2-0.1,0.2-0.2v-7.1
					h-3l0.6,0.4c-0.4,0.5-0.7,0.9-1.1,1.2h0.9c0.2-0.2,0.5-0.5,0.6-0.7l1,0.7c-0.6,0.7-1.4,1.4-2.1,2l1-0.1
					c-0.1-0.2-0.1-0.4-0.2-0.5l1-0.2c0.2,0.6,0.5,1.2,0.7,1.8l-1,0.4c0-0.1-0.1-0.4-0.1-0.5c-0.9,0.1-1.8,0.2-2.7,0.4h1.1v1.7h1
					v-1.5h1.2V686z M275.1,674.4v0.7h2.7v-0.7H275.1z M275.1,677.1h2.7v-0.7h-2.7V677.1z"/>
				<path class="st0" d="M290.8,678.3c0,2-0.4,3.9-0.9,5.9c1.2,1.5,2.8,1.7,4.6,1.7c0.5,0,2.2,0,3,0c-0.2,0.5-0.4,1.1-0.5,1.6h-2.5
					c-2.1,0-3.7-0.4-5-1.8c-0.5,0.9-1.1,1.6-1.8,2.2c-0.2-0.5-0.5-1-0.9-1.4c0.2-0.1,0.4-0.2,0.6-0.5c-1.6,0.5-3.4,0.9-4.7,1.2
					l-0.4-1.7l2.1-0.5v-3.9h-2v-1.7h2v-1.2h-1.2v-0.6c-0.2,0.2-0.4,0.4-0.5,0.5c-0.1-0.7-0.4-1.4-0.6-2c1.2-1.1,2.1-2.3,2.7-3.8
					l1.2,0.6c-0.1,0.2-0.1,0.4-0.2,0.6c0.7,0.5,1.5,1.1,2.1,1.8l-0.6,1.6c-0.6-0.7-1.4-1.5-2.2-2.1c-0.2,0.5-0.6,1.1-1,1.6h2.7v1.6
					h-1v1.2h1.5v1.7h-1.5v3.8l1.5-0.4l0.1,1.5c0.5-0.5,0.9-1.1,1.1-1.7c-0.5-0.9-0.9-1.8-1.1-2.8l1.2-0.5c0.1,0.5,0.2,0.9,0.4,1.4
					c0.2-0.9,0.4-1.7,0.4-2.7h-2.1c0.5-1.2,1.1-3,1.6-4.7h-1.2v-1.7h3.2c-0.5,1.5-1,3.3-1.6,4.8h0.5h0.2L290.8,678.3z M283.6,681.6
					c0.2,1,0.4,1.8,0.5,2.8l-1.1,0.4c-0.1-1-0.2-2-0.5-3L283.6,681.6z M285.7,684.4c0.2-0.9,0.4-1.8,0.5-2.8l1.1,0.4
					c-0.2,1-0.5,2.1-0.7,2.8L285.7,684.4z M292.7,675.1h-1.6v-1.5h1.6v-1.2h1.5v1.2h2.2v2.2h0.9v1.5h-0.9v2.2h-2.2v0.7h2.3v1.6h-2.3
					v0.7h2.7v1.5h-2.7v1.5h-1.5V684h-2v-1.5h2.1v-0.7h-1.7v-1.6h1.7v-0.7h-1.6V678h1.6v-0.7h-2.2v-1.5h2.2L292.7,675.1z
					 M294.2,675.1v0.7h0.9v-0.9L294.2,675.1z M295.1,677.3h-0.9v0.7h0.9V677.3z"/>
			</g>
		</g>
		<polygon class="st1" points="196.4,609 163.6,609 179.9,637.5 		"/>
	</g>
	<g>
		<g>
			<path class="st2" d="M66.1,111H43.8V57.2H52V103h14.1V111z"/>
			<path class="st2" d="M72.3,111V57.1h23.3v8.2H80.5V80h11v8.2h-11v14.7h15.1v8.2L72.3,111L72.3,111z"/>
			<path class="st2" d="M112.4,98.5l-1.9,12.4H102l9.2-53.9h11.3l9.1,53.9h-8.7L121,98.5H112.4z M116.7,69.5l-3.1,21.2h6L116.7,69.5
				z"/>
			<path class="st2" d="M164.7,98.1c0,7.1-5.8,12.9-12.9,12.9h-12.9V57.1h12.9c7.1,0,12.9,5.7,12.9,12.9l0,0V98.1z M147.1,103h4.9
				c1.3,0,2.4-0.5,3.3-1.4c0.9-0.9,1.4-2,1.4-3.3V70.2c0-1.3-0.5-2.4-1.4-3.3s-2-1.4-3.3-1.4h-4.9V103z"/>
			<path class="st2" d="M172.5,111V57.1h23.3v8.2h-15.1V80h11v8.2h-11v14.7h15.1v8.2L172.5,111L172.5,111z"/>
			<path class="st2" d="M215,57.2c4.6,0,7.9,1.3,10,3.8c1.9,2.2,2.8,5.2,2.8,9.1V78c0,3.8-1.6,7.3-4.4,9.7l6,23.5h-8.9l-5-20.3H210
				v20.3h-8.2v-54C201.8,57.2,215,57.2,215,57.2z M219.9,70.1c0-3.1-1.6-4.7-4.7-4.7h-4.9v17.2h4.9c2.6,0,4.7-2,4.7-4.7l0,0V70.1z"
				/>
			<path class="st2" d="M261.5,97.5c0,3.8-0.9,6.9-3,9.6c-1.4,1.8-3.4,3.2-5.7,3.9c-1.5,0.5-3,0.7-4.6,0.6c-3.2,0-5.8-0.8-8-2.4
				c-1.8-1.4-3.3-3.2-4.2-5.2c-1-2.4-1.7-5-1.8-7.6l7.7-0.6c0.3,3.2,1.1,5.5,2.5,6.8c0.8,1,2,1.6,3.4,1.5c1.8,0,3.2-0.9,4.3-2.6
				c0.6-0.8,0.8-2,0.8-3.5c0-2.3-1-4.4-3.1-6.6l-7.3-6.8c-2.7-2.6-4.7-4.9-5.8-7.1c-1.3-2.4-1.8-4.9-1.8-7.5c0-4.9,1.7-8.7,5-11.2
				c2-1.5,4.6-2.3,7.6-2.3c2.6-0.1,5.2,0.6,7.5,1.9c1.6,1,3,2.5,3.9,4.2c1,1.9,1.7,4,1.8,6.3l-7.7,1.3c-0.2-2.2-0.9-3.9-1.9-5.1
				c-0.8-0.9-2-1.4-3.3-1.4c-1.5,0-2.7,0.7-3.4,1.9c-0.7,1.3-1,2.6-0.9,4c0,2.5,1,5,3.2,7.5c1.1,1.3,2.3,2.4,3.6,3.4
				c1.9,1.6,3.2,2.6,3.8,3.3c1.8,1.7,3.4,3.8,4.7,5.9c0.5,0.8,0.9,1.7,1.3,2.5C261,94,261.4,95.8,261.5,97.5z"/>
			<path class="st2" d="M277.1,88.2V111h-8.2V57.2h8.2v22.9h9.9V57.2h8.2v53.9H287V88.3h-9.9V88.2z"/>
			<path class="st2" d="M311.2,111H303V57.2h8.2V111z"/>
			<path class="st2" d="M332.1,57.2c4,0,7.2,1.3,9.6,3.8c2.2,2.4,3.3,5.5,3.3,9.1V78c0,3.4-1.4,6.7-3.8,9.1
				c-2.4,2.5-5.7,3.9-9.1,3.8h-4.7v20.3h-8.2v-54C319.2,57.2,332.1,57.2,332.1,57.2z M337,70.1c0.1-2.4-1.7-4.6-4.1-4.7
				c-0.2,0-0.3,0-0.6,0h-4.9v17.2h4.9c2.6,0,4.7-2,4.7-4.7l0,0V70.1z"/>
		</g>
		<g>
			<g>
				<path class="st0" d="M71.4,29.1H20.1l0.5,1.7H40v8.3H24.6V59h1.3c3.6,0,7.5-1.9,7.5-2.7V40.9h6.4v22.8h1.7
					c4.6,0,7.3-1.9,7.3-2.4v-9.9c2.3,0.5,3.1,1.4,3.8,2.4s0.9,2.8,0.9,5.4c9-0.7,10.2-3.4,10.2-8.4V39.1H48.8v-8.3h22.7L71.4,29.1
					L71.4,29.1z M54.7,40.9v8.9c0,0.7-0.2,1-1,1c-0.9,0-3.9-0.2-4.9-0.2v-9.7H54.7z"/>
				<path class="st0" d="M15.1,29.1v12.1h1.3c3.5,0,7.5-1.9,7.5-2.7v-9.3L15.1,29.1L15.1,29.1z"/>
				<path class="st0" d="M64.9,29.1v12.1h1.3c3.5,0,7.5-1.9,7.5-2.7v-9.3L64.9,29.1L64.9,29.1z"/>
				<rect x="15.1" y="29.1" class="st0" width="58.6" height="3.3"/>
				<rect x="24.6" y="39.1" class="st0" width="39.1" height="3.3"/>
				<rect x="39.5" y="22.8" class="st0" width="6.8" height="3.3"/>
				<path class="st0" d="M52.4,4.7l-7.6-0.1v8.7h-3V4.8l-7.6-0.1v8.7h-2.6V4.3l-8.2-0.2v9.3h-8.3l0.5,1.7h7.7
					c-0.3,4.7-1.9,9.3-7.6,12.8l0.3,0.6c9.1-1,14.1-6.9,15.4-13.3H34v11h7.9v-0.5h2.8v0.5h7.6V4.7H52.4z M44.7,24h-2.8v-8.9h2.8V24z
					"/>
				<path class="st3" d="M62.9,18.4V4H55v15.9c0,4.6,0.6,6.1,5.8,6.1c1.4,0,2.4,0,10.5,0v-6.8h-7.6C63,19.2,62.9,18.9,62.9,18.4z"/>
				<rect x="15.1" y="11.8" class="st0" width="58.6" height="3.3"/>
			</g>
			<g>
				<path class="st3" d="M99.7,17.1L96,27.4c3,14.9,13.8,29.4,25.6,36.2l7.5-10.2C114.6,46.7,102.6,34.1,99.7,17.1z"/>
				<path class="st4" d="M102.5,5.7L90.7,4.1C92,24,88.8,44.8,66.8,62.2l0.7,0.8C91.5,52,101,38.8,102.5,5.7z"/>
			</g>
			<g>
				<path class="st0" d="M184.4,60.1c-2.3,2.6-5.4,3.5-10,3.5c0-3-0.3-5-1.5-6.3c-1.1-1.4-3.5-2.5-6.8-3.2l0.1-0.8
					c3.1,0.2,7.3,0.5,9,0.5c0.9,0.1,1.7-0.2,2.3-0.8c2.3-2,2.8-13.6,3.2-35H171c-3,5.1-6.9,9.6-11.5,13.3l-0.3-0.2v28.5h-24.5V16.3
					h8l0.8-12.1l8.1,2.8l-0.8,9.5h8.4v13.7c3-6.7,6-16.9,7.4-26.1l9.2,3.1c0,0-2.3,6.7-3.6,9.1h17.5
					C189.5,16.2,190.2,53.3,184.4,60.1z M142.7,18.3v17.5h7.7V18.3H142.7z M150.5,57.8V37.5h-7.7v20.3
					C142.7,57.8,150.5,57.8,150.5,57.8z"/>
				<rect x="134.5" y="57.2" class="st0" width="24.4" height="3.3"/>
				<rect x="134.5" y="35.3" class="st0" width="20.5" height="3.3"/>
				<rect x="165.1" y="16.1" class="st0" width="24.4" height="3.3"/>
				<rect x="134.5" y="16.1" class="st0" width="24.4" height="3.3"/>
				<path class="st0" d="M169.6,44.8c-1.5-5-3.5-10.6-6.1-15.1l0.5-0.5c7.1,3.5,12.4,10.9,12.4,10.9L169.6,44.8z"/>
			</g>
			<g>
				<path class="st0" d="M239.6,48.6c7.1-8.9,10.7-20,10.7-20h-12V17.4h13v-1.7h-13v-10l-9.1-1.1v11.2h-12.4
					c0.1,0.5,0.3,0.9,0.7,1.4c0.2,0.1,0.3,0.3,0.6,0.5h11.2v11.2H218l0.6,1.7h4c1.6,7.6,4,13.6,7.3,18.3
					c-5.2,6.1-11.8,10.9-19.2,14.1l0.3,0.7c9.5-2,17-5.5,22.9-9.8c3.9,4.1,14.1,9.8,14.1,9.8l6.7-9.1
					C248.9,53,244.7,51.4,239.6,48.6z M233.2,44.1c-4.4-3.6-7.7-8.4-9.7-13.9h16.1C238.2,35.2,236.1,39.9,233.2,44.1L233.2,44.1z"/>
				<path class="st0" d="M210.6,34c3.3-2.5,5.9-4.8,7.9-6.4l-0.1-0.5c-2.6,0.8-5.2,1.5-7.7,2.2v-8.7h7.1v-2.3h-7.1V4.9l-8.5-1.3
					v15.1h-6.9l0.5,1.8h6.5v10.9c-3.3,0.9-6,1.6-7.6,1.9l2.3,8.8l5.4-3v14.1c0,0.7-0.2,0.9-1.1,0.9c-1.1,0-6.1-0.3-6.1-0.3v0.8
					c2.7,0.6,3.8,1.4,4.6,2.7c0.7,1.3,1,3.3,1.1,6c8.8-0.8,10-3.9,10-9.7L210.6,34z"/>
				<rect x="218" y="28.5" class="st0" width="27.3" height="3.3"/>
				<rect x="194.9" y="18" class="st0" width="22.8" height="3.3"/>
				<rect x="217" y="14.7" class="st0" width="34.4" height="3.3"/>
			</g>
			<g>
				<path class="st0" d="M268.2,3.2c-1.6,5-6.1,12.2-10.4,17.1l0.5,0.6c9-3.2,16.9-12.5,16.9-12.5L268.2,3.2z"/>
				<path class="st0" d="M307.7,23.5h-8.2l0.5,1.7h4.1v27.7c0,0.7-0.2,1-1,1c-0.9,0-4.3-0.2-4.3-0.2v0.8c2.3,0.3,3.2,1.4,3.6,2.4
					s0.7,3.1,0.8,5.5c8-0.7,9-4.1,9-9.3V25.3h4.8L307.7,23.5z"/>
				<rect x="299.7" y="8.2" class="st0" width="17.6" height="3.3"/>
				<rect x="298.6" y="22.4" class="st0" width="19.6" height="3.3"/>
				<path class="st0" d="M274.5,22.7c0,0-11.7,10.6-21.5,13.3l-0.3-0.7c5-4.1,13.7-15.5,16.2-20.2L274.5,22.7z"/>
				<path class="st0" d="M271,24.2v35.9c-0.1,0.6-3.6,2.2-6.9,2.2h-1.6V29"/>
				<path class="st0" d="M289.6,25l-1.6,0.9c0,3.3,1.3,15.4,9.3,20.4l4.2-6.3C296.2,35.9,291.6,32,289.6,25z"/>
				<path class="st0" d="M289.6,3.9l-8-2V18h-4.8l0.5,1.7h3.8c-1.6,9.7-4.9,19.6-10,26.6l0.7,0.7c3.8-2.6,7.1-5.7,9.8-9.3v24h1.7
					c3.3,0,6.3-1.7,6.3-2.5V3.9z"/>
				<rect x="274.5" y="17.1" class="st0" width="23.2" height="3.3"/>
				<path class="st0" d="M300.2,11.5c-1.7-1.6-5.7-5.7-8.1-9l-0.5,0.2c0.8,4.2,2,8.3,3.8,12.2L300.2,11.5z"/>
			</g>
		</g>
	</g>
</g>
<g id="圖層_1_2_">
	<g>
		<g>
			<path class="st5" d="M87.5,339.4v-46.6l40.4,23.3v46.5L87.5,339.4z"/>
			<polygon class="st6" points="168.2,246.3 208.6,223 248.9,246.3 248.9,292.9 208.6,316.2 168.2,292.9 			"/>
			<polygon class="st6" points="127.9,269.6 168.2,246.3 208.6,269.6 208.6,316.1 168.2,339.4 127.9,316.1 			"/>
			<polygon class="st6" points="168.2,339.5 208.6,316.2 248.9,339.5 248.9,386.1 208.6,409.3 168.2,386.1 			"/>
			<polygon class="st6" points="127.9,362.7 168.2,339.4 208.6,362.7 208.6,409.3 168.2,432.6 127.9,409.3 			"/>
			<polygon class="st7" points="248.9,339.5 289.3,316.2 329.6,339.5 329.6,386.1 289.3,409.3 248.9,386.1 			"/>
			<polygon class="st7" points="208.6,362.7 248.9,339.4 289.3,362.7 289.3,409.3 248.9,432.6 208.6,409.3 			"/>
			<polygon class="st8" points="168.2,432.6 208.6,409.3 248.9,432.6 248.9,479.2 208.6,502.5 168.2,479.2 			"/>
			<polygon class="st7" points="127.9,455.9 168.2,432.6 208.6,455.9 208.6,502.5 168.2,525.8 127.9,502.5 			"/>
			<polygon class="st8" points="127.9,409.3 168.2,386 208.6,409.3 208.6,455.9 168.2,479.2 127.9,455.9 			"/>
			<polygon class="st6" points="87.5,386 127.8,362.7 168.2,386 168.2,432.6 127.8,455.9 87.5,432.6 			"/>
			<polygon class="st9" points="47.1,409.3 87.5,386 127.8,409.3 127.8,455.9 87.5,479.2 47.1,455.9 			"/>
			<polygon class="st8" points="47.1,362.7 87.5,339.4 127.8,362.7 127.8,409.3 87.5,432.6 47.1,409.3 			"/>
			<polygon class="st9" points="208.6,455.9 248.9,432.6 289.3,455.9 289.3,502.5 248.9,525.8 208.6,502.5 			"/>
			<line class="st10" x1="87.5" y1="292.9" x2="87.5" y2="339.4"/>
			<polygon class="st4" points="208.6,316.2 168.2,339.5 168.3,386.1 208.6,362.7 			"/>
			<polygon class="st1" points="248.9,339.4 208.6,362.8 208.7,409.4 248.9,386 			"/>
			<polygon class="st11" points="47.1,362.7 87.5,386 47.1,409.3 			"/>
			<polygon class="st11" points="87.5,479.8 127.9,456.5 168.2,479.2 168.2,432.6 208.6,409.3 208.6,362.7 168.3,386.1 168.2,339.5 
				208.6,316.2 208.6,269.6 127.9,316.2 127.9,362.7 87.5,386 127.8,409.3 87.5,432.6 			"/>
			<polygon class="st0" points="168.2,479.2 208.6,502.5 208.6,455.9 248.9,432.6 208.6,409.4 208.6,455.9 			"/>
			<polygon class="st0" points="127.9,269.6 127.9,316.2 87.5,292.9 			"/>
			<polygon class="st1" points="127.9,269.6 168.2,292.9 208.6,269.6 248.9,246.3 208.6,223 			"/>
			<polygon class="st1" points="168.3,386.1 127.9,409.4 168.3,432.7 208.7,409.4 			"/>
			<path class="st12" d="M218.3,240.9c-0.4,0.2-2.5,2.2-11,6.3c-2.6,1.3-7.8,3.5-8.4,3.8c-5.1,2.4-26.1,13.1-30.9,14.6
				c-4.8,1.5-5.2,0.7-5.2,0.7s-0.5,0.2-0.7,0.3s-0.2,0.3-0.4,0.4c-1.1,0.6-5.5,2.5-6.5,2.6c-1.9,0.3-4.5-0.6-2.6-1.9
				c1.4-1,5.6-2.1,6.9-2.3c0.2,0,1.2-0.3,1.3-0.4c0.1,0,0.3-0.1,0.4-0.2c0,0-1.3-0.1,0.6-1.3c2-1.2,34.9-15.6,34.9-15.6l17.8-6.9
				l0.4,0.6l-9,3.9l-11.2,5.1l11.3-4.5l5.4-2.2l5-2.5L218.3,240.9z"/>
			<path class="st12" d="M160.9,264.6c-0.1-0.5,0-1,0.2-1.4c0.5-0.8,8.4-5,10-5.6c1.5-0.6,11.9-4,11.9-4l-0.3,1.2
				c0,0-8.4,2.9-10.6,3.7c-2.2,0.8-5.8,3.4-5.8,3.4l-2.2,2L160.9,264.6z"/>
			<path class="st13" d="M221.2,205.5c-0.2-0.1-0.4-0.2-0.6-0.4c-0.2-0.2-0.5-0.6-0.3-0.7c0.2,0,0.6,0.4,0.6,0.4
				c-0.1-0.2-0.2-0.4-0.2-0.6c0-0.3-0.1-0.6,0-0.6c0.1-0.1,0.1,0,0.2,0.1s0.2-0.3,0.3-0.1c0.2,0.2,0.2-0.2,0.3,0.1
				c0.1,0.2,0.2-0.1,0.3,0.2s0.1,0.6,0.2,0.9l0.3,0.7l-0.9,0.2L221.2,205.5z"/>
			<path class="st13" d="M211,216.5c0.5,1.6,1.2,3.2,1.9,4.8l1.1,2l1.5-0.1c0,0-1.4-3.2-1.7-4.1c-0.3-0.9-0.9-3.2-0.9-3.2
				s-0.4-1.1-0.8-1.2C211.5,214.6,211,216.5,211,216.5z"/>
			<polygon class="st2" points="214.1,223.3 214.2,223.6 215.3,223.5 215.3,223.2 			"/>
			<path class="st13" d="M216,242c0.2,0.1,0.3,0.1,0.5,0.1c0.8-0.2,1.5-0.5,2.1-1c0.5-0.4,0.7-0.7,0.4-0.7c-0.8,0.2-1.8,0.5-1.8,0.5
				l-0.2-0.4l-1,0.4C216.1,240.8,215.8,241.9,216,242z"/>
			<path class="st13" d="M213.6,241.8c0.2,0.1,0.4,0.1,0.7,0c0.8-0.2,1.7-1.1,2.1-1.4c0.4-0.3,0.5-0.7,0.2-0.6
				c-0.6,0.1-1.1,0.3-1.6,0.6l-0.2-0.5l-1.2,0.5C213.7,240.5,213.5,241.8,213.6,241.8z"/>
			<path class="st13" d="M216,241.1l1.3-0.5c0,0,0.8-6.9,1-8.1c0-0.8-0.4-1.5-1.1-1.8c-0.7,1-1,2.2-1,3.4
				C216.2,235.1,216,241.1,216,241.1z"/>
			<path class="st13" d="M213.7,240.5l1.3-0.5c0,0,0.7-7.1,0.8-8.3c0-0.8-0.4-1.5-1.1-1.8c-0.7,1-1,2.2-0.9,3.5
				C213.8,234.4,213.7,240.5,213.7,240.5z"/>
			<path class="st13" d="M218.3,232.5c0,0,0.7-5.3,0.7-7.6c0-1,0-2-0.1-3l-3.6,0.7c0,0,0.9,4.7,0.8,6.6c0,0,0.2,3.9,0.3,4.4
				C216.3,234.1,218.3,232.5,218.3,232.5z"/>
			<path class="st13" d="M215.7,232.6c0,0,0.8-5.4,0.8-7.7s-0.1-3.8-0.1-3.8l-3,1.2c0,0,0.4,4.8,0.3,6.8c0,0,0.1,4.1,0.2,4.6
				C214,234.5,215.7,232.6,215.7,232.6z"/>
			<path class="st13" d="M217.4,203.6c-0.1,0.5-0.1,1,0,1.4c0.3,0.8,0,0.7,0,0.9c0,0.1,0.1,1.1,0,1.3s-0.4,0.2-0.4,0.2l0.1,1.7
				l-2.3,0.5l0.1-1.4l-0.1-0.4l0.7-3.4L217.4,203.6z"/>
			<path class="st13" d="M213.5,203.9c-0.1,1.3,1.3,3.7,1.3,3.7s1.7-0.1,1.8-0.3c0.1-0.4,0.1-0.9,0.1-1.3c-0.2-0.2-0.2-0.4-0.2-0.7
				c0.1-0.3,0.2-0.2,0.2-0.2c0.2,0.1,0.1,0.3,0.1,0.3l0.2-0.1c0-0.5,0-1,0-1.6c0-0.1,0.1-0.2,0.3-0.3c-0.4-0.8-1.3-1.1-2.2-0.9
				C214.5,202.9,213.9,203.3,213.5,203.9z"/>
			<path class="st13" d="M213,224c0,0,6.5-0.2,6.4-0.5c-0.3-1.7-0.4-3.4-0.4-5.1c0-2.7,0.2-6.1,0-7.2c-0.5-2.5-2.1-2.5-2.1-2.5
				s-1.6-0.3-2-0.1s-1.8,2.1-2,2.9c-0.3,0.8,0.7,6.5,0.8,7.6C213.8,220.1,213,224,213,224z"/>
			<path class="st13" d="M214.9,208.7c-1.2,0.2-2.5,0.8-2.8,1.5s-1.3,4.4-1.2,6.3c0,0,0.7,2.4,1.1,2.3c0.7-0.2,1.3-3.7,1.3-4.4
				s-0.2-2.9,0.2-3.4C214.1,210.3,214.5,209.5,214.9,208.7z"/>
			<path class="st13" d="M215.7,209.2c0.2,1.2-0.1,1.6,0.6,1.8c0.7,0.3,5.8,1.3,7.8,1.3c0,0,0.5-1.2,0.4-1.6
				c-0.2-0.7-3.5-1.2-4.2-1.2s-2.4-0.7-3.2-0.7C216.5,208.9,216.1,209,215.7,209.2z"/>
			<path class="st13" d="M225,210.7c-0.1-0.7-0.6-1.5-1.3-3l-1.1-2.1L221,206c0,0,1.5,3.1,1.8,4.1c0.2,0.5,0.3,1,0.4,1.5
				c0,0,0.3,0.7,0.7,0.8C224.4,212.5,225.1,211.3,225,210.7z"/>
			<polygon class="st2" points="214.7,208.7 214.9,208.1 217.1,208.5 217.1,208.8 			"/>
			<polygon class="st2" points="222.5,205.5 222.3,205.3 221,205.6 221.1,205.9 			"/>
			<path class="st13" d="M217.3,204.5l0.1,0.5l12.8-1.8c0-0.2,0.1-0.4,0.1-0.7c0-0.2-0.1-0.5-0.2-0.7L217.3,204.5z"/>
			<polygon class="st14" points="127.9,269.6 127.9,316.2 168.2,292.9 			"/>
			<polygon class="st2" points="248.9,246.3 248.9,292.9 289.3,316.2 248.9,339.4 208.6,316.2 208.6,269.6 			"/>
			<polygon class="st4" points="127.8,455.9 127.8,502.3 168.2,479.2 			"/>
			<polygon class="st2" points="248.9,432.6 208.6,455.9 208.6,502.5 248.9,479.2 			"/>
			<path class="st2" d="M198.8,426.2v24.1l-20.9,12.1v-24.1L198.8,426.2 M208.6,409.4l-40.3,23.2v46.6l40.3-23.3V409.4z"/>
			<polygon class="st3" points="208.6,316.2 168.2,292.9 208.6,269.6 			"/>
			<polygon class="st3" points="208.6,316.2 248.9,339.4 208.6,362.8 			"/>
			<path class="st2" d="M87.5,350.7l20.9,12.1l-20.9,12.1l-20.9-12.1L87.5,350.7 M87.5,339.4l-40.4,23.3L87.5,386l40.4-23.3
				L87.5,339.4z"/>
			<polygon class="st4" points="47.1,409.3 87.5,432.6 127.9,409.3 87.5,386 			"/>
			<polygon class="st3" points="87.5,386 127.9,409.3 127.9,362.7 			"/>
			<polygon class="st2" points="81.4,417.8 81.3,418.1 80.1,417.9 80.2,417.7 			"/>
			<path class="st15" d="M80.3,430.9c0,0.2-0.1,0.4-0.1,0.5c-0.6,0.9-1.2,1.8-2,2.6c-0.6,0.4-0.8,0.2-0.7-0.1
				c0.3-0.8,0.7-1.5,1.2-2.2l-0.3-0.3l1.1-1.1C79.6,430.3,80.4,430.7,80.3,430.9z"/>
			<path class="st15" d="M80,430.4l-1.6,1.3c0,0-7.3-5.6-8.4-6.3c-0.7-0.4-1-1.2-0.8-2c0,0,1.5-0.8,3.4,0.6
				C73.4,424.7,80,430.4,80,430.4z"/>
			<path class="st15" d="M69.2,423.4c2.5-1.9,5.2-3.4,8.2-4.3c2.2-0.8,2.6-1.5,2.6-1.5l1.1,3.6c0,0-4.8,1.9-6.7,2.8
				c0,0-3.6,1.2-4.2,1.4C69.6,425.4,69.2,423.4,69.2,423.4z"/>
			<path class="st15" d="M77.4,434.7c-0.1,0.2-0.2,0.3-0.4,0.4c-0.9,0.5-1.9,0.9-3,1.2c-0.7,0-0.8-0.2-0.6-0.4
				c0.6-0.5,1.4-1,2.2-1.3l-0.1-0.4l1.5-0.4C77.1,433.8,77.5,434.6,77.4,434.7z"/>
			<path class="st15" d="M77.4,434.1l-2.1,0.3c0,0-3.5-8.6-4.1-9.6c-0.3-0.7-0.2-1.5,0.3-2.1c0,0,1.7,0.1,2.6,2.2
				C74.6,425.9,77.4,434.1,77.4,434.1z"/>
			<path class="st15" d="M71.3,423.5c2.3-2.2,5-3.8,8-4.8c1.1-0.5,2.4-0.6,3.6-0.3c0,0,0.6,1.9-0.1,3c-0.6,1.1-4.5,1.7-6.4,2.5
				c0,0-3.6,1.2-4.2,1.3C71.8,425.4,71.3,423.5,71.3,423.5z"/>
			<path class="st15" d="M81.3,404.1l-0.1-0.5c0.5-1.3,0.4-2.8-0.1-4.1c-0.6-0.4-1.3-0.6-2.1-0.6c-1,0.2-1.7,1.1-1.6,2.1
				c0.1,0.3,0.2,0.6,0.3,0.9c0.1,0.7,0.4,1.3,0.7,1.9c0.1,0.1,0.2,0.3,0.4,0.4c0.1,0,0.1,0,0.2,0l0.4,1.7l2.1-0.6L81.3,404.1z"/>
			<path class="st15" d="M83.6,421.2c0,0-6.6-1.8-6.5-2.1c0.1-0.6,0.2-2,0.3-4.3c0.1-2.8-0.7-6.6-0.4-7.7c0.6-2.5,2.3-2.5,2.3-2.5
				s1.6-0.3,2.1,0c0.5,0.2,1.7,2.2,2,3.1s-0.1,6.9-0.3,7.9C82.8,416.7,83.6,421.2,83.6,421.2z"/>
			<path class="st15" d="M73.7,418.4c-0.1,0-2.6,1.3-2.4,1.5c0.1,0.1,0.2,0.2,0.3,0.1l0,0c0,0,0.1,0.1,0.2,0.1s0.2,0,0.2-0.1h0.3
				c0.2-0.1,0.5-0.2,0.7-0.4c0,0-0.5,0.4-0.4,0.4s1-0.5,1-0.5l0.7-0.7L73.7,418.4z"/>
			<path class="st15" d="M78.2,412.9c0,0-0.7,2.7-1,4.3c-0.3,1.6-3,2.4-3,2.4l-0.7-1.3c0,0,1.7-1.3,1.9-2.3c0.3-1.3,0.6-7.3,0.9-8.3
				s1.4-2.4,1.9-2.6S78.2,412.9,78.2,412.9z"/>
			<polygon class="st2" points="74.2,419.5 74,419.6 73.3,418.4 73.6,418.3 			"/>
			<polygon class="st2" points="80.8,405.4 80.2,408.7 79.1,411.9 79.1,407.7 79.2,405.1 79.1,404.7 79.1,404.5 80.1,404.8 
				81.4,404.6 81.5,404.8 			"/>
			
				<rect x="81.6" y="408.4" transform="matrix(0.1459 -0.9893 0.9893 0.1459 -334.8252 430.3057)" class="st2" width="0.3" height="1.3"/>
			<path class="st15" d="M79.7,404.6v0.8c0,0,0.5,0.1,0.5,0c0-0.3,0.1-0.5,0.2-0.8H79.7z"/>
			<polygon class="st15" points="79.7,405.4 78.8,413.2 78.8,414.1 79.3,413 80.2,405.4 			"/>
			<polygon class="st2" points="70,420.4 76.5,421 74.6,415.3 67.7,414.8 			"/>
			<path class="st2" d="M79.5,419.5c-0.1,0-3,1.5-3,1.5l-6.5-0.6l3.5-1.3L79.5,419.5z"/>
			<path class="st15" d="M84.4,416.7c0,0-3.1,1.5-4.5,2c-1.5,0.5-3.6,1.4-3.6,1.4l-0.6-1.6c0,0,4.2-1.6,5.1-2.1s2.5-1.5,2.5-1.5
				s1.5-0.5,1.9-0.3S84.4,416.7,84.4,416.7z"/>
			<path class="st15" d="M81.5,404.8c1.2,0.2,2.6,0.8,2.8,1.5c0.6,3.1,0.9,6.2,1,9.3c0,0-0.9,1.3-1.3,1.2c-0.8-0.2-1-4.1-1-4.8
				c0-0.7,0.3-3-0.2-3.4S81.5,404.8,81.5,404.8z"/>
			<g>
				<g>
					<g>
						<g>
							<g>
								<g>
									<defs>
										<polygon id="SVGID_1_" points="248.9,339.4 248.9,386 288.8,409.1 288.8,362.7 										"/>
									</defs>
									<clipPath id="SVGID_00000129202458600194395950000011021818587122447004_">
										<use xlink:href="#SVGID_1_"  style="overflow:visible;"/>
									</clipPath>
									<g style="clip-path:url(#SVGID_00000129202458600194395950000011021818587122447004_);">
										<line class="st17" x1="269.9" y1="308.7" x2="336.4" y2="423.2"/>
										<line class="st17" x1="267.5" y1="309.9" x2="333.9" y2="424.3"/>
										<line class="st17" x1="265" y1="311.1" x2="331.4" y2="425.5"/>
										<line class="st17" x1="262.5" y1="312.3" x2="328.9" y2="426.7"/>
										<line class="st17" x1="260" y1="313.5" x2="326.5" y2="427.9"/>
										<line class="st17" x1="257.6" y1="314.7" x2="324" y2="429.1"/>
										<line class="st17" x1="255.1" y1="315.9" x2="321.5" y2="430.3"/>
										<line class="st17" x1="252.6" y1="317.1" x2="319" y2="431.5"/>
										<line class="st17" x1="250.1" y1="318.3" x2="316.6" y2="432.7"/>
										<line class="st17" x1="247.6" y1="319.5" x2="314.1" y2="433.9"/>
										<line class="st17" x1="245.2" y1="320.7" x2="311.6" y2="435.1"/>
										<line class="st17" x1="242.7" y1="321.9" x2="309.1" y2="436.3"/>
										<line class="st17" x1="240.2" y1="323.1" x2="306.6" y2="437.5"/>
										<line class="st17" x1="237.7" y1="324.3" x2="304.2" y2="438.7"/>
										<line class="st17" x1="235.2" y1="325.5" x2="301.7" y2="439.9"/>
										<line class="st17" x1="232.8" y1="326.6" x2="299.2" y2="441.1"/>
										<line class="st17" x1="230.3" y1="327.8" x2="296.7" y2="442.3"/>
										<line class="st17" x1="227.8" y1="329" x2="294.2" y2="443.5"/>
										<line class="st17" x1="225.3" y1="330.2" x2="291.8" y2="444.7"/>
										<line class="st17" x1="222.8" y1="331.4" x2="289.3" y2="445.9"/>
										<line class="st17" x1="220.4" y1="332.6" x2="286.8" y2="447.1"/>
										<line class="st17" x1="217.9" y1="333.8" x2="284.3" y2="448.3"/>
										<line class="st17" x1="215.4" y1="335" x2="281.8" y2="449.5"/>
										<line class="st17" x1="212.9" y1="336.2" x2="279.4" y2="450.7"/>
										<line class="st17" x1="210.4" y1="337.4" x2="276.9" y2="451.9"/>
										<line class="st17" x1="208" y1="338.6" x2="274.4" y2="453.1"/>
										<line class="st17" x1="205.5" y1="339.8" x2="271.9" y2="454.3"/>
									</g>
								</g>
							</g>
						</g>
					</g>
				</g>
			</g>
			<path class="st15" d="M263,380.8c-0.4,1.4-0.9,2.7-1.5,4c-0.6,1.1-1.3,2.9-1.3,2.9l-0.9-0.6c0,0,1.3-3.3,1.5-4.1
				c0.3-0.8,0.7-2.7,0.7-2.7s0.3-0.9,0.6-1S263,380.8,263,380.8z"/>
			<polygon class="st2" points="260,386.5 259.9,386.8 259,386.6 259,386.5 			"/>
			<path class="st15" d="M254.7,404.7c-0.1,0-0.3,0.1-0.4,0c-0.9-0.1-1.7-0.4-2.5-0.7c-0.4-0.3-0.4-0.6-0.1-0.6c0.7,0,1.4,0.1,2,0.3
				l0.2-0.3l1.1,0.5C255,403.9,254.9,404.6,254.7,404.7z"/>
			<path class="st15" d="M261.8,402.1c0.1,0.1,0,0.4-0.1,0.5c-0.6,0.5-1.3,0.9-2,1.2c-0.5,0.1-1.2-0.2-1-0.4
				c0.6-0.5,1.2-0.9,1.8-1.3l-0.1-0.8l0.7,0.1C261.3,401.7,261.6,401.9,261.8,402.1z"/>
			<path class="st15" d="M255,404.3l-1.4-0.9c0,0,2.1-7.2,2.2-8.1c0.1-0.6,0.6-1.1,1.3-1.2c0.7,0.7,0.9,1.8,0.5,2.7
				C257.4,397.7,255,404.3,255,404.3z"/>
			<path class="st15" d="M262,401.8l-2,0.7c0,0-1.6-8.1-1.9-9.1c-0.5-1.7,0.9-1.7,0.9-1.7c0.7,0.7,1.2,1.7,1.3,2.7
				C260.4,395.4,262,401.8,262,401.8z"/>
			<path class="st15" d="M255.8,395.3c0,0,0.8-4.5,1.1-6.3c0.2-0.8,0.2-1.6,0.2-2.4l2.9,0.9c0,0-1,4-1.3,5.7c0,0-0.9,3.2-1.1,3.6
				S255.8,395.3,255.8,395.3z"/>
			<path class="st15" d="M258.2,393.6c-0.4-1.8-0.7-3.6-0.9-5.5c-0.1-1.9-0.2-3.2-0.2-3.2l3.1,1c0,0-0.2,4-0.1,5.7
				c0,0,0.3,3.1,0.2,3.6C260.4,395.6,258.2,393.6,258.2,393.6z"/>
			<path class="st15" d="M259.4,373.7v-0.4c0.4-1.1,0.5-2.2,0.1-3.3c-0.5-0.4-1-0.6-1.6-0.6c-0.8,0.1-1.4,0.8-1.3,1.7
				c0.1,0.2,0.2,0.5,0.2,0.7c0.1,0.5,0.2,1.1,0.5,1.5c0.1,0.1,0.2,0.2,0.3,0.3c0,0,0.1,0,0.2,0l0.2,1.3l1.9-0.2L259.4,373.7z"/>
			<path class="st15" d="M261.1,386.8c0,0-4.5,1.1-4.5,0.9c0.1-0.5,0-3.2,0-5.1c0-2.3-0.7-5.3-0.5-6.2c0.4-2.1,1.8-2,1.8-2
				c0.6-0.1,1.1-0.2,1.7-0.1c0.7,0.7,1.3,1.5,1.7,2.4c0.2,0.7-0.7,5.4-0.8,6.3S261.1,386.8,261.1,386.8z"/>
			<path class="st15" d="M253.5,386.6c0,0.1-0.6,2.3-0.4,2.3c0.1,0,0.2,0,0.2-0.2l0,0h0.1c0.1,0,0.1-0.2,0.1-0.2l0.1-0.2
				c0.1-0.2,0.1-0.4,0.1-0.6c0,0,0,0.5,0.1,0.5c0.1-0.1,0.2-0.9,0.2-0.9v-0.8L253.5,386.6z"/>
			<path class="st15" d="M259.5,374.4c1,0.1,2.1,0.6,2.3,1.2c0.6,1.7,1,3.4,1.2,5.2c0,0-0.5,2-0.9,1.9c-0.6-0.2-1.2-3-1.2-3.6
				s0.1-2.4-0.2-2.8C260.2,375.7,259.8,375,259.5,374.4z"/>
			<path class="st15" d="M257.1,378.7c-0.5,1.3-0.9,2.7-1.2,4.1c-0.4,1.4-0.9,2.7-1.5,4l-1.2-0.3c0,0,1.3-3.9,1.4-4.8
				c0.2-1.1,1.3-6,1.3-6s0.5-0.8,0.9-0.9S257.1,378.7,257.1,378.7z"/>
			<polygon class="st2" points="254.4,386.8 254.4,387 253.3,386.7 253.4,386.5 			"/>
			<polygon class="st2" points="259.2,375 258.8,377.6 258,380.2 257.9,376.8 257.9,374.7 257.8,374.4 257.8,374.2 258.6,374.5 
				259.7,374.3 259.7,374.4 			"/>
			<polygon class="st2" points="260.6,378.1 259.6,377.9 259.6,377.7 260.7,377.8 			"/>
			<path class="st15" d="M258.3,374.3v0.7c0,0,0.4,0.1,0.4,0c0-0.2,0.1-0.4,0.2-0.6L258.3,374.3z"/>
			<polygon class="st15" points="258.3,375 257.7,381.2 257.7,382 258.1,381.1 258.7,375 			"/>
		</g>
	</g>
	<path class="st0" d="M90.8,341.4c-1-0.6-1.8-1.4-2.4-2.4l0.5-0.3c0.4,0.8,1.1,1.5,1.9,2c1,0.6,1.6,0.4,1.6-0.6
		c0-0.4-0.1-0.8-0.3-1.2c-0.2-0.4-0.5-0.7-0.9-0.9l-0.8-0.6c-0.5-0.4-0.9-0.8-1.3-1.3c-0.3-0.5-0.5-1.2-0.5-1.8c0-1.3,0.9-1.8,2.2-1
		c0.9,0.5,1.6,1.2,2.1,2l-0.5,0.3c-0.4-0.7-0.9-1.2-1.6-1.6c-0.9-0.5-1.5-0.2-1.5,0.7c0,0.4,0.1,0.8,0.3,1.1c0.3,0.4,0.6,0.7,0.9,1
		l0.8,0.6c0.5,0.3,0.9,0.8,1.3,1.3c0.4,0.6,0.6,1.2,0.6,1.9C93.2,341.9,92.2,342.2,90.8,341.4z"/>
	<path class="st0" d="M96.6,344.7c-1.5-0.9-2.4-2.4-2.4-4.1v-5.4l0.7,0.4v5.3c0,1.2,0.6,2.3,1.7,3c1,0.6,1.7,0.2,1.7-1v-5.3L99,338
		v5.4C99,344.9,98,345.5,96.6,344.7z"/>
	<path class="st0" d="M103,345l-1.8-1v3.3l-0.7-0.4v-8l2.6,1.5c1.3,0.7,2.1,2.1,2.1,3.6C105.1,345.3,104.3,345.7,103,345z
		 M102.9,341l-1.8-1v3.2l1.8,1c0.9,0.5,1.5,0.3,1.5-0.8C104.4,342.4,103.8,341.5,102.9,341L102.9,341z"/>
	<path class="st0" d="M108.7,348.2l-1.8-1v3.3l-0.7-0.4v-8l2.6,1.5c1.3,0.7,2.1,2.1,2.1,3.6C110.8,348.5,109.9,348.9,108.7,348.2z
		 M108.6,344.2l-1.8-1v3.2l1.8,1c0.9,0.5,1.5,0.3,1.5-0.8C110,345.6,109.5,344.7,108.6,344.2L108.6,344.2z"/>
	<path class="st0" d="M115.7,354.7c-0.6,0.3-1.3,0.2-1.8-0.2c-0.7-0.4-1.4-1.1-1.8-1.8c-0.7-1.1-0.7-1.9-0.7-3.6s0-2.5,0.7-2.9
		c0.6-0.3,1.3-0.2,1.8,0.2c0.7,0.4,1.4,1.1,1.8,1.8c0.7,1.1,0.7,1.9,0.7,3.6C116.3,353.5,116.3,354.3,115.7,354.7z M115.1,348.4
		c-0.3-0.5-0.7-0.9-1.2-1.3c-0.3-0.3-0.8-0.3-1.2-0.1c-0.4,0.3-0.5,0.8-0.5,2.5s0,2.2,0.5,3c0.3,0.5,0.7,0.9,1.2,1.3
		c0.4,0.3,0.8,0.3,1.2,0.1c0.4-0.3,0.5-0.8,0.5-2.4S115.5,349.2,115.1,348.4L115.1,348.4z"/>
	<path class="st0" d="M121.6,358.8l-1.6-4.4l-1.7-1v3.5l-0.7-0.4v-8l2.7,1.5c1.2,0.7,2,2,2.1,3.4c0,1.2-0.6,1.6-1.5,1.3l1.7,4.6
		L121.6,358.8z M120.2,350.8l-1.9-1.1v2.9l1.9,1.1c0.8,0.5,1.4,0.3,1.4-0.7C121.5,352.1,121,351.2,120.2,350.8L120.2,350.8z"/>
	<path class="st0" d="M125.5,353.8v7.2l-0.7-0.4v-7.2l-2-1.1v-0.8l4.8,2.7v0.8L125.5,353.8z"/>
	<path class="st0" d="M213.2,309.3v7.2l-0.7-0.4v-7.2l-2-1.1V307l4.8,2.7v0.8L213.2,309.3z"/>
	<path class="st0" d="M216,318.2v-8l4.3,2.5v0.8l-3.6-2v2.8l3,1.7v0.8l-3-1.7v2.9l3.6,2v0.8L216,318.2z"/>
	<path class="st0" d="M225.4,323.5l-0.6-2.1l-3-1.7l-0.6,1.5l-0.8-0.4l2.6-6.5l0.6,0.4l2.5,9.4L225.4,323.5z M223.3,315.6l-1.3,3.5
		l2.6,1.5L223.3,315.6z"/>
	<path class="st0" d="M232,327.3v-6.1l-1.9,3.7l-0.6-0.4l-1.9-5.9v6.1l-0.7-0.4v-8l0.7,0.4l2.3,7l2.2-4.4l0.7,0.4v8L232,327.3z"/>
	<path class="st0" d="M239.7,331.6l-0.7-0.4l-1.5-7.3l-1.5,5.5l-0.7-0.4l-1.8-9l0.7,0.4l1.3,7.2l1.5-5.6l0.7,0.4l1.5,7.3l1.3-5.7
		l0.8,0.4L239.7,331.6z"/>
	<path class="st0" d="M246,334.5c-0.6,0.3-1.3,0.2-1.8-0.2c-0.7-0.4-1.4-1.1-1.8-1.8c-0.7-1.1-0.7-1.9-0.7-3.6s0-2.5,0.7-2.9
		c0.6-0.3,1.3-0.2,1.8,0.2c0.7,0.5,1.4,1.1,1.8,1.8c0.7,1.1,0.7,1.9,0.7,3.6C246.7,333.3,246.6,334.1,246,334.5z M245.4,328.2
		c-0.3-0.5-0.7-0.9-1.2-1.3c-0.4-0.3-0.8-0.3-1.2-0.1c-0.4,0.3-0.5,0.8-0.5,2.4s0.1,2.2,0.5,3c0.3,0.5,0.7,0.9,1.2,1.3
		c0.3,0.3,0.8,0.3,1.2,0.1c0.4-0.3,0.5-0.8,0.5-2.5C245.9,329.5,245.9,328.9,245.4,328.2z"/>
	<path class="st0" d="M251.9,338.6l-1.6-4.4l-1.7-0.9v3.5l-0.7-0.4v-8l2.7,1.5c1.2,0.7,2,2,2.1,3.4c0,1.2-0.6,1.6-1.5,1.3l1.6,4.6
		L251.9,338.6z M250.5,330.5l-1.9-1.1v2.9l1.9,1.1c0.8,0.5,1.4,0.3,1.4-0.7C251.9,331.8,251.3,331,250.5,330.5L250.5,330.5z"/>
	<path class="st0" d="M258.1,342.1l-2.1-5.5l-1.5,1.2v2.2l-0.7-0.4v-8l0.7,0.4v4.6l3.2-2.8l0.9,0.5l-2.2,1.8l2.5,6.3L258.1,342.1z"
		/>
	<path class="st2" d="M169.8,431.8v-8l4.3-2.5v0.8l-3.6,2v2.8l3-1.7v0.8l-3,1.7v2.9l3.6-2v0.8L169.8,431.8z"/>
	<path class="st2" d="M179.6,426.2l-3.7-4.3v6.4l-0.7,0.4v-8l0.7-0.4l3.7,4.3v-6.4l0.7-0.4v8L179.6,426.2z"/>
	<path class="st2" d="M184,423.8c-0.5,0.4-1.2,0.4-1.8,0.2c-0.7-0.4-0.7-1.2-0.7-2.9s0-2.5,0.7-3.6c0.4-0.8,1-1.4,1.8-1.8
		c1.3-0.7,2.2-0.4,2.4,1l-0.8,0.4c-0.2-0.9-0.8-1.2-1.7-0.7c-0.5,0.3-0.9,0.7-1.2,1.2c-0.4,0.8-0.5,1.3-0.5,3s0,2.2,0.5,2.5
		c0.4,0.2,0.9,0.1,1.2-0.1c0.9-0.6,1.5-1.5,1.7-2.6l0.7-0.4C186.2,421.6,185.4,422.9,184,423.8z"/>
	<path class="st2" d="M191.5,418.7c-0.4,0.8-1,1.4-1.8,1.8c-0.5,0.4-1.2,0.4-1.8,0.2c-0.7-0.4-0.7-1.2-0.7-2.9s0-2.5,0.7-3.6
		c0.4-0.8,1-1.4,1.8-1.8c0.5-0.4,1.2-0.5,1.8-0.2c0.7,0.4,0.7,1.2,0.7,2.9S192.2,417.5,191.5,418.7z M191,413
		c-0.4-0.2-0.9-0.1-1.2,0.1c-0.5,0.3-0.9,0.7-1.2,1.3c-0.4,0.8-0.5,1.3-0.5,3s0.1,2.2,0.5,2.4c0.4,0.2,0.9,0.1,1.2-0.1
		c0.5-0.3,0.9-0.7,1.2-1.3c0.4-0.8,0.5-1.3,0.5-3S191.4,413.3,191,413z"/>
	<path class="st2" d="M195.8,417.1c-1.4,0.8-2.4,0.3-2.4-1.3v-5.4l0.7-0.4v5.3c0,1.2,0.7,1.6,1.7,1.1c1-0.6,1.7-1.8,1.7-3v-5.3
		l0.7-0.4v5.4C198.1,414.7,197.2,416.2,195.8,417.1z"/>
	<path class="st2" d="M203.6,412.6l-1.6-2.7l-1.7,1v3.5l-0.7,0.4v-8l2.7-1.5c1.2-0.7,2.1-0.3,2.1,1.1c0,1.2-0.6,2.3-1.5,3l1.7,2.7
		L203.6,412.6z M202.2,406.1l-1.9,1.1v2.9l1.9-1.1c0.8-0.4,1.4-1.3,1.4-2.3C203.6,405.8,203,405.7,202.2,406.1z"/>
	<path class="st2" d="M209.6,409.2l-0.6-1.5l-3,1.7l-0.6,2.1l-0.8,0.4l2.5-9.5l0.6-0.4l2.5,6.5L209.6,409.2z M207.5,403.6l-1.3,5
		l2.6-1.5L207.5,403.6z"/>
	<path class="st2" d="M214.9,405.3c-0.4,0.8-1.1,1.5-1.9,2c-0.5,0.4-1.2,0.4-1.8,0.2c-0.7-0.4-0.7-1.2-0.7-2.9s0-2.5,0.7-3.6
		c0.4-0.8,1-1.4,1.8-1.8c1.3-0.8,2.2-0.3,2.4,1l-0.7,0.4c-0.2-0.9-0.8-1.2-1.7-0.7c-0.5,0.3-0.9,0.7-1.2,1.3c-0.4,0.8-0.5,1.3-0.5,3
		s0.1,2.2,0.5,2.5c0.4,0.2,0.9,0.1,1.2-0.1c0.6-0.3,1-0.8,1.3-1.4c0.3-0.5,0.4-1.1,0.4-1.7v-0.6l-1.7,1v-0.8l2.4-1.4v1.3
		C215.6,403.7,215.3,404.5,214.9,405.3z"/>
	<path class="st2" d="M216.8,405.1v-8l4.3-2.5v0.8l-3.6,2v2.8l3-1.7v0.8l-3,1.7v2.9l3.6-2v0.8L216.8,405.1z"/>
	<path class="st2" d="M227.3,399v-6l-1.9,5.9l-0.6,0.4l-1.9-3.7v6.1l-0.7,0.4v-8l0.7-0.4l2.3,4.4l2.2-6.9l0.7-0.4v8L227.3,399z"/>
	<path class="st2" d="M229.6,397.8v-8l4.3-2.5v0.8l-3.6,2v2.8l3-1.7v0.8l-3,1.7v2.9l3.6-2v0.8L229.6,397.8z"/>
	<path class="st2" d="M239.4,392.2l-3.7-4.3v6.4l-0.7,0.4v-8l0.7-0.4l3.7,4.3v-6.4l0.7-0.4v8L239.4,392.2z"/>
	<path class="st2" d="M243.7,382.5v7.2l-0.7,0.4v-7.3l-2,1.1v-0.8l4.8-2.7v0.8L243.7,382.5z"/>
	<path class="st0" d="M94.2,285.1c-0.5,0.4-1.2,0.4-1.8,0.2c-0.7-0.4-0.7-1.2-0.7-2.9c0-1.7,0-2.5,0.7-3.6c0.4-0.8,1-1.4,1.8-1.8
		c1.3-0.7,2.2-0.4,2.4,1l-0.8,0.4c-0.2-0.9-0.8-1.2-1.7-0.7c-0.5,0.3-0.9,0.7-1.2,1.2c-0.4,0.8-0.5,1.3-0.5,3s0,2.2,0.5,2.5
		c0.4,0.2,0.9,0.1,1.2-0.1c0.9-0.6,1.5-1.5,1.7-2.6l0.7-0.4C96.4,282.9,95.5,284.3,94.2,285.1z"/>
	<path class="st0" d="M101.7,280c-0.4,0.8-1,1.4-1.8,1.8c-0.5,0.4-1.2,0.4-1.8,0.2c-0.7-0.4-0.7-1.2-0.7-2.9s0-2.5,0.7-3.6
		c0.4-0.8,1-1.4,1.8-1.8c0.5-0.4,1.2-0.5,1.8-0.2c0.7,0.4,0.7,1.2,0.7,2.9C102.4,278.1,102.3,278.9,101.7,280z M101.1,274.4
		c-0.4-0.2-0.9-0.1-1.2,0.1c-0.5,0.3-0.9,0.7-1.2,1.3c-0.4,0.8-0.5,1.3-0.5,3s0,2.2,0.5,2.4c0.4,0.2,0.9,0.1,1.2-0.1
		c0.5-0.3,0.9-0.7,1.2-1.3c0.4-0.8,0.5-1.3,0.5-3C101.6,275.1,101.6,274.6,101.1,274.4L101.1,274.4z"/>
	<path class="st0" d="M107.6,277.4l-0.6-1.5l-3,1.7l-0.6,2.1l-0.8,0.4l2.6-9.4l0.6-0.4l2.5,6.5L107.6,277.4z M105.5,271.8l-1.3,5
		l2.6-1.5L105.5,271.8z"/>
	<path class="st0" d="M111,275.5c-0.5,0.4-1.2,0.4-1.8,0.2c-0.7-0.4-0.7-1.2-0.7-2.9c0-1.7,0-2.5,0.7-3.6c0.4-0.8,1-1.4,1.8-1.8
		c1.3-0.7,2.2-0.4,2.4,1l-0.8,0.4c-0.2-0.9-0.8-1.2-1.7-0.7c-0.5,0.3-0.9,0.7-1.2,1.2c-0.4,0.8-0.5,1.3-0.5,3s0,2.2,0.5,2.5
		c0.4,0.2,0.8,0.1,1.2-0.1c0.9-0.6,1.5-1.5,1.7-2.6l0.7-0.4C113.3,273.3,112.4,274.7,111,275.5z"/>
	<path class="st0" d="M118.7,271.1v-3.6l-3.3,1.9v3.6l-0.7,0.4v-8l0.7-0.4v3.6l3.3-1.9v-3.6l0.7-0.4v8L118.7,271.1z"/>
	<path class="st0" d="M265.2,435.2c-0.7,0.4-1.6,0.6-2.4,0.6c-1.3,0-1.9-0.3-3.4-1.1c-1.4-0.8-2.1-1.1-2.1-1.8
		c0.1-0.6,0.4-1.1,1-1.4c1.3-0.7,2.9-0.8,4.3-0.3l-0.7,0.4c-1-0.4-2-0.3-3,0.2c-0.4,0.2-0.6,0.5-0.7,0.9c0,0.5,0.4,0.8,1.9,1.5
		c1.4,0.8,1.9,1,2.8,1c0.6,0,1.1-0.1,1.6-0.4c0.8-0.5,0.9-1.1,0.2-1.7l0.7-0.4C266.5,433.5,266.3,434.5,265.2,435.2z"/>
	<path class="st0" d="M272.1,430.3c0,0.6-0.4,1.1-1,1.4c-0.7,0.4-1.6,0.6-2.4,0.6c-1.3,0-1.9-0.3-3.4-1.1c-1.4-0.8-2.1-1.1-2.1-1.8
		c0.1-0.6,0.4-1.1,1-1.4c0.7-0.4,1.6-0.6,2.4-0.6c1.3,0,1.9,0.3,3.4,1.1C271.4,429.2,272.1,429.6,272.1,430.3z M266.5,427.9
		c-0.6,0-1.1,0.1-1.6,0.4c-0.4,0.2-0.6,0.5-0.7,0.9c0,0.5,0.4,0.8,1.9,1.5c1.4,0.8,1.9,1,2.8,1c0.6,0,1.1-0.1,1.6-0.4
		c0.4-0.2,0.6-0.5,0.7-0.9c0-0.5-0.4-0.8-1.9-1.5C267.9,428.1,267.3,427.9,266.5,427.9z"/>
	<path class="st0" d="M280.1,426.3l-5.2-2.8l2.3,3.3l-0.6,0.4l-6-1.1l5.2,2.8l-0.7,0.4l-6.8-3.6l0.7-0.4l7,1.3l-2.7-3.8l0.7-0.4
		l6.8,3.6L280.1,426.3z"/>
	<path class="st0" d="M287.7,421.8l-5.2-2.8l2.3,3.3l-0.6,0.4l-6-1.1l5.2,2.8l-0.7,0.4l-6.8-3.6l0.7-0.4l7,1.3l-2.7-3.8l0.7-0.4
		l6.8,3.6L287.7,421.8z"/>
	<path class="st0" d="M292.7,419c-1.4,0.8-3.2,0.9-4.6,0.1l-4.6-2.4l0.7-0.4l4.5,2.4c1,0.6,2.3,0.6,3.4,0c1-0.6,0.9-1.3-0.1-1.9
		l-4.5-2.4l0.7-0.4l4.6,2.4C294,417.1,294,418.2,292.7,419z"/>
	<path class="st0" d="M301,414l-9-0.8l5.5,2.9l-0.7,0.4l-6.8-3.6l0.7-0.4l9,0.8l-5.5-2.9l0.7-0.4l6.8,3.6L301,414z"/>
	<path class="st0" d="M303.6,412.5l-6.8-3.6l0.7-0.4l6.8,3.6L303.6,412.5z"/>
	<path class="st0" d="M308.4,409.8c-0.7,0.4-1.6,0.6-2.4,0.6c-1.3,0-1.9-0.3-3.4-1.1c-1.4-0.8-2.1-1.1-2.1-1.8
		c0.1-0.6,0.4-1.1,1-1.4c1.3-0.7,2.9-0.8,4.3-0.3l-0.7,0.4c-1-0.4-2-0.3-3,0.2c-0.4,0.2-0.6,0.5-0.7,0.9c0,0.5,0.4,0.8,1.9,1.5
		c1.4,0.8,1.9,1,2.8,1c0.6,0,1.1-0.1,1.6-0.4c0.8-0.5,0.9-1.1,0.2-1.7l0.7-0.4C309.8,408.1,309.6,409,308.4,409.8z"/>
	<path class="st0" d="M316.1,405.2l-2.1-0.5l-2.9,1.7l1,1.1l-0.8,0.4l-4.4-5.1l0.6-0.3l9.3,2.2L316.1,405.2z M308.3,403.3l2.3,2.7
		l2.5-1.5L308.3,403.3z"/>
	<path class="st0" d="M313.1,400l6.2,3.3l-0.7,0.4l-6.2-3.3l-1.9,1.1l-0.7-0.3l4.6-2.7l0.7,0.3L313.1,400z"/>
	<path class="st0" d="M322.5,401.4l-6.8-3.6l0.7-0.4l6.8,3.6L322.5,401.4z"/>
	<path class="st0" d="M328.2,397.3c-0.1,0.6-0.4,1.1-1,1.4c-0.7,0.4-1.6,0.6-2.4,0.6c-1.3,0-1.9-0.3-3.4-1.1
		c-1.4-0.8-2.1-1.1-2.1-1.8c0.1-0.6,0.4-1.1,1-1.4c0.7-0.4,1.6-0.6,2.4-0.6c1.3,0,1.9,0.3,3.4,1.1
		C327.5,396.2,328.2,396.6,328.2,397.3z M322.6,394.9c-0.6,0-1.1,0.1-1.6,0.4c-0.4,0.2-0.6,0.5-0.7,0.9c0,0.5,0.4,0.8,1.9,1.5
		c1.4,0.8,1.9,1,2.8,1c0.6,0,1.1-0.1,1.6-0.4c0.4-0.2,0.6-0.5,0.7-0.9c0-0.5-0.4-0.8-1.9-1.5C324,395.1,323.5,394.9,322.6,394.9z"/>
	<path class="st0" d="M335.4,393.8l-9-0.8l5.5,2.9l-0.7,0.4l-6.8-3.6l0.7-0.4l9,0.8l-5.5-2.9l0.7-0.4l6.8,3.6L335.4,393.8z"/>
	<path class="st18" d="M50.3,201.8c-0.3,0-0.4,0-0.9-0.1c0,1.2-0.1,2.3-0.4,3.5c-0.2,1-0.6,2-1.1,3c0.8,0.9,1.7,1.5,2.8,2.1
		c-0.6,0.8-1.2,1.6-1.6,2.6c-1.1-0.7-2-1.5-2.8-2.5c-1.1,1.1-2.4,2-3.8,2.6c-0.5-0.9-1-1.6-1.8-2.3c1.5-0.5,2.9-1.4,4.1-2.5
		c-0.5-0.9-0.8-1.8-1.1-2.8c-0.2,0.3-0.5,0.5-0.7,0.8c-0.3-0.8-0.7-1.6-1.3-2.2c0.2-0.2,0.5-0.5,0.7-0.7c-0.1,0-0.3,0-0.4,0h-1.3
		c-0.3,0.3-0.5,0.5-0.9,0.8h0.8c0.3,0,0.6,0,0.8,0l1,1.4c0,0-0.1,0-0.1,0.1s-0.1,0-0.2,0.2c-0.5,0.5-1,1-1.6,1.4
		c0.8-0.1,1.2-0.2,2.3-0.4l0.1,2.1c-1.3,0.2-1.7,0.3-2.6,0.5v1.8c0,0.9-0.2,1.3-0.8,1.5s-1.3,0.3-2,0.3c-0.2,0-0.6,0-1.1,0
		c-0.1-0.8-0.3-1.5-0.6-2.3c0.6,0.1,1.2,0.1,1.7,0.1c0.3,0,0.3-0.1,0.3-0.3v-0.8c-0.6,0.1-1,0.1-1.6,0.2c-0.5,0-1.1,0.1-1.6,0.2
		l-0.3-2.3h0.4c0.6,0,1.7-0.1,3.1-0.2c0-0.3,0-0.5-0.1-0.8h0.5c0.3-0.2,0.6-0.4,0.8-0.7h-1.7c-0.6,0.4-1.2,0.7-1.9,1
		c-0.4-0.7-0.9-1.3-1.5-1.8c1.2-0.5,2.4-1.2,3.5-2H36c-0.6,0-1.1,0-1.7,0.1v-2.2c0.6,0.1,1.1,0.1,1.7,0.1h1.2v-0.9h-0.9
		c-0.5,0-1,0-1.4,0.1v-2.3c0.5,0.1,1,0.1,1.5,0.1h0.9V198c0-0.4,0-0.8-0.1-1.2h2.5c-0.1,0.4-0.1,0.8-0.1,1.2v0.3h0.2
		c0.3,0,0.6,0,1-0.1v1.4c0.4-0.7,0.8-1.5,1-2.3l2.2,0.9c-0.5,1-1,2-1.7,3c0.3,0,0.4,0,0.6,0v1.2c0.6-1.2,1.1-2.5,1.4-3.9
		c0.1-0.6,0.2-1.2,0.3-1.8l2.5,0.5c-0.1,0.2-0.1,0.3-0.1,0.6c-0.2,0.7-0.2,0.9-0.4,1.7h2c0.6,0,1.2,0,1.8-0.1L50.3,201.8z M39.6,201
		c0.2-0.3,0.5-0.6,0.7-0.9h-1v0.9H39.6z M45.6,201.7c-0.2,0.4-0.2,0.6-0.4,1c0.2,1.1,0.5,2.1,1,3.1c0.5-1.3,0.7-2.6,0.7-4
		L45.6,201.7z"/>
	<path class="st18" d="M59.4,207.3c-0.5,0-1,0-1.5,0.1c0-0.4,0-0.7,0.1-1.5l-1.3,0.4c-0.1-0.3-0.1-0.3-0.1-0.7
		c-0.6,0.1-0.6,0.1-0.9,0.1v5.2c0,0.6,0,1.3,0.1,1.9h-2.4c0.1-0.6,0.1-1.3,0.1-1.9v-5.1c-0.8,0-1.5,0-2.2,0.2l-0.2-2.5
		c0.3,0.1,0.6,0.1,0.8,0.1h0.6c0.2-0.2,0.2-0.3,0.4-0.6c-0.6-1-1.2-1.9-1.9-2.7l1.2-2.1l0.4,0.5c0.4-0.8,0.8-1.6,1-2.5l2.2,0.9
		c-0.1,0.2-0.3,0.4-0.3,0.6c-0.5,1-1,1.9-1.5,2.8c0.1,0.2,0.3,0.4,0.4,0.6c0.6-0.9,1.1-1.9,1.6-2.9l1.5,0.8v-1.4
		c0.7,0.1,1.3,0.1,2,0.1h1.7c0-0.4,0-0.8-0.1-1.2h2.7c-0.1,0.4-0.1,0.8-0.1,1.2h2c0.7,0,1.3,0,2-0.1v2.5c-0.6-0.1-1.1-0.1-1.7-0.1
		h-2.3v0.6h2c0.5,0,1,0,1.5-0.1c-0.1,0.6-0.1,1.1-0.1,1.7v3.4c0,0.6,0,1.1,0.1,1.7c-0.6-0.1-1.1-0.1-1.7-0.1h-0.8
		c0.9,1.1,2,1.9,3.3,2.4c-0.5,0.9-0.9,1.8-1.1,2.8c-1.3-0.8-2.4-1.9-3.2-3.2c0,0.1,0,0.2,0,0.3c0,0.3,0,0.4,0,0.7v1
		c0,0.5,0,1,0.1,1.5H61c0.1-0.5,0.1-1,0.1-1.5v-1c0-0.5,0-0.7,0-1c-0.8,1.3-1.8,2.4-3.1,3.2c-0.3-0.6-0.7-1.3-1.1-1.8l-0.7,0.2
		c0-0.3,0-0.6,0-0.8c0-1.1-0.1-2.3-0.3-3.4l1.5-0.2c0.2,1.1,0.3,2.1,0.3,3c0.8-0.6,1.6-1.3,2.2-2.1L59.4,207.3z M53.3,206.6
		c0,1.8-0.2,3.6-0.5,5.4l-1.7-0.9c0.4-1.6,0.5-3.2,0.5-4.8L53.3,206.6z M54.9,203.6c0.6,0,0.7,0,1.2-0.1c-0.1-0.4-0.2-0.5-0.3-1
		C55.4,203,55.3,203.1,54.9,203.6L54.9,203.6z M61.1,200.1h-2c-1,0-1.5,0-1.7,0c-0.7,1.1-0.9,1.3-1.5,2.2l1.2-0.4
		c0.3,0.7,0.5,1.4,0.7,2.2v-1.8c0-0.5,0-1.1-0.1-1.6c0.3,0,0.8,0.1,1.6,0.1h1.6L61.1,200.1z M60.2,202.5v0.7h1.1v-0.7H60.2z
		 M60.2,204.8v0.7h1.1v-0.7H60.2z M63.6,203.2h1.2v-0.7h-1.2C63.6,202.5,63.6,203.2,63.6,203.2z M63.6,205.4h1.2v-0.7h-1.2
		C63.6,204.7,63.6,205.4,63.6,205.4z"/>
	<path class="st18" d="M77.7,209.4c-0.5,0-0.8,0-1.2,0c0-0.5,0-1.1,0-1.8v-5.9c0-0.8,0-1.2,0-1.7c0.5,0,1,0,1.4,0h0.8
		c0.2-0.4,0.2-0.5,0.3-0.7h-1c-0.8,0-1.3,0-1.8,0c0.2,0.1,0.2,0.2,0.4,0.3c-0.4,0.8-0.7,1.6-0.9,2.5c-0.2-0.1-0.4-0.3-0.6-0.5v1.5
		c-0.4,0-0.8-0.1-1.3-0.1h-2.4c-0.4,0-0.9,0-1.3,0.1v-1.2c-0.4,0.3-0.8,0.6-1.2,0.9c-0.2-0.9-0.5-1.7-0.9-2.5
		c1.5-0.8,2.6-2.1,3.2-3.7h2.6c0.5,1,1.2,1.8,2,2.5v-2.4c0.7,0.1,1.3,0.1,2,0.1h4.7c0.7,0,1.4,0,2.1-0.1v2.5
		c-0.7-0.1-1.4-0.1-2.1-0.1h-0.9c-0.1,0.3-0.2,0.4-0.3,0.7h1.1c1.1,0,1.4,0,1.8,0c-0.1,0.5-0.1,1.1-0.1,1.6v5.8c0,0.7,0,1.4,0.1,1.9
		c-0.5,0-1.1-0.1-1.5-0.1h-0.4c0.8,0.7,1.8,1.2,2.8,1.5c-0.6,0.6-1.1,1.3-1.5,2.1c-1.3-0.6-2.4-1.4-3.4-2.4l1.3-1.2h-2.7l1.4,1.1
		c-1.1,1.1-2.3,1.9-3.7,2.5c-0.3-0.7-0.8-1.3-1.3-1.9c-0.5,0.2-1.1,0.3-1.7,0.3c0-0.8-0.2-1.6-0.5-2.3v1.8c0,0.6,0,1.3,0.1,1.9h-2.7
		c0.1-0.6,0.1-1.3,0.1-1.9v-4.6H70c-0.4,0-0.9,0-1.3,0.1v-2.5c0.5,0.1,1.1,0.1,1.6,0.1h4.2c0.6,0,1.1,0,1.5-0.1
		c-0.1,0.6-0.1,1.2-0.1,1.8v3.5c0.1,0.6-0.1,1.2-0.4,1.7c0.9-0.3,1.6-0.8,2.3-1.4h-0.1V209.4z M71.6,201h2.6c-0.6-0.6-1.1-1.3-1.5-2
		c-0.4,0.7-0.8,1.4-1.4,2H71.6z M72.9,208.9c0.2,0,0.3,0,0.5,0.1c0.2,0,0.3-0.1,0.3-0.2v-2.4h-0.8V208.9z M79,202.7h2.6v-0.6H79
		V202.7z M79,205.1h2.6v-0.7H79V205.1z M79,207.5h2.6v-0.7H79V207.5z"/>
	<path class="st18" d="M88.9,200.7c-0.9-0.9-1.9-1.7-2.9-2.4l1.8-1.7c1,0.6,2,1.4,2.9,2.2v-1.1c0.5,0.1,1,0.1,1.6,0.1h0.3
		c-0.2-0.3-0.4-0.6-0.7-0.9l2.7-0.4c0.2,0.4,0.5,0.9,0.7,1.3h1.5c0.3-0.4,0.5-0.8,0.6-1.3l2.7,0.4c-0.1,0.2-0.2,0.3-0.3,0.5
		c-0.1,0.1-0.1,0.3-0.2,0.4h0.6c0.6,0,1.2,0,1.7-0.1v2c-0.4,0-0.9-0.1-1.7-0.1h-2.7c-0.1,0.2-0.1,0.2-0.2,0.4h2.3c0.7,0,1.1,0,1.5,0
		c0,0.4-0.1,0.8-0.1,1.2v3c0,0.4,0,0.8,0.1,1.2c-0.5,0-0.5,0-1.3,0h-6.6c-0.9,0-1,0-1.5,0c0-0.4,0.1-0.8,0.1-1.1v-3
		c0-0.4,0-0.8-0.1-1.2c0.3,0,0.8,0,1.5,0h1.5c0.1-0.1,0.2-0.3,0.2-0.4h-2.2c-0.8,0-1.3,0-1.7,0.1V199L88.9,200.7h0.4
		c0.4,0,0.9,0,1.3-0.1c-0.1,0.6-0.1,1.1-0.1,1.7v2.2c0.2,0.5,0.7,0.9,1.2,1c0.6,0.2,1.4,0.2,3.6,0.2c3.2,0,5.1,0,6.8-0.2
		c-0.3,0.6-0.5,1.3-0.6,2H99v0.4h0.5c0.8,0,1.6,0,2.3-0.1v2.2c-0.8-0.1-1.6-0.1-2.4-0.1h-0.5v1.2c0.1,0.6-0.2,1.1-0.7,1.4
		c-0.8,0.3-1.6,0.4-2.4,0.3h-1.3c-0.1-0.8-0.3-1.5-0.7-2.2c0.6,0.1,1.3,0.2,1.9,0.2c0.5,0,0.6-0.1,0.6-0.4V210h-4.7
		c0.7,0.5,1.1,0.8,1.7,1.3l-2.1,1.7c-0.7-0.8-1.5-1.5-2.4-2.2l1.2-0.9h-1.7c-0.8,0-1.6,0-2.4,0.1v-2.2c0.8,0.1,1.5,0.1,2.3,0.1h8.1
		v-0.4h-1.9c-2.4,0-3.2-0.1-4.1-0.5c-0.5-0.2-0.9-0.5-1.2-1c-0.8,0.6-1.7,1.1-2.6,1.5l-0.9-2.4c0.8-0.2,1.5-0.6,2.2-1v-1.4H87
		c-0.4,0-0.7,0-1.1,0.1v-2.4c0.5,0.1,1,0.1,1.4,0.1L88.9,200.7z M93.9,201.6h4.4v-0.5h-4.4V201.6z M93.9,202.9h4.4v-0.5h-4.4V202.9z
		 M93.9,204.2h4.4v-0.5h-4.4V204.2z"/>
	<path class="st18" d="M112.5,210.8c0.1,0.7-0.2,1.3-0.8,1.7c-0.9,0.3-1.8,0.5-2.7,0.4h-1.1c-0.1-0.8-0.3-1.5-0.5-2.2
		c0.6,0.1,1.2,0.1,1.8,0.1c0.7,0,0.9-0.1,0.9-0.4v-0.5h-4.3c-0.8,0-1.7,0-2.5,0.1v-2.3c0.8,0.1,1.6,0.1,2.5,0.1h4.3
		c0-0.2,0-0.3,0-0.6h0.8c0.4-0.1,0.7-0.3,1-0.5h-3.5c-0.6,0-1.2,0-1.9,0.1v-2c0.5,0.1,1.1,0.1,1.6,0.1h5.4c0.4,0,0.9,0,1.3-0.1
		l1,1.2c-0.3,0.2-0.6,0.4-0.9,0.7c-0.6,0.4-1.1,0.8-1.8,1.1h3.4c0.8,0,1.7,0,2.5-0.1v2.2c-0.8-0.1-1.7-0.1-2.5-0.1h-4L112.5,210.8z
		 M108.3,201.3c0.5-0.1,1-0.3,1.5-0.4c-0.4-0.2-0.6-0.3-1.2-0.5l0.7-0.6c-0.3-0.4-0.6-0.7-1-1c0.6-0.2,1.1-0.4,1.6-0.7
		c-0.4-0.2-0.6-0.3-1.2-0.6l1.2-1c0.5,0.2,1,0.4,1.4,0.7c0.4-0.3,0.7-0.6,1-0.9l1.5,0.9c-0.5,0.4-0.7,0.6-1,0.9
		c0.3,0.2,0.5,0.3,1,0.7l-0.9,0.8l1,0.7c-0.5,0.4-0.7,0.5-1,0.7l0.9,0.6l-1.2,1.1h3.3v-0.5h-1c-0.5,0-0.7,0-0.9,0v-1.3
		c0.3,0,0.6,0,0.9,0h1.1v-0.4h-1.1c-0.3,0-0.6,0-0.9,0.1v-1.3c0.3,0,0.6,0,0.9,0h1.2v-0.5h-1c-0.4,0-0.7,0-1,0V197
		c0.4,0.1,0.8,0.1,1.3,0.1h2c0.4,0,0.8,0,1.2-0.1c0,0.4-0.1,0.9-0.1,1.3l-0.2,4.5c0.3,0,0.7,0,1-0.1c-0.1,0.5-0.1,1-0.1,1.4v0.7
		c0,0.5,0,0.9,0.1,1.4h-2.5v-1.7H106v1.7h-2.4c0.1-0.5,0.1-1,0.1-1.4v-0.7c0-0.5,0-1-0.1-1.4c0.3,0,0.6,0,1,0.1l-0.2-4
		c0-0.5-0.1-0.9-0.1-1.2c1.3-0.1,2.5-0.4,3.7-0.9l1,1.8l-0.2,0.1c-0.7,0.2-1.4,0.4-2.1,0.5v0.4h1c0.3,0,0.6,0,0.9,0v1.3
		c-0.3,0-0.6-0.1-0.9,0h-1v0.4h1c0.3,0,0.6,0,0.9,0L108.3,201.3z M109.2,202.7c-0.3-0.4-0.6-0.8-1-1.2v0.8c-0.3,0-0.6,0-0.9,0h-0.9
		v0.5L109.2,202.7z M112.3,202.7c-0.3-0.3-0.7-0.6-1-0.8c-0.6,0.3-1.2,0.6-1.9,0.8H112.3z M112,199.6c-0.2-0.2-0.4-0.4-0.7-0.6
		c-0.3,0.2-0.7,0.4-1,0.6c0.4,0.2,0.5,0.3,1,0.5C111.5,199.9,111.8,199.7,112,199.6L112,199.6z"/>
	<path class="st0" d="M32.3,221.4c0,1.2-0.2,2.3-0.7,3.4c0.4,0.4,0.9,0.8,1.3,1.3l-1,1.3c-0.3-0.3-0.6-0.7-1-1.1
		c-0.5,0.7-1,1.3-1.7,1.8c-0.3-0.4-0.7-0.8-1.1-1.1c0.7-0.5,1.2-1.1,1.7-1.8l-1.5-1.4c0.1-0.6,0.3-1.3,0.4-2.1h-0.5l-0.1-1.4h0.8
		c0.1-0.7,0.2-1.5,0.2-2.1l1.5,0.1c-0.1,0.6-0.1,1.3-0.2,2h0.4v-0.6h1.4v0.5h0.5v1.3L32.3,221.4z M30.5,223.8
		c0.2-0.7,0.4-1.5,0.4-2.3h-0.6c-0.1,0.6-0.2,1.2-0.3,1.7L30.5,223.8z M38.1,223.7h-2v2.7c0,0.7-0.1,1.1-0.7,1.3
		c-0.6,0.2-1.3,0.3-1.9,0.2c-0.1-0.5-0.3-1-0.5-1.4c0.5,0,1.1,0,1.3,0s0.2,0,0.2-0.2v-2.7h-2.1v-1.4h2.1v-0.9
		c0.4-0.4,0.8-0.9,1.1-1.4h-2.9v-1.3h3.8l0.5-0.1l1,0.7c-0.5,0.9-1.2,1.6-1.9,2.4v0.7h2C38.1,222.3,38.1,223.7,38.1,223.7z"/>
	<path class="st0" d="M44,218c0,0.5,0,1.1-0.1,1.7c0.2,1.5,0.8,5.2,4.4,6.8c-0.5,0.4-0.8,0.8-1.1,1.3c-1.9-0.9-3.3-2.6-4-4.6
		c-0.6,2-1.9,3.6-3.7,4.7c-0.4-0.5-0.8-0.9-1.3-1.2c4.2-2.3,3.9-6.8,4-8.7H44z"/>
	<path class="st0" d="M58.2,221.6H56v4.4c0,0.9-0.2,1.3-0.7,1.6c-0.8,0.3-1.6,0.4-2.3,0.3c-0.1-0.6-0.3-1.1-0.5-1.6
		c0.6,0,1.3,0,1.6,0c0.2,0,0.3-0.1,0.3-0.3v-3.9c-1.1,1.9-2.7,3.6-4.6,4.8c-0.3-0.5-0.8-1-1.2-1.4c1.7-0.9,3.2-2.3,4.2-3.9h-3.9V220
		h5.4v-2H56v2h2.1v1.6H58.2L58.2,221.6z"/>
	<path class="st0" d="M68.7,219.2c-0.3,1-0.8,2.2-1.1,3.1c0.6,0.7,0.9,1.5,0.9,2.4c0.1,0.6-0.1,1.3-0.6,1.7
		c-0.2,0.2-0.5,0.3-0.8,0.3s-0.6,0-0.9,0c0-0.5-0.1-1-0.4-1.4v2.6h-1.5v-8.5c-0.2,0.5-0.5,1.1-0.8,1.6H64v1.3h-1.3
		c-0.2,0.2-0.3,0.4-0.5,0.6h1.6v4.8h-1.4v-0.2h-1.3v0.5h-1.3v-2.9c-0.1,0.1-0.2,0.1-0.3,0.2c-0.2-0.5-0.5-0.9-0.8-1.3
		c0.9-0.4,1.7-1,2.4-1.6H59v-1.3h1.7v-0.7h-1.2v-1.3h1.2v-1h1.4v1H63v0.5c0.1-0.3,0.3-0.7,0.4-1l1.2,0.3v-0.3h3l0.2-0.1L68.7,219.2z
		 M62.4,224.1h-1.3v0.5h1.3V224.1z M62.4,226.2v-0.5h-1.3v0.5H62.4z M62,221c0.1-0.2,0.3-0.4,0.4-0.7h-0.5L62,221L62,221z
		 M65.9,225.3c0.2,0,0.3,0,0.5,0c0.1,0,0.3,0,0.4-0.1c0.2-0.1,0.2-0.3,0.2-0.7c0-0.8-0.3-1.5-0.9-2c0.2-0.7,0.5-1.7,0.7-2.5h-1
		L65.9,225.3z"/>
	<path class="st0" d="M74.7,226.4h0.6c0.7,0,2.6,0,3.5,0c-0.2,0.4-0.4,0.9-0.5,1.4h-3.1c-1.8,0-3.1-0.2-4-1.3
		c-0.4,0.6-0.8,1.1-1.4,1.5c-0.3-0.4-0.7-0.8-1.1-1.1c1.1-0.7,1.7-1.8,1.9-3l1.5,0.2c-0.1,0.3-0.1,0.6-0.2,0.9
		c0.3,0.5,0.7,0.9,1.3,1.1v-2.4h-4v-1.3h9.3v1.3h-3.8v0.6h3.1v1.3h-3.1C74.7,225.6,74.7,226.4,74.7,226.4z M77.6,222.1h-7.4v-3.8
		h7.4V222.1z M76,219.4h-4.4v0.3H76V219.4z M76,220.7h-4.4v0.3H76V220.7z"/>
	<path class="st0" d="M81.9,220.3c-0.2,0.9-0.8,1.6-1.7,1.9c-0.2-0.4-0.5-0.7-0.9-1c0.5-0.1,0.9-0.5,1.1-1h-1.2V219h1.3v-1H82v1h0.4
		v-1h1.3v1h0.6v-1h1.3v1H86v-1h1.3v1h1.3v1.2h-1.3v0.1c0,0.3,0,0.4,0.2,0.4H88c0.2,0,0.4,0,0.6-0.1c0,0.3,0.1,0.8,0.1,1.1
		c-0.2,0.1-0.5,0.1-0.7,0.1h-0.7c-1.2,0-1.4-0.5-1.4-1.6v-0.1h-0.4v1.6h-3.3v-1.6L81.9,220.3z M88.7,222.2v2.4h-1v1.4
		c0,0.6-0.1,1-0.6,1.2c-0.6,0.2-1.1,0.3-1.7,0.2c-0.1-0.5-0.2-0.9-0.5-1.3c0.4,0,1,0,1.1,0s0.2,0,0.2-0.1v-0.8h-1.5v2.7h-1.5v-2.7
		h-1.3v2.1h-1.4v-2.7h-1v-2.4L88.7,222.2L88.7,222.2z M80.8,223.4v0.6h2.4v-0.5h1.5v0.5h2.5v-0.6H80.8z M83.7,220.3v0.5h0.6v-0.5
		H83.7z"/>
	<path class="st0" d="M98.6,223.3v4.7h-1.7v-0.6h-7.1v-4.1h1.7v2.6h1.9v-3.1h-3v-3.9H92v2.5h1.3v-3.3H95v3.3h1.4v-2.5h1.7v3.9H95
		v3.1h1.9v-2.6L98.6,223.3z"/>
	<path class="st0" d="M108.1,224.4c-0.3-0.3-0.7-0.7-1.2-1.1c-0.2,0.3-0.4,0.5-0.6,0.7c-0.3-0.2-0.5-0.4-0.8-0.5
		c1,1.3,2.4,2.2,3.9,2.8c-0.4,0.4-0.8,0.9-1.1,1.4c-1.2-0.6-2.3-1.4-3.1-2.4v2.7h-1.6v-2.6c-0.9,1-1.9,1.8-3.1,2.3
		c-0.3-0.5-0.7-0.9-1.1-1.3c1.7-0.6,3.1-1.7,4.2-3.2v-2.3h-1.9l1.3,0.2c-0.1,0.4-0.2,0.7-0.3,1.1c0.3,0.3,0.7,0.6,0.9,0.8l-1,1.1
		c-0.2-0.2-0.4-0.4-0.6-0.6c-0.3,0.5-0.7,1-1.1,1.3c-0.4-0.4-0.7-0.7-1.2-1c0.9-0.7,1.6-1.8,1.8-2.9h-1.6v-1.5h3.7v-1.2h1.6v1.2h3.8
		v1.5h-2.4l1.2,0.2c-0.1,0.4-0.2,0.7-0.3,1.1c0.6,0.4,1.2,0.9,1.6,1.2L108.1,224.4z M105.2,220.8v2.2l0,0c0.6-0.6,1-1.4,1.2-2.3
		L105.2,220.8z"/>
	<path class="st0" d="M119.3,219.7c0,0,0,0.5,0,0.7c-0.1,4.6-0.2,6.3-0.7,6.9c-0.2,0.4-0.7,0.6-1.1,0.7c-0.6,0.1-1.1,0.1-1.7,0
		c-0.1-0.5-0.2-1-0.5-1.5c0.5,0,1.1,0.1,1.6,0.1c0.2,0,0.3-0.1,0.5-0.2c0.3-0.3,0.4-1.9,0.5-5.3h-2c-0.3,0.5-0.6,1.1-0.9,1.6
		c-0.3-0.2-0.6-0.5-0.9-0.7v5h-2.7v0.7h-1.3v-7.9h1.2c0.1-0.6,0.2-1.1,0.2-1.7l1.7,0.2c-0.2,0.5-0.4,1-0.5,1.5h1.5v1.4
		c0.6-1,1-2,1.2-3.1l1.5,0.3c-0.1,0.4-0.3,0.8-0.4,1.2L119.3,219.7z M112.8,221.1h-1.3v1.4h1.3V221.1z M112.8,225.6v-1.8h-1.3v1.8
		H112.8z M116.2,225.3c-0.4-0.8-0.8-1.6-1.3-2.4l1.2-0.7c0.5,0.7,1.1,1.7,1.5,2.3L116.2,225.3z"/>
	<line class="st19" x1="298.7" y1="358.8" x2="298.7" y2="399.8"/>
	<line class="st19" x1="263.1" y1="338.2" x2="298.7" y2="358.8"/>
	<polygon class="st0" points="303.2,398.1 298.7,405.8 294.3,398.1 	"/>
	<polygon class="st20" points="234.5,368.3 230.1,376 225.6,368.3 	"/>
	<polygon class="st21" points="234.5,378.3 230.1,386 225.6,378.3 	"/>
	<polygon class="st2" points="234.5,358.2 230.1,365.9 225.6,358.2 	"/>
	<polygon class="st22" points="40.9,424.5 48.6,429 40.9,433.4 	"/>
	<polygon class="st23" points="50.9,424.5 58.6,429 50.9,433.4 	"/>
	<polygon class="st0" points="30.8,424.5 38.5,429 30.8,433.4 	"/>
	<polygon class="st22" points="269.7,304.6 274.1,296.9 278.6,304.6 	"/>
	<polygon class="st23" points="269.7,294.6 274.1,286.8 278.6,294.6 	"/>
	<polygon class="st0" points="269.7,314.7 274.1,307 278.6,314.7 	"/>
	<polygon class="st0" points="117.7,334.8 113.2,342.5 108.8,334.8 	"/>
	<path class="st24" d="M68.6,349.2c-5.9-11.6-1.3-25.8,10.3-31.8c11.6-5.9,25.8-1.3,31.8,10.3c1.7,3.3,2.6,7,2.6,10.7"/>
	<path class="st2" d="M254,265.8c-0.1-1,0.3-2,1.1-2.7l0.6,0.6c-0.6,0.6-0.9,1.4-0.9,2.2c0,1.2,0.6,1.9,1.5,1.9c0.4,0,0.7-0.1,1-0.4
		c0.2-0.3,0.4-0.7,0.4-1l0.1-0.9c0.1-0.5,0.3-1,0.6-1.5c0.4-0.4,0.9-0.6,1.5-0.6c1.3,0,2.3,1,2.3,2.6c0,0.9-0.3,1.7-0.9,2.4
		l-0.6-0.6c0.5-0.5,0.7-1.2,0.7-1.9c0-1.1-0.6-1.7-1.5-1.7c-0.3,0-0.7,0.1-0.9,0.4c-0.2,0.3-0.4,0.7-0.4,1.1l-0.1,0.9
		c0,0.5-0.2,1-0.6,1.5c-0.4,0.4-1,0.7-1.6,0.7C254.9,268.6,254,267.5,254,265.8z"/>
	<path class="st2" d="M254.1,275.4l4.3-2.4l-2-1.7h-2.2v-0.9h8v0.9h-4.6l4.6,3.7v1l-3.2-2.5l-4.9,2.9V275.4z"/>
	<path class="st2" d="M254.1,277.7h8v0.9h-8V277.7z"/>
	<path class="st2" d="M254.1,280.8h8v0.9h-7.2v4.1h-0.8V280.8z"/>
	<path class="st2" d="M254.1,287.3h8v0.9h-7.2v4.1h-0.8V287.3z"/>
	<line class="st25" x1="168.8" y1="564.4" x2="168.8" y2="486.1"/>
	<polygon class="st0" points="163.9,491 168.8,482.5 173.8,491 	"/>
	<polygon class="st0" points="132.4,260.3 127.4,268.8 122.5,260.3 	"/>
	<line class="st26" x1="127.4" y1="189.9" x2="127.4" y2="266.7"/>
</g>
<g>
	<path class="st4" d="M186.5,544.7c0.2,0.1,0.2,0.2,0.3,0.3c0.3-0.3,0.6-0.6,0.8-1c-0.6,0-0.9,0-1.3,0c0-0.3,0-0.7,0-1.4v-2.4
		c0-0.7,0-1.2-0.1-1.6c0.6,0.1,1.2,0.1,1.8,0.1h3.8c0.6,0,1.2,0,1.8-0.1c-0.1,0.7-0.1,1.4-0.1,2.1v11.5c0,1.1-0.3,1.7-0.9,2
		c-0.7,0.2-1.5,0.3-2.2,0.3h-0.9c0-0.7-0.2-1.4-0.3-2.1H188v0.8c0,0.4,0,0.8,0.1,1.2h-2c0.1-0.4,0.1-0.8,0.1-1.2v-3
		c0-0.2,0-0.5-0.1-0.7h2c0,0.2-0.1,0.5-0.1,0.7v0.7h0.7v-0.5c0-0.2,0-0.4-0.1-0.7h1.8c0,0.3-0.1,0.6-0.1,0.9v1.5c0.1,0,0.1,0,0.2,0
		c0.3,0,0.4-0.1,0.4-0.4v-2.4l-1.2,0.4c-0.1-0.3-0.1-0.4-0.1-0.6c-1,0.1-1.6,0.2-3.3,0.3l0,0l-0.8,0.3c0,0.2,0,0.2-0.1,1.1
		c0,1.5-0.4,2.5-1.3,3.1c-0.6,0.5-1.3,0.7-2.1,0.9c-0.2-0.6-0.5-1.2-1-1.7c1.2-0.2,1.7-0.3,2.1-0.7h-0.9c-0.5,0-0.7,0-1,0
		c0-0.3,0-0.6,0-0.9v-0.9c0-0.3,0-0.6-0.1-0.9h1.8c0,0.2-0.1,0.4-0.1,0.7v0.4h0.7v-0.5c0-0.3,0-0.5-0.1-0.8h1.4
		c0-0.2-0.1-0.2-0.1-0.4c-0.8,0.1-1.6,0.1-3.3,0.2l-0.6,0.1l0.2-1.7c0.3,0,0.5,0,0.8,0l0.6-0.5c-0.5-0.5-1-0.9-1.6-1.2v6.2
		c0,0.8,0,1.5,0.1,2.3h-2.7c0.1-0.8,0.1-1.6,0.1-2.4v-11.4c0-0.7,0-1.4-0.1-2.1c0.6,0.1,1.2,0.1,1.8,0.1h3.7c0.6,0,1.2,0,1.8-0.1
		c0,0.4,0,0.9,0,1.6v2.4c0,0.8,0,1.1,0,1.4c-0.4,0-1,0-1.4,0h-0.5l0.8,0.5l-0.1,0.2c0,0,0,0.1-0.1,0.1c-0.3,0.4-0.7,0.8-1,1.2
		c0.1,0.1,0.2,0.2,0.3,0.3c0.4-0.4,0.8-0.9,1.1-1.4l1.1,0.7L186.5,544.7z M180.9,540.8h2.2v-0.5h-2.2V540.8z M180.9,542.5h2.2v-0.6
		h-2.2V542.5z M181.9,544.7l0.3,0.2c0.3-0.3,0.5-0.6,0.7-1h-2.1v1.9L181.9,544.7z M185.7,546.7c0.2,0.5,0.3,0.7,0.4,1h0.4l0.6-0.5
		c-0.5-0.5-0.9-0.9-1.5-1.2c-0.6,0.6-1.2,1.2-1.8,1.7c0.6,0,0.7,0,1-0.1c-0.1-0.2-0.1-0.3-0.2-0.6L185.7,546.7z M189,544.5
		c-0.4,0.5-0.8,0.9-1.2,1.3c0.1,0.1,0.2,0.2,0.3,0.3c0.4-0.4,0.8-0.9,1.1-1.4l1.3,0.9c-0.7,0.7-1.4,1.4-2.1,2c0.5,0,0.6,0,1-0.1
		c-0.1-0.2-0.1-0.3-0.2-0.6l1.2-0.3c0.3,0.6,0.5,1.3,0.7,2v-4.7h-2.8L189,544.5z M188.8,540.8h2.3v-0.5h-2.3V540.8z M188.8,542.5
		h2.3v-0.6h-2.3V542.5z"/>
	<path class="st4" d="M208.8,552c1,0,1.8,0,2.9-0.1c-0.3,0.8-0.5,1.7-0.6,2.5h-1.7c-3.7,0-5.2-0.4-6.5-1.8c-0.4,0.8-0.9,1.5-1.5,2.2
		c-0.3-0.6-0.7-1.1-1.1-1.6c-0.9,0.3-2.8,0.7-3.8,1c-0.3,0.1-0.6,0.1-0.9,0.2l-0.3-2.6c0.7,0,1.4-0.1,2.1-0.2v-4.4H197
		c-0.5,0-1,0-1.5,0.1v-2.4c0.5,0.1,1,0.1,1.5,0.1h0.4v-0.8c-0.3,0-0.6,0-0.8,0.1v-0.7c-0.3,0.3-0.4,0.3-0.7,0.7
		c-0.2-0.9-0.5-1.7-0.9-2.5c1.2-0.8,2-2,2.5-3.4h2.4c0.3,0.7,0.7,1.3,1.2,1.8V539c0.4,0.1,0.8,0.1,1.2,0.1h0.6c0.3,0,0.7,0,1-0.1
		l1,1.1v-0.9c0.4,0.1,0.8,0.1,1.3,0.1h0.1c0-0.3,0-0.7-0.1-1h2.4c0,0.3-0.1,0.7-0.1,1h1.1c0.5,0,1,0,1.4-0.1c0,0.4,0,0.7,0,1.3v1.2
		c0.3,0,0.4,0,0.6-0.1v2.4c-0.2,0-0.4-0.1-0.6-0.1v1.1c0,0.4,0,0.9,0.1,1.3h-1.4h-1.2v0.5h1.3c0.7,0,1.1,0,1.5-0.1v1.9
		c-0.5,0-0.9-0.1-1.5-0.1h-1.3v0.6h1.4c0.5,0,1.1,0,1.6-0.1v2c-0.5-0.1-1.1-0.1-1.6-0.1h-1.4v1L208.8,552z M195.7,551.4
		c-0.2-1.1-0.4-2.1-0.8-3.2l1.4-0.7c0.3,1,0.6,2.1,0.7,3.1L195.7,551.4z M199.5,542.2c-0.4-0.5-0.8-1-1.1-1.6
		c-0.3,0.6-0.6,1.1-1,1.6H199.5z M201.7,546.8c0.1,0.5,0.2,1,0.4,1.5c0.1-0.7,0.2-1.4,0.2-2.1h-0.8c-0.2,0-0.3,0-0.4,0h-0.3
		c-0.1,0-0.1,0-0.2,0v-2.1c0.5-0.8,0.9-1.7,1.2-2.6h-0.3H201c-0.3,0.5-0.6,0.9-0.9,1.3v1.5c-0.3,0-0.6-0.1-0.9-0.1v0.8
		c0.4,0,0.7,0,1.1-0.1v2.4c-0.4-0.1-0.7-0.1-1.1-0.1v2.9c0.3-0.8,0.4-1.6,0.5-2.4l0.4,0.2L201.7,546.8z M200.5,552
		c0.3-0.4,0.6-0.9,0.9-1.4c-0.3-0.5-0.5-1-0.7-1.5c-0.1,0.5-0.3,1.1-0.5,1.6l-0.9-0.5v1c0.4-0.1,0.7-0.1,1.2-0.3V552z M203.8,544
		c0.3,0,0.5,0,0.8,0c-0.1,0.4-0.1,0.8-0.1,1.2c0,1.8-0.3,3.7-0.8,5.4c0.6,0.7,1.5,1.1,2.4,1.3V551h-0.3c-0.7,0-1,0-1.5,0.1v-2
		c0.4,0,0.9,0.1,1.5,0.1h0.3v-0.6c-0.5,0-1,0-1.3,0.1v-2c0.4,0,0.8,0.1,1.3,0.1v-0.5h-0.2c-0.4,0-0.7,0-1.1,0v-2
		c0.4,0.1,0.7,0.1,1.1,0.1h0.1v-0.7h-1.2c-0.3,0-0.5,0-0.8,0v-2c0.5,0.1,1.1,0.1,1.6,0.1h0.4v-0.6h-0.2c-0.4,0-0.8,0-1.3,0v-1.1
		c-0.2,0.3-0.3,0.6-0.4,0.9c-0.4,1-0.8,2-1.2,3L203.8,544L203.8,544z M209,541.1h-0.8v0.6h0.8V541.1z M208.2,543.7v0.6h0.8v-0.6
		H208.2z"/>
	<path class="st4" d="M214.5,540c0-0.6,0-1.2-0.1-1.8h2.8c-0.1,0.6-0.1,1.2-0.1,1.8v1.2h0.1c0.4,0,0.9,0,1.3-0.1v2.6
		c-0.5,0-0.9-0.1-1.3-0.1H217v2l1.5-0.3v2.4c-0.7,0.2-0.8,0.2-1.5,0.4v4.3c0,1.5-0.7,2-2.9,2c-0.3,0-0.7,0-1.4-0.1
		c-0.1-0.9-0.2-1.8-0.6-2.6c0.6,0.1,1.2,0.1,1.8,0.2c0.4,0,0.4-0.1,0.4-0.5v-2.7c-0.1,0-0.3,0.1-0.4,0.1c-0.3,0.1-0.6,0.1-1,0.2
		c-0.2,0-0.3,0.1-0.5,0.1l-0.4-2.8c0.8,0,1.5-0.1,2.3-0.2v-2.5h-0.8c-0.4,0-0.8,0-1.3,0.1v-2.6c0.4,0.1,0.9,0.1,1.3,0.1h0.7
		L214.5,540z M221.8,538.2c-0.1,0.5-0.1,1-0.1,1.5c1.7-0.2,3.4-0.7,4.9-1.5l1.9,2.2c-2.2,0.6-4.5,1.1-6.8,1.4v0.4
		c0,0.5,0.2,0.5,1.8,0.5c1.8,0,2.2,0,2.4-0.3c0.2-0.2,0.2-0.6,0.3-1.5c0.8,0.3,1.7,0.5,2.5,0.6c-0.1,1.4-0.2,1.9-0.5,2.3
		c-0.6,0.9-1.4,1.1-5,1.1c-3.4,0-4.2-0.3-4.2-1.8v-3.6c0-0.5,0-1.1-0.1-1.6h2.9L221.8,538.2L221.8,538.2z M219.1,547.3
		c0-0.9,0-1.1,0-1.6c0.5,0.1,1.1,0.1,1.6,0.1h5.5c0.6,0,1.1,0,1.7-0.1c-0.1,0.5-0.1,1.1-0.1,1.6v5.4c0,0.6,0,1.2,0.1,1.8h-2.7v-0.6
		h-3.5v0.6H219c0.1-0.6,0.1-1.1,0.1-1.7V547.3z M221.7,548.8h3.5V548h-3.5V548.8z M221.7,551.7h3.5v-0.9h-3.5V551.7z"/>
	<path class="st4" d="M232.6,542.3c-0.9-0.9-1.8-1.7-2.9-2.4l1.8-1.7c1,0.6,2,1.4,2.9,2.2v-1.1c0.5,0.1,1,0.1,1.6,0.1h0.3
		c-0.2-0.3-0.4-0.6-0.7-0.9l2.7-0.4c0.2,0.4,0.5,0.9,0.7,1.3h1.5c0.3-0.4,0.5-0.8,0.6-1.3l2.7,0.4c-0.1,0.1-0.1,0.1-0.3,0.5
		c-0.1,0.2-0.1,0.2-0.2,0.4h0.6c0.6,0,1.2,0,1.7-0.1v2c-0.4,0-0.9,0-1.7,0h-2.7c-0.1,0.2-0.1,0.2-0.2,0.4h2.3c0.7,0,1.1,0,1.5,0
		c0,0.4-0.1,0.8-0.1,1.2v3c0,0.4,0,0.8,0.1,1.2c-0.5,0-0.5,0-1.3,0h-6.6c-0.9,0-1,0-1.5,0c0-0.4,0.1-0.8,0.1-1.2v-3
		c0-0.4,0-0.8-0.1-1.2c0.3,0,0.8,0,1.5,0h1.5c0.1-0.1,0.1-0.3,0.2-0.4h-2.2c-0.8,0-1.3,0-1.7,0v-0.8L232.6,542.3l0.4,0.1
		c0.4,0,0.9,0,1.3-0.1c-0.1,0.5-0.1,1.1-0.1,1.7v2.2c0.2,0.5,0.7,0.9,1.2,1c1.2,0.2,2.4,0.3,3.6,0.2c3.2,0,5.1,0,6.8-0.2
		c-0.3,0.6-0.5,1.3-0.6,2c-0.8,0-0.8,0-2.5,0v0.4h0.5c0.8,0,1.6,0,2.3-0.1v2.2c-0.8-0.1-1.6-0.1-2.4-0.1h-0.5v1.2
		c0,0.6-0.2,1.1-0.7,1.3c-0.8,0.3-1.6,0.4-2.4,0.3c-0.2,0-0.6,0-1.3,0c-0.1-0.8-0.4-1.5-0.7-2.2c0.6,0.1,1.3,0.1,2,0.2
		c0.5,0,0.6-0.1,0.6-0.4v-0.4h-4.7c0.6,0.4,1.1,0.9,1.7,1.3l-2.1,1.7c-0.7-0.8-1.5-1.5-2.4-2.1l1.2-0.9h-1.6c-0.8,0-1.6,0-2.4,0.1
		v-2.2c0.8,0.1,1.5,0.1,2.3,0.1h8.1v-0.4h-1.9c-2.4,0-3.2-0.1-4.1-0.5c-0.5-0.2-0.9-0.5-1.2-1c-0.8,0.6-1.7,1.1-2.6,1.5l-0.9-2.4
		c0.8-0.2,1.5-0.6,2.2-1v-1.4H231c-0.4,0-0.7,0-1.1,0.1v-2.4c0.5,0.1,1,0.1,1.4,0.1L232.6,542.3z M237.6,543.2h4.4v-0.5h-4.4V543.2z
		 M237.6,544.6h4.4v-0.5h-4.4V544.6z M237.6,545.9h4.4v-0.6h-4.4V545.9z"/>
	<path class="st4" d="M259.6,541.6c0.8,0,1.6,0,2.4-0.1c-0.1,0.6-0.1,1.2-0.1,1.8c0,2.9-0.2,5.7-0.5,8.5c-0.1,0.8-0.5,1.5-1.1,1.9
		c-0.8,0.4-1.7,0.5-2.5,0.5c-0.6,0-1.1,0-2.2-0.1c-0.1-1-0.3-2-0.7-2.9c0.8,0.1,1.5,0.2,2.3,0.2c0.9,0,1.3-0.1,1.4-0.5
		c0.3-0.7,0.5-3.1,0.5-6.6h-4c-0.4,3.1-1.1,5.1-2.4,6.8c-1.1,1.4-2.6,2.6-4.2,3.4c-0.5-1-1.2-1.9-2-2.6c2.2-1,3.6-2.1,4.4-3.5
		c0.7-1.2,1.2-2.6,1.3-4.1h-2.7c-0.7,0-1.5,0-2.2,0.1v-2.9c0.8,0.1,1.5,0.1,2.3,0.1h2.8v-1c0-0.7,0-1.4-0.1-2.1h3.3
		c-0.1,0.8-0.2,1.7-0.2,2.6c0,0.2,0,0.3,0,0.6L259.6,541.6z"/>
	<path class="st0" d="M187.4,563.1v1h-6V563h2.2v-0.3h-1.8v-1h1.8v-0.3h-2.1v-0.3c-0.2,0.6-0.5,1.3-0.7,1.7l-0.7-0.3v0.5h1v1.4h-1
		v0.6l0.4-0.3c0.2,0.2,0.9,1.1,1.1,1.3l-0.9,1.1c-0.2-0.4-0.3-0.8-0.5-1.1v3.5h-1.3v-2.7c-0.2,0.6-0.4,1.1-0.8,1.6
		c-0.2-0.5-0.4-1.1-0.6-1.6c0.5-0.6,0.8-1.3,0.9-2.1l0.5,0.2v-0.4h-1.2v-1.4h1.2v-0.4l-0.9,0.2c-0.1-0.8-0.2-1.5-0.4-2.2l1-0.3
		c0.1,0.4,0.2,0.8,0.3,1.2v-1.9h1.3v2.2c0.1-0.5,0.3-1,0.3-1.5l1.1,0.3v-0.3h2.1v-0.7h1.5v0.7h2.1v1.1h-2.2v0.3h2v1h-2v0.3H187.4z
		 M187,568.3c0,0.6-0.1,0.9-0.5,1.1c-0.5,0.2-1.1,0.2-1.6,0.2c-0.1-0.4-0.2-0.8-0.4-1.2c0.3,0,0.8,0,0.9,0c0.1,0,0.2,0,0.2-0.2v-0.1
		H183c-0.1,0.6-0.4,1.1-0.8,1.6c-0.3-0.4-0.7-0.7-1.1-1c0.5-0.7,0.8-1.6,0.7-2.4v-1.8h5.2L187,568.3L187,568.3z M185.6,567.2v-0.4
		h-2.4c0,0.1,0,0.2,0,0.3L185.6,567.2z M183.2,565.5v0.3h2.4v-0.3H183.2z"/>
	<path class="st0" d="M197.5,568h-4.1v1.7h-1.6V568h-4v-1.3h4v-0.4H191v-3l-0.1,0.1c-0.3-0.3-0.7-0.6-1-0.8l-0.7,1
		c-0.5-0.4-1-0.7-1.6-0.9l0.8-1c0.5,0.2,1,0.4,1.4,0.7c0.9-0.7,1.5-1.5,2-2.5l1.4,0.4c-0.1,0.2-0.2,0.5-0.4,0.7h0.7
		c-0.1-0.2-0.1-0.4-0.2-0.6l1.5-0.4c0.1,0.3,0.3,0.7,0.4,1h1.8v1.1h-2v0.4h1.5v0.9H195v0.3h1.5v0.9H195v0.4h2.2v1.2h-4.8v0.1h0.9
		v0.6h4.1L197.5,568z M190.9,564.1c-0.6,0.7-1.2,1.5-1.9,2.2l-1-1.1c0.8-0.7,1.5-1.4,2.2-2.1L190.9,564.1z M190,561.6
		c-0.5-0.4-1-0.7-1.5-0.9l0.8-1c0.6,0.2,1.1,0.5,1.6,0.8L190,561.6z M193.7,561.9h-1.2v0.4h1.2V561.9z M193.7,563.1h-1.2v0.3h1.2
		V563.1z M193.7,564.3h-1.2v0.4h1.2V564.3z"/>
	<path class="st0" d="M199.6,564.7c-0.5-0.4-1.1-0.8-1.8-1l0.8-1.1c0.6,0.2,1.3,0.5,1.8,0.9L199.6,564.7z M201,566.2
		c-0.5,1.1-1,2.3-1.5,3.4l-1.3-0.9c0.6-1.1,1.2-2.2,1.7-3.4L201,566.2z M200.2,561.9c-0.5-0.4-1.1-0.8-1.8-1.1l0.8-1.1
		c0.7,0.2,1.3,0.6,1.8,1L200.2,561.9z M204.9,564v0.3h2.3v2.6h0.5v1.2h-0.5v0.2c0,0.6-0.1,0.9-0.6,1.1c-0.5,0.2-1.1,0.2-1.6,0.2
		c-0.1-0.4-0.3-0.8-0.5-1.2c0.4,0,0.9,0,1,0s0.2,0,0.2-0.2V568h-3v1.5h-1.4V568h-0.7v-1.2h0.7v-2.6h2.1v-0.3h-2.8v-1.2h1.6v-0.2h-1
		v-1h1v-0.2h-1.1v-1h1.1v-0.6h1.4v0.6h1v-0.6h1.5v0.6h1.2v1h-1.2v0.2h1.2v1h-1.1v0.2h1.6v1.2L204.9,564z M202.8,565.3v0.3h0.7v-0.3
		H202.8z M202.8,566.9h0.7v-0.3h-0.7V566.9z M203.7,561.6h1v-0.2h-1V561.6z M203.7,562.8h1v-0.2h-1V562.8z M204.9,565.3v0.3h0.9
		v-0.3H204.9z M205.8,566.9v-0.3h-0.9v0.3H205.8z"/>
	<path class="st0" d="M211.2,564.6c-0.2,0.9-0.4,1.8-0.8,2.7c0.1,0.1,0.3,0.2,0.5,0.3c0.7,0.4,1.7,0.5,2.9,0.5
		c1.4,0,2.8-0.1,4.3-0.3c-0.2,0.5-0.4,1-0.4,1.5c-0.9,0.1-2.7,0.1-3.9,0.1c-1,0.1-2.1-0.1-3-0.5c-0.4-0.2-0.8-0.6-1-0.6
		s-0.6,0.7-0.9,1.3l-1-1.5c0.3-0.4,0.7-0.7,1.1-0.9c0.2-0.5,0.4-1.1,0.5-1.6h-1.3c0.2-0.6,0.5-1.4,0.7-2.2h-0.8v-1.3h2.6
		c-0.2,0.7-0.4,1.5-0.7,2.3h0.3l0.2-0.1L211.2,564.6z M209.3,562c-0.1-0.5-0.4-1.3-0.6-1.9l1.3-0.4c0.2,0.6,0.5,1.3,0.7,1.8
		L209.3,562z M213,567.7h-1.4v-5.4h2c-0.4-0.2-0.7-0.3-1-0.4l0.9-0.8h-1.7v-1.2h4.6l0.3-0.1l0.9,0.7c-0.5,0.5-1.1,1-1.7,1.4
		c0.2,0.1,0.4,0.2,0.5,0.3h1.2v4.2c0,0.6-0.1,0.9-0.5,1.1c-0.4,0.2-0.9,0.3-1.4,0.2c-0.1-0.4-0.2-0.8-0.4-1.2h0.7
		c0.1,0,0.1,0,0.1-0.1v-0.2h-0.9v1.4h-1.3v-1.4H213V567.7z M213,563.4v0.4h0.9v-0.3L213,563.4z M213.8,565.2v-0.4H213v0.4H213.8z
		 M213.5,561.2c0.3,0.1,0.7,0.2,1,0.4c0.2-0.1,0.4-0.2,0.5-0.4H213.5z M215.2,563.4v0.4h0.9v-0.4H215.2z M216.1,565.2v-0.4h-0.9v0.4
		H216.1z"/>
	<path class="st0" d="M226.3,568.1c0.3,0,0.4-0.2,0.4-1.3c0.4,0.3,0.9,0.5,1.4,0.6c-0.2,1.7-0.6,2.2-1.7,2.2h-1.2
		c-1.3,0-1.7-0.5-1.7-1.8v-1.7h-1c-0.2,1.7-0.7,3-3.6,3.6c-0.2-0.5-0.5-1-0.9-1.4c2.3-0.4,2.6-1.1,2.8-2.2h-1.3v-3.5h2.7v-0.7h-3.7
		v-1.3h3.7v-0.9h1.5v0.8h3.9v1.3h-3.9v0.7h2.9v3.5H225v1.7c0,0.4,0,0.4,0.4,0.4L226.3,568.1L226.3,568.1z M221.2,564.7h4.1v-0.8
		h-4.1V564.7z"/>
	<path class="st0" d="M232.5,568c0,0.7-0.1,1.1-0.5,1.3c-0.5,0.2-1,0.3-1.5,0.3c-0.1-0.5-0.2-1-0.4-1.5c0.3,0,0.7,0,0.8,0
		s0.2,0,0.2-0.2v-1.8h-0.8c-0.1,1.2-0.3,2.3-0.7,3.4c-0.4-0.3-0.8-0.5-1.2-0.7c0.6-1.4,0.7-3.5,0.7-5.1v-3.9h3.4V568z M231.1,564.8
		v-1h-0.7v0.1c0,0.3,0,0.6,0,0.9H231.1z M230.4,561.5v0.9h0.7v-0.9H230.4z M238.3,564c-0.2,1.2-0.5,2.4-1.1,3.5
		c0.4,0.4,0.9,0.7,1.4,1c-0.4,0.3-0.7,0.7-0.9,1.2c-0.5-0.3-0.9-0.6-1.3-1c-0.4,0.4-0.8,0.7-1.2,1c-0.2-0.3-0.4-0.7-0.7-0.9v0.9H233
		v-9.5h5v2c0,0.7-0.1,1-0.6,1.2c-0.6,0.2-1.3,0.2-1.9,0.2c-0.1-0.4-0.2-0.9-0.4-1.3c0.4,0,0.9,0,1.3,0c0.2,0,0.2,0,0.2-0.2v-0.6
		h-2.2v2.3h2.8h0.2L238.3,564z M234.3,568.4c0.4-0.2,0.8-0.5,1.1-0.9c-0.4-0.7-0.8-1.5-1.1-2.3V568.4z M235.5,565.1
		c0.2,0.4,0.4,0.8,0.6,1.2c0.2-0.4,0.3-0.8,0.5-1.2H235.5z"/>
	<path class="st0" d="M241.5,561.9c-0.2,0.9-0.8,1.6-1.6,1.9c-0.2-0.4-0.5-0.7-0.9-1c0.5-0.1,0.9-0.5,1.1-1h-1.2v-1.2h1.3v-1h1.3v1
		h0.4v-1h1.3v1h0.6v-1h1.3v1h0.4v-1h1.3v1h1.4v1.2H247v0.1c0,0.3,0,0.4,0.2,0.4h0.5c0.2,0,0.4,0,0.6-0.1c0,0.3,0.1,0.8,0.1,1.1
		c-0.2,0.1-0.4,0.1-0.7,0.1H247c-1.2,0-1.4-0.5-1.4-1.6v-0.1h-0.4v1.6H242v-1.6L241.5,561.9z M248.2,563.9v2.4h-1v1.4
		c0,0.6-0.1,1-0.6,1.2c-0.6,0.2-1.1,0.3-1.7,0.2c-0.1-0.5-0.2-0.9-0.5-1.3c0.4,0,0.9,0,1.1,0c0.1,0,0.2,0,0.2-0.1v-0.8h-1.5v2.7
		h-1.5v-2.7h-1.3v2.1H240v-2.7h-1v-2.4L248.2,563.9z M240.4,565.1v0.6h2.4v-0.5h1.5v0.5h2.5v-0.6H240.4z M243.3,561.9v0.5h0.6v-0.5
		H243.3z"/>
	<path class="st0" d="M254.5,559.7c0,0.5,0,1.1-0.1,1.7c0.2,1.5,0.8,5.2,4.4,6.8c-0.5,0.4-0.8,0.8-1.1,1.3c-1.9-0.9-3.3-2.6-4-4.6
		c-0.6,2-1.9,3.6-3.7,4.7c-0.3-0.5-0.8-0.9-1.3-1.2c4.2-2.3,3.9-6.8,4-8.7H254.5z"/>
	<path class="st0" d="M268.8,569.2h-3.1v0.4h-1.3v-5.4l0,0c-0.1-0.1-0.4-0.4-0.6-0.6v1.1h-1.5v0.3h1.5v1h-1.5c0,0.1,0,0.2,0,0.2h1.8
		v1.1h-2v0.1c0.6,0.3,1.2,0.6,1.8,1l-0.7,1c-0.5-0.4-1-0.7-1.6-1c-0.4,0.5-1,0.9-1.6,1.1c-0.3-0.4-0.6-0.7-0.9-1
		c0.6-0.2,1.2-0.6,1.5-1.2H259v-1.1h1.8c0-0.1,0-0.2,0-0.2h-1.5v-1.1h1.5v-0.3h-1.5v-2.2h1.6v-0.2h-1.1v-1.1H259V560h0.8v-0.3h1.3
		v0.5h0.8v-0.5h1.4v0.5h0.6v1.1h-0.6v1.1h-1.2v0.2h1.6v0.1c0.6-0.9,1-1.9,1.2-2.9l1.4,0.3c-0.2,0.5-0.3,1.1-0.6,1.6h3v1.3h-1v0.7
		h0.9v1.3h-0.9v0.8h0.9v1.3h-0.9v0.8h1L268.8,569.2z M260.4,563.8h0.4v-0.3h-0.4V563.8z M261.1,561.3v0.2h0.8v-0.2H261.1z
		 M262.4,563.5H262v0.3h0.4V563.5z M266.4,563h-0.8v0.7h0.8V563z M266.4,565h-0.8v0.8h0.8V565z M265.6,567.8h0.8V567h-0.8V567.8z
		 M266.8,561.6c-0.1-0.5-0.3-0.9-0.5-1.3l1.3-0.4c0.2,0.4,0.4,0.8,0.6,1.3L266.8,561.6z"/>
	<path class="st0" d="M278.1,568.2h1.1c-0.2,0.4-0.4,0.8-0.5,1.2h-4.4c-1.8,0-3-0.2-3.7-1.2c-0.1,0.5-0.3,1-0.7,1.4
		c-0.2-0.4-0.5-0.7-0.9-1c0.6-0.7,0.7-1.8,0.7-3.1h1.2c0,0.4,0,0.8-0.1,1.1c0.1,0.2,0.2,0.5,0.4,0.7v-2.1h-1.9v-1.1h4.7v1.1h-1.6
		v0.7h1.3v1.1h-1.3v1.1c0.6,0.1,1.2,0.1,1.9,0.1h0.1c-0.3-0.3-0.6-0.5-0.9-0.8c0.6-0.2,1.1-0.6,1.6-1.1l1.2,0.4
		c-0.5,0.6-1,1.1-1.6,1.4C275.5,568.3,276.9,568.3,278.1,568.2c-0.5-0.5-0.9-0.9-1.5-1.3l0.9-0.4h-3.2v-4.9h1.3l0.1-0.4H274v-1.1
		h4.8v1h-1.7l-0.2,0.4h1.7v4.9h-0.8c0.5,0.4,0.9,0.8,1.3,1.2L278.1,568.2z M273.6,563.7h-3.9v-3.6h3.9V563.7z M272.2,561.1H271v0.3
		h1.2V561.1z M272.2,562.3H271v0.3h1.2V562.3z M277.2,562.6h-1.6v0.3h1.6V562.6z M277.2,563.8h-1.6v0.3h1.6V563.8z M277.2,565.1
		h-1.6v0.3h1.6V565.1z"/>
</g>
<rect x="13.2" y="130.1" class="st27" width="336.1" height="26.8"/>
<g>
	<path class="st1" d="M20.6,145.6h-1.1v-1.2h1.2l0.2-1.7h-1.2v-1.2h1.3l0.3-2.5h1.1l-0.3,2.5h1.6l0.3-2.5h1.1l-0.3,2.5h1.1v1.2h-1.3
		l-0.2,1.7h1.2v1.2h-1.4l-0.3,2.8H23l0.3-2.8h-1.6l-0.3,2.8h-1.1L20.6,145.6z M23.5,144.4l0.2-1.7h-1.6l-0.2,1.7H23.5z"/>
	<path class="st1" d="M34,138.2c-0.1,0.1-0.2,0.2-0.3,0.4c1.7,1.8,3.4,2.6,5.2,3.3c-0.4,0.3-0.8,0.9-1,1.3c-1.8-0.8-3.4-1.7-5.2-3.5
		c-1.4,1.5-3.2,2.7-5.1,3.5c-0.2-0.4-0.6-0.9-1-1.3c2.3-0.9,4.6-2.4,5.9-4.3L34,138.2z M33.8,147.8h4.6v1.4H27.5v-1.4h1.4v-4.4h1.5
		v4.4h1.8v-6.5h1.6v2.6h3.4v1.4h-3.4V147.8z"/>
	<path class="st1" d="M44.5,147.5c-0.9,0.7-2.4,1.4-3.7,1.7c-0.2-0.3-0.6-0.8-0.9-1.1c1.3-0.2,2.7-0.6,3.5-1.1L44.5,147.5z
		 M51.3,145.4v1.2h-4.9v2.9h-1.5v-2.9H40v-1.2h4.8v-0.6h-3.7v-1.1h3.7v-0.6h-4.3V142h2.3c-0.1-0.3-0.3-0.6-0.5-0.9l0.9-0.2H40v-1.2
		h1.7c-0.2-0.5-0.5-1.1-0.8-1.6l1.3-0.4c0.4,0.5,0.8,1.3,1,1.8l-0.6,0.2h1.2v-2.1h1.4v2.1h1v-2.1h1.4v2.1h1.1l-0.5-0.1
		c0.3-0.5,0.6-1.3,0.8-1.8l1.6,0.4c-0.4,0.6-0.7,1.2-1,1.6h1.6v1.2h-3.4l1.2,0.3c-0.3,0.3-0.5,0.6-0.8,0.8h2.5v1.1h-4.4v0.6h3.8v1.1
		h-3.8v0.6H51.3z M43.9,140.9c0.2,0.3,0.4,0.7,0.5,1l-0.7,0.2h3.5l-0.5-0.1c0.2-0.3,0.5-0.7,0.6-1H43.9z M47.9,147
		c1,0.4,2.5,1,3.3,1.4l-1.1,0.8c-0.7-0.4-2.2-1.1-3.3-1.5L47.9,147z"/>
	<path class="st1" d="M57,144.4l-1.5,0.4v3c0,0.7-0.1,1.1-0.6,1.3c-0.4,0.2-1,0.3-1.9,0.3c-0.1-0.4-0.3-1-0.4-1.4c0.5,0,1,0,1.2,0
		c0.2,0,0.2-0.1,0.2-0.2v-2.6c-0.5,0.1-1,0.3-1.4,0.4l-0.4-1.5c0.5-0.1,1.1-0.2,1.8-0.4v-2.2h-1.6V140H54v-2.4h1.5v2.4h1.3v1.5h-1.3
		v1.8c0.4-0.1,0.9-0.2,1.3-0.3L57,144.4z M59.5,142.9c-1.7,0-2.2-0.5-2.2-2v-3.3h1.5v1.4h4.9v1.3h-4.9v0.7c0,0.5,0.1,0.7,0.7,0.7
		h2.9c0.5,0,1.3,0,1.6-0.1c0,0.4,0.1,0.9,0.2,1.3c-0.3,0.1-1.1,0.1-1.7,0.1H59.5z M57.5,143.7h6.2v5.8h-1.5V149h-3.2v0.5h-1.4V143.7
		z M58.9,144.9v0.8h3.2v-0.8H58.9z M62.1,147.7v-0.8h-3.2v0.8H62.1z"/>
	<path class="st1" d="M71.8,147.7c0.5,0.1,1,0.1,1.5,0.1c0.7,0,2.8,0,3.6,0c-0.2,0.4-0.5,1.1-0.5,1.5h-3.2c-2.4,0-4.1-0.4-5.3-2.2
		c-0.4,1-1,1.8-1.7,2.4c-0.2-0.3-0.9-0.8-1.2-1c1.4-1,2-2.8,2.2-5l1.5,0.1c-0.1,0.5-0.2,1.1-0.3,1.5c0.4,1,1,1.7,1.7,2V143h-2.7
		v-1.5h7v1.5h-2.7v1.5h3.5v1.4h-3.5V147.7z M67.1,142.1h-1.5V139h4.7c-0.1-0.4-0.3-0.7-0.4-1.1l1.5-0.4c0.3,0.4,0.5,1,0.7,1.5h4.4
		v3.2h-1.6v-1.8h-7.8V142.1z"/>
	<path class="st1" d="M89.5,147.6v1.5H78.1v-1.5H83v-2.5h-3.6v-1.5H83v-2.2h-4.3V140h5.1c-0.5-0.5-1.3-1.1-1.9-1.6l1.2-0.9
		c0.8,0.5,1.9,1.3,2.4,1.9l-0.7,0.5h4v1.5h-4.3v2.2h3.7v1.5h-3.7v2.5H89.5z"/>
	<path class="st1" d="M102.4,139.5h-2.2c0.4,0.3,0.8,0.6,1,0.9l-0.8,0.8h1.7v2.2h-1.6v-1.1h-7.9v1.1h-1.5v-2.2h0.5
		c-0.2-0.3-0.7-0.8-1-1c0.8-0.7,1.5-1.7,1.9-2.7l1.3,0.4c-0.1,0.2-0.1,0.3-0.2,0.5h2.8v1.1c0.6-0.5,1.1-1.2,1.3-1.9l1.4,0.4
		c-0.1,0.2-0.2,0.4-0.2,0.5h3.5V139.5z M94.3,141.1c-0.2-0.3-0.8-0.8-1.2-1.2l0.5-0.4h-0.8c-0.4,0.6-0.9,1.2-1.3,1.6H94.3z
		 M94.2,146.2h6.9v3.3h-1.5v-0.3h-5.4v0.3h-1.5v-6.7h7.8v2.8h-6.2V146.2z M94.2,143.9v0.7h4.7v-0.7H94.2z M94.2,147.3v0.7h5.4v-0.7
		H94.2z M96.8,140.2c-0.2-0.2-0.5-0.4-0.7-0.5l0.1-0.1h-1.7c0.3,0.3,0.6,0.5,0.8,0.8l-0.9,0.8h1.5c-0.1-0.2-0.2-0.5-0.3-0.7
		L96.8,140.2z M100,141.1c-0.3-0.4-0.9-0.8-1.3-1.1l0.5-0.5h-1.1c-0.3,0.4-0.6,0.7-0.9,1c-0.1-0.1-0.2-0.2-0.3-0.3
		c0.2,0.3,0.4,0.6,0.5,0.9H100z"/>
	<path class="st1" d="M108.1,140.9h-4.8v-1.2h2.1c-0.2-0.5-0.5-1.1-0.8-1.6l1.1-0.5c0.3,0.5,0.7,1.2,0.9,1.7l-0.8,0.5h2.2V140.9z
		 M109,138.2h1.4v4.5c0,2.4-0.2,5-1.5,7c-0.3-0.2-1-0.6-1.4-0.7l0.1-0.1H105v0.5h-1.2v-4.4h3.9v3.7c1.2-1.7,1.3-3.9,1.3-6V138.2z
		 M107.6,142.6h-3.8v-1.1h3.8V142.6z M103.8,143.2h3.8v1.1h-3.8V143.2z M106.4,146.2H105v1.4h1.4V146.2z M111.2,138.8h1.4v9.5h-1.4
		V138.8z M114.8,138v11.4h-1.5V138H114.8z"/>
	<path class="st1" d="M125.9,145.6h-1.1v-1.2h1.2l0.2-1.7H125v-1.2h1.3l0.3-2.5h1.1l-0.3,2.5h1.6l0.3-2.5h1.1l-0.3,2.5h1.1v1.2H130
		l-0.2,1.7h1.2v1.2h-1.4l-0.3,2.8h-1.1l0.3-2.8H127l-0.3,2.8h-1.1L125.9,145.6z M128.7,144.4l0.2-1.7h-1.6l-0.2,1.7H128.7z"/>
	<path class="st1" d="M136,143.9c-0.2,1-0.4,2-0.8,2.7c0.8,1.2,2.2,1.3,4.2,1.4c1.3,0,3.4-0.1,4.9-0.2c-0.2,0.3-0.4,1-0.5,1.4
		c-1.3,0.1-2.9,0.1-4.4,0.1c-2.3,0-3.8-0.2-4.7-1.5c-0.5,0.8-1,1.3-1.7,1.7c-0.2-0.3-0.7-0.8-1-1c1.2-0.7,2-1.9,2.4-3.7h-1.1
		c-0.3,0-0.7,0.1-0.8,0.2c-0.1-0.3-0.4-1-0.5-1.2c0.2-0.1,0.4-0.2,0.6-0.4c0.2-0.2,0.8-0.9,1.2-1.6h-1.6v-1.2h2.6l0.1-0.1l0.9,0.4
		c-0.5,0.7-1.3,1.9-2,2.7h1l0.2,0L136,143.9z M134.4,140.4c-0.4-0.5-1.1-1.4-1.7-2.1l1.1-0.7c0.6,0.6,1.3,1.4,1.7,1.9L134.4,140.4z
		 M138.5,142.6c-0.1,1.6-0.4,3.4-1.4,4.7c-0.3-0.3-0.9-0.8-1.3-0.9c1.1-1.5,1.2-3.6,1.2-5.2v-2.7c2-0.1,4.2-0.3,5.5-0.7l1.2,1.1
		c-1.4,0.5-3.4,0.7-5.2,0.8v1.6h5.3v1.4h-2v4.8h-1.6v-4.8H138.5z"/>
	<path class="st1" d="M144.8,147.3l0.9-1.2c0.5,0.5,1.2,1,2.1,1c1,0,1.7-0.6,1.7-1.6c0-1-0.6-1.6-1.6-1.6c-0.6,0-0.9,0.1-1.4,0.5
		l-0.9-0.5l0.3-4.6h5v1.6h-3.4l-0.2,2c0.4-0.2,0.7-0.3,1.1-0.3c1.6,0,2.9,0.9,2.9,2.9c0,2-1.6,3.2-3.3,3.2
		C146.5,148.6,145.5,148,144.8,147.3z"/>
	<path class="st1" d="M152.5,143.8c0-3.1,1.3-4.7,3.2-4.7s3.2,1.6,3.2,4.7c0,3.1-1.2,4.8-3.2,4.8S152.5,146.9,152.5,143.8z
		 M157.1,143.8c0-2.5-0.6-3.3-1.4-3.3s-1.4,0.7-1.4,3.3c0,2.6,0.6,3.3,1.4,3.3S157.1,146.3,157.1,143.8z"/>
	<path class="st1" d="M160,143.8c0-3.1,1.3-4.7,3.2-4.7s3.2,1.6,3.2,4.7c0,3.1-1.2,4.8-3.2,4.8S160,146.9,160,143.8z M164.6,143.8
		c0-2.5-0.6-3.3-1.4-3.3c-0.8,0-1.4,0.7-1.4,3.3c0,2.6,0.6,3.3,1.4,3.3C164,147.1,164.6,146.3,164.6,143.8z"/>
	<path class="st1" d="M167.5,143.8c0-3.1,1.3-4.7,3.2-4.7s3.2,1.6,3.2,4.7c0,3.1-1.2,4.8-3.2,4.8S167.5,146.9,167.5,143.8z
		 M172.1,143.8c0-2.5-0.6-3.3-1.4-3.3s-1.4,0.7-1.4,3.3c0,2.6,0.6,3.3,1.4,3.3S172.1,146.3,172.1,143.8z"/>
	<path class="st1" d="M179.2,138.1c-0.3,0.9-0.7,1.7-1.2,2.6v8.8h-1.5v-6.4c-0.3,0.3-0.5,0.6-0.8,0.9c-0.1-0.4-0.6-1.2-0.8-1.6
		c1.1-1.1,2.3-3,2.9-4.8L179.2,138.1z M186.6,147.5v1.5h-8v-1.5h4.4c0.4-1.7,0.9-4.1,1-6l1.6,0.2c-0.3,1.9-0.8,4.1-1.2,5.7H186.6z
		 M182.1,139.7c-0.1-0.5-0.3-1.4-0.6-2l1.4-0.4c0.3,0.6,0.5,1.4,0.6,1.9l-1.3,0.4h3.9v1.5h-7.1v-1.5H182.1z M180.6,147.2
		c-0.1-1.3-0.4-3.6-0.8-5.3l1.4-0.3c0.4,1.7,0.7,3.9,0.9,5.1L180.6,147.2z"/>
	<path class="st1" d="M192.4,141.5c0,1.3-0.2,2.9-0.9,4.4c0.6,0.6,1.2,1.1,1.5,1.5l-1,1.3c-0.3-0.4-0.8-0.9-1.3-1.4
		c-0.5,0.8-1.2,1.6-2.2,2.2c-0.2-0.3-0.7-0.8-1.1-1.1c1-0.7,1.7-1.4,2.2-2.2c-0.6-0.6-1.3-1.2-1.9-1.7c0.2-0.8,0.4-1.7,0.6-2.8
		l-0.7,0.1l-0.1-1.4c0.3,0,0.7,0,1.1,0c0.1-0.9,0.2-1.8,0.3-2.7l1.5,0.1c-0.1,0.8-0.2,1.7-0.3,2.6l0.9-0.1v-0.8h1.4v0.7l0.7,0v1.4
		L192.4,141.5z M189.9,141.7c-0.2,0.8-0.3,1.7-0.5,2.4c0.3,0.3,0.6,0.5,1,0.8c0.4-1.1,0.6-2.3,0.6-3.3L189.9,141.7z M199.5,144.3
		H197v3.6c0,0.8-0.2,1.2-0.7,1.4c-0.5,0.2-1.2,0.3-2.2,0.2c-0.1-0.4-0.3-1-0.5-1.4c0.6,0,1.4,0,1.6,0c0.2,0,0.3-0.1,0.3-0.2v-3.6
		h-2.7v-1.4h2.7v-1.2c0.5-0.5,1.1-1.2,1.6-1.9h-3.7v-1.4h4.7l0.4-0.1l1,0.7c-0.6,0.9-1.4,2-2.3,2.8v1h2.5V144.3z"/>
	<path class="st1" d="M205.2,140.9h-4.8v-1.2h2c-0.2-0.5-0.5-1.1-0.8-1.6l1.1-0.5c0.3,0.5,0.7,1.2,0.9,1.7l-0.8,0.5h2.3V140.9z
		 M200.9,142.6v-1.1h3.7v1.1H200.9z M204.7,144.3h-3.7v-1.1h3.7V144.3z M204.7,148.8h-2.5v0.5h-1.2v-4.4h3.7V148.8z M202.1,146.2
		v1.4h1.3v-1.4H202.1z M212.2,145.2h-2.8v4.3h-1.5v-4.3h-2.8v-1.4h2.8v-4.1h-2.4v-1.4h6.4v1.4h-2.6v4.1h2.8V145.2z M206.9,140.2
		c0.3,0.9,0.5,2.1,0.6,2.9l-1.3,0.3c0-0.8-0.3-2-0.5-3L206.9,140.2z M209.8,143.1c0.3-0.8,0.6-2.1,0.7-3l1.4,0.3
		c-0.3,1.1-0.7,2.3-1,3L209.8,143.1z"/>
	<path class="st1" d="M224.9,148.7h-5.3v0.8h-1.5v-6.8c-0.3,0.4-0.5,0.7-0.8,1c-0.1-0.1-0.2-0.2-0.3-0.3l0.1,1
		c-0.4,0.1-0.8,0.3-1.2,0.4v3c0,0.7-0.1,1.1-0.5,1.4c-0.4,0.3-1,0.3-1.8,0.3c0-0.4-0.2-1-0.4-1.5c0.4,0,0.9,0,1,0
		c0.2,0,0.2,0,0.2-0.2v-2.6l-1.2,0.3l-0.3-1.4c0.4-0.1,1-0.2,1.6-0.4v-2.3h-1.4V140h1.4v-2.3h1.5v2.3h1.3v1.4H216v1.9l0.8-0.2
		c-0.2-0.2-0.4-0.4-0.5-0.5c1.2-1.1,2.2-3,2.8-4.9l1.4,0.4c-0.2,0.6-0.4,1.2-0.7,1.7h1.7c-0.2-0.5-0.4-1.1-0.7-1.6l1.3-0.5
		c0.3,0.5,0.7,1.3,0.9,1.7l-0.8,0.3h2.4v1.4h-2v1.1h1.9v1.3h-1.9v1.1h1.9v1.3h-1.9v1.2h2.3V148.7z M221.2,141.2h-1.6v1.1h1.6V141.2z
		 M221.2,143.7h-1.6v1.1h1.6V143.7z M219.6,147.3h1.6v-1.2h-1.6V147.3z"/>
	<path class="st1" d="M231.9,139.5c0.2,0.2,0.4,0.6,0.5,0.9h4.9v1h-3.6v0.5h3v2.2h-6.4l-0.1,0.5h6.6v1H230L230,146h7.1
		c0,0,0,0.3,0,0.5c-0.1,1.6-0.3,2.3-0.5,2.6c-0.2,0.2-0.5,0.3-0.8,0.4c-0.3,0-0.7,0.1-1.3,0c0-0.3-0.1-0.8-0.3-1.1
		c0.4,0,0.7,0,0.9,0c0.2,0,0.2,0,0.3-0.1c0.1-0.1,0.2-0.5,0.3-1.3h-1.5c0.3,0.3,0.6,0.7,0.7,1l-1,0.5c-0.1-0.3-0.4-0.8-0.7-1.2
		l0.8-0.3h-5.3l0.5-2.9h-0.8c-0.1,1.7-0.4,3.8-1.3,5.2c-0.3-0.2-0.9-0.6-1.2-0.8c1.1-1.6,1.2-3.9,1.2-5.5v-2.8h4.2
		c-0.1-0.2-0.2-0.3-0.3-0.5L231.9,139.5z M228.4,139.4H226v-1.1h2.4v-0.6h1.5v0.6h1.5v1.1h-1.5v0.6h-1.5V139.4z M227.6,148.8
		c0.3-0.4,0.7-1.1,0.8-1.7l1.1,0.5c-0.2,0.6-0.5,1.3-0.8,1.8L227.6,148.8z M228.2,141.4v0.5h1.5v-0.5H228.2z M228.2,143.3h1.5v-0.5
		h-1.5v0.4V143.3z M231,147.4c0.1,0.5,0.2,1.3,0.2,1.7l-1.2,0.2c0-0.5-0.1-1.2-0.2-1.8L231,147.4z M232.4,141.4h-1.5v0.5h1.5V141.4z
		 M230.9,143.3h1.5v-0.5h-1.5V143.3z M232.5,147.2c0.3,0.5,0.5,1.1,0.6,1.5l-1.1,0.4c-0.1-0.4-0.3-1.1-0.5-1.6L232.5,147.2z
		 M237.4,138.3v1.1H235v0.7h-1.5v-0.7H232v-1.1h1.6v-0.6h1.5v0.6H237.4z M233.7,142.8v0.5h1.5v-0.5H233.7z"/>
	<path class="st1" d="M248.4,145.6h-1.1v-1.2h1.2l0.2-1.7h-1.2v-1.2h1.3l0.3-2.5h1.1l-0.3,2.5h1.6l0.3-2.5h1.1l-0.3,2.5h1.1v1.2
		h-1.3l-0.2,1.7h1.2v1.2h-1.4l-0.3,2.8h-1.1l0.3-2.8h-1.6l-0.3,2.8H248L248.4,145.6z M251.2,144.4l0.2-1.7h-1.6l-0.2,1.7H251.2z"/>
	<path class="st1" d="M259.4,144.9c0.6,1,1.4,2.4,1.8,3.3l-1.4,0.8c-0.1-0.3-0.3-0.7-0.4-1.1c-3,0.9-3.5,1.1-3.9,1.4
		c-0.1-0.4-0.3-1.2-0.6-1.5c0.3-0.1,0.6-0.4,0.6-0.9v-8.5h5.4v6.3H257v2.5l1.7-0.5c-0.2-0.4-0.4-0.7-0.6-1.1L259.4,144.9z
		 M257,139.6v1.1h2.3v-1.1H257z M259.3,143.2V142H257v1.2H259.3z M266.1,145.7c0,0.7-0.1,1.1-0.5,1.3c-0.4,0.2-1,0.3-1.8,0.3
		c-0.1-0.4-0.2-1-0.4-1.4c0.5,0,0.9,0,1.1,0c0.2,0,0.2-0.1,0.2-0.2v-5.9H263v9.8h-1.5v-11.2h4.6V145.7z"/>
	<path class="st1" d="M279.1,147.2h-4.9v0.9c0,0.7-0.2,1-0.7,1.2c-0.5,0.2-1.2,0.2-2.2,0.2c-0.1-0.4-0.3-0.9-0.5-1.3
		c0.6,0,1.4,0,1.6,0c0.2,0,0.3,0,0.3-0.2v-0.9h-5.2V146h5.2v-0.4c0.5-0.2,0.9-0.5,1.4-0.7h-4.1v-1.1h5.5l0.3-0.1l0.9,0.8
		c-0.7,0.5-1.6,1-2.4,1.5h4.8V147.2z M269.3,144.8h-1.4v-2.6h1l-0.2-3.8c0.8-0.1,1.9-0.5,2.6-0.7l0.6,0.9c-0.5,0.2-1.1,0.4-1.7,0.5
		l0,0.4h1.6v0.9h-1.6l0,0.4h1.6v0.6c0.3-0.2,0.6-0.3,0.9-0.5c-0.2-0.2-0.5-0.3-0.7-0.4l0.7-0.6c0.3,0.1,0.5,0.3,0.8,0.4
		c0.2-0.2,0.4-0.4,0.5-0.5l1,0.3c-0.2,0.3-0.4,0.5-0.7,0.8c0.3,0.2,0.6,0.4,0.8,0.6l-0.8,0.7c-0.2-0.2-0.4-0.4-0.7-0.6
		c-0.3,0.3-0.7,0.5-1,0.7h4.1l0.1-0.4h-1.5v-0.9h1.6l0-0.4h-1.6v-0.9h1.6l0-0.4h-1.7v-1h3.2c-0.1,1.3-0.2,3-0.3,4.1h0.9v2.6h-1.5
		v-1.5h-8.2V144.8z M270.2,142.2h2.1c-0.1-0.2-0.4-0.4-0.6-0.6v0.1h-1.5L270.2,142.2z M274.1,139.8c-0.2-0.2-0.4-0.3-0.7-0.5
		c-0.3,0.3-0.7,0.5-1,0.6c-0.2-0.2-0.5-0.5-0.8-0.7c0.3-0.1,0.7-0.3,1-0.5c-0.2-0.1-0.5-0.3-0.7-0.4l0.7-0.6
		c0.2,0.1,0.5,0.3,0.8,0.4c0.2-0.2,0.3-0.3,0.5-0.5l1,0.3c-0.2,0.2-0.4,0.5-0.6,0.7c0.3,0.2,0.5,0.4,0.7,0.5L274.1,139.8z"/>
	<path class="st1" d="M284.9,144.9c0.6,1,1.4,2.4,1.8,3.3l-1.4,0.8c-0.1-0.3-0.3-0.7-0.4-1.1c-3,0.9-3.5,1.1-3.9,1.4
		c-0.1-0.4-0.3-1.2-0.6-1.5c0.3-0.1,0.6-0.4,0.6-0.9v-8.5h5.4v6.3h-3.8v2.5l1.7-0.5c-0.2-0.4-0.4-0.7-0.6-1.1L284.9,144.9z
		 M282.4,139.6v1.1h2.3v-1.1H282.4z M284.7,143.2V142h-2.3v1.2H284.7z M291.5,145.7c0,0.7-0.1,1.1-0.5,1.3c-0.4,0.2-1,0.3-1.8,0.3
		c-0.1-0.4-0.2-1-0.4-1.4c0.5,0,0.9,0,1.1,0c0.2,0,0.2-0.1,0.2-0.2v-5.9h-1.5v9.8H287v-11.2h4.6V145.7z"/>
	<path class="st1" d="M303.9,147.7c0,0.8-0.2,1.2-0.7,1.5c-0.5,0.3-1.3,0.3-2.4,0.3c-0.1-0.4-0.3-1.1-0.5-1.5c0.7,0,1.6,0,1.8,0
		c0.2,0,0.3-0.1,0.3-0.3v-1.9h-2.7v3.6h-1.5v-3.6h-2.6c-0.2,1.4-0.7,2.8-1.6,3.8c-0.2-0.3-0.9-0.8-1.2-1c1.4-1.5,1.5-3.8,1.5-5.6
		v-4.5h9.6V147.7z M298.2,144.4v-1.6h-2.4v0.2c0,0.4,0,0.9,0,1.3H298.2z M295.8,139.9v1.5h2.4v-1.5H295.8z M302.4,139.9h-2.7v1.5
		h2.7V139.9z M302.4,144.4v-1.6h-2.7v1.6H302.4z"/>
	<path class="st1" d="M317.4,141.2v1.1h-2.3l-0.1,1h-7.3l0.1-1h-2v-1.1h2.2l0.1-1h7.2l-0.1,1H317.4z M314,147.8
		c1.1,0.3,2.2,0.6,3,0.9l-1,0.9c-0.9-0.3-2.4-0.9-3.9-1.2l0.5-0.6h-2.3l0.8,0.6c-1.1,0.5-2.9,1-4.3,1.3c-0.2-0.3-0.5-0.8-0.8-1
		c1.1-0.2,2.4-0.4,3.3-0.8h-1.8v-4.1h8.3v4.1H314z M307.5,140.9h-1.4v-2.2h4.6c-0.1-0.3-0.2-0.5-0.4-0.8l1.3-0.4
		c0.2,0.3,0.4,0.8,0.6,1.1h4.6v2.2h-1.4v-1h-8.1V140.9z M308.9,144.8h5.3v-0.4h-5.3V144.8z M308.9,145.9h5.3v-0.4h-5.3V145.9z
		 M308.9,147h5.3v-0.4h-5.3V147z M309.1,142.5h1.7l0.1-0.4h-1.7L309.1,142.5z M309.3,141l-0.1,0.4h1.7l0-0.4H309.3z M313.6,142.5
		l0-0.4h-1.6l-0.1,0.4H313.6z M313.8,141h-1.6l0,0.4h1.6L313.8,141z"/>
	<path class="st1" d="M322.4,147.7v1.8H321v-1.8h-2.7v-1.3h2.7v-0.6h-2.2v-4.6h6v4.6h-2.3v0.6h2.6v1.3H322.4z M321.5,140.7h-2.9
		v-2.7h2.9V140.7z M320.4,138.9h-0.7v0.8h0.7V138.9z M320,142.9h1.1v-0.7H320V142.9z M320,144.6h1.1V144H320V144.6z M324.9,140.7
		H322v-2.7h2.9V140.7z M323.4,142.3h-1.1v0.7h1.1V142.3z M323.4,144h-1.1v0.7h1.1V144z M323.7,138.9H323v0.8h0.7V138.9z
		 M329.9,143.1c-0.4,1.2-1,2.4-1.8,3.5c0.2,0.7,0.5,1.1,0.7,1.1c0.2,0,0.3-0.6,0.4-1.7c0.2,0.3,0.9,0.7,1.1,0.9
		c-0.3,2.2-1,2.7-1.5,2.7c-0.8,0-1.3-0.6-1.8-1.7c-0.6,0.6-1.2,1.1-1.9,1.5c-0.3-0.3-0.7-0.8-1.1-1.1c1-0.4,1.8-1.1,2.6-2
		c-0.2-1-0.4-2.3-0.5-3.7l-1.1,0.1l-0.2-1.4l1.1-0.1c-0.1-1.1-0.1-2.3-0.1-3.5h1.4c0,1.2,0.1,2.3,0.1,3.3l2.7-0.3l0.2,1.4l-2.8,0.3
		c0.1,0.8,0.2,1.6,0.3,2.3c0.4-0.7,0.8-1.5,1-2.3L329.9,143.1z M328.9,140.6c-0.2-0.6-0.7-1.5-1.2-2.2l1.1-0.6
		c0.5,0.7,1.1,1.5,1.3,2.1L328.9,140.6z"/>
	<path class="st1" d="M335.9,140.9H331v-1.2h2.2c-0.2-0.5-0.5-1.1-0.8-1.6l1.2-0.6c0.4,0.5,0.8,1.2,1,1.7l-0.9,0.5h2.2V140.9z
		 M340.6,145.4c0.6,1,1.6,1.9,2.5,2.5c-0.3,0.3-0.8,0.8-1,1.1c-0.7-0.6-1.5-1.4-2.1-2.4v2.9h-1.5v-2.8c-0.6,0.9-1.4,1.8-2.2,2.3
		c-0.2-0.3-0.4-0.6-0.7-0.9v0.6h-2.7v0.5h-1.3v-4.4h4v2.7c0.9-0.6,1.7-1.4,2.3-2.3h-2.1V144h2.7v-0.8h-2.3v-5.2h6.3v5.2H340v0.8h2.7
		v1.3H340.6z M335.5,142.6h-3.9v-1.1h3.9V142.6z M331.6,143.2h3.9v1.1h-3.9V143.2z M334.3,146.2h-1.4v1.4h1.4V146.2z M337.5,140.1
		h1.1v-0.8h-1.1V140.1z M337.5,142.1h1.1v-0.8h-1.1V142.1z M341,139.3h-1.1v0.8h1.1V139.3z M341,141.3h-1.1v0.8h1.1V141.3z"/>
</g>
</svg>
